<svg xmlns="http://www.w3.org/2000/svg" xmlns:xlink="http://www.w3.org/1999/xlink" xmlns:lucid="lucid" width="1517" height="582.19"><g transform="translate(-5199 -19)" lucid:page-tab-id="uAxj0TO~3.Aj"><path d="M5694.5 246.15a2 2 0 0 1 2-2h96a2 2 0 0 1 2 2v85.54a2 2 0 0 1-2 2h-96a2 2 0 0 1-2-2z" stroke="#333" stroke-width="3" fill="#fff"/><use xlink:href="#a" transform="matrix(1,0,0,1,5699.500049999991,249.14921225716702) translate(30.611111111111114 43.49999999999999)"/><path d="M5694.5 335.7a2 2 0 0 1 2-2h96a2 2 0 0 1 2 2v236.04a2 2 0 0 1-2 2h-96a2 2 0 0 1-2-2zM5694.5 124.83a2 2 0 0 1 2-2h96a2 2 0 0 1 2 2v117.32a2 2 0 0 1-2 2h-96a2 2 0 0 1-2-2zM5498.5 124.83a2 2 0 0 1 2-2h76a2 2 0 0 1 2 2v446.9a2 2 0 0 1-2 2h-76a2 2 0 0 1-2-2z" stroke="#333" stroke-width="3" fill="#fff"/><path d="M5498.5 315.77a2 2 0 0 1 2-2h76a2 2 0 0 1 2 2v42.5a2 2 0 0 1-2 2h-76a2 2 0 0 1-2-2z" stroke="#333" stroke-width="3" fill="#fff"/><use xlink:href="#b" transform="matrix(1,0,0,1,5510.500049999991,325.7657188327361) translate(15.250000000000004 17.4375)"/><path d="M5581 337.02h27a2 2 0 0 1 2 2v232.35a2 2 0 0 0 2 2h62.9" stroke="#333" stroke-width="2" fill="none"/><path d="M5581.03 338H5580v-1.96h1.03z" stroke="#333" stroke-width=".05" fill="#333"/><path d="M5690.16 573.37L5675.9 578v-9.26z" stroke="#333" stroke-width="2" fill="#333"/><path d="M5200 547.12a2 2 0 0 1 2-2h76a2 2 0 0 1 2 2V598a2 2 0 0 1-2 2h-76a2 2 0 0 1-2-2z" stroke="#000" stroke-opacity="0" stroke-width="3" fill="#fff" fill-opacity="0"/><use xlink:href="#c" transform="matrix(1,0,0,1,5205,550.1194610825341) translate(26.790123456790127 26.21527777777778)"/><path d="M5324 124.83a2 2 0 0 1 2-2h76a2 2 0 0 1 2 2v446.9a2 2 0 0 1-2 2h-76a2 2 0 0 1-2-2z" stroke="#333" stroke-width="3" fill="#fff"/><path d="M5324 418.7a2 2 0 0 1 2-2h76a2 2 0 0 1 2 2V458a2 2 0 0 1-2 2h-76a2 2 0 0 1-2-2z" stroke="#333" stroke-width="3" fill="#fff"/><use xlink:href="#b" transform="matrix(1,0,0,1,5336,428.6900053833831) translate(15.250000000000004 15.999999999999998)"/><path d="M5406.5 438.35h43.06a2 2 0 0 1 2 2v131.4a2 2 0 0 0 2 2h25.57" stroke="#5e5e5e" stroke-width="2" fill="none"/><path d="M5406.53 439.32h-1.03v-1.95h1.03z" stroke="#5e5e5e" stroke-width=".05" fill="#5e5e5e"/><path d="M5494.4 573.75l-14.27 4.63v-9.27z" stroke="#5e5e5e" stroke-width="2" fill="#5e5e5e"/><path d="M5281 572.56h20.25a.04.04 0 0 0 .04-.04.04.04 0 0 1 .04-.05h2.74" stroke="#5e5e5e" stroke-width="2" fill="none"/><path d="M5281.03 573.54H5280v-1.95h1.03z" stroke="#5e5e5e" stroke-width=".05" fill="#5e5e5e"/><path d="M5319.35 572.47l-14.27 4.64v-9.26z" stroke="#5e5e5e" stroke-width="2" fill="#5e5e5e"/><path d="M5200 20h180v37.67h-180z" stroke="#000" stroke-width="2" fill="#fff"/><use xlink:href="#d" transform="matrix(1,0,0,1,5212,32.00384385995393) translate(49.40802469135802 16.177777777777777)"/><path d="M5380 20h180v37.67h-180z" stroke="#000" stroke-width="2" fill="#fff"/><use xlink:href="#e" transform="matrix(1,0,0,1,5392,32.00384385995393) translate(49.40802469135802 16.177777777777777)"/><path d="M5560 20h180v37.67h-180z" stroke="#000" stroke-width="2" fill="#fff"/><use xlink:href="#f" transform="matrix(1,0,0,1,5572,32.00384385995393) translate(49.40802469135802 16.177777777777777)"/><path d="M5242.52 59.67v391.25a2 2 0 0 0 2 2H5304" stroke="#282c33" stroke-width="2" fill="none"/><path d="M5243.5 59.7h-1.95v-1.03h1.95z" stroke="#282c33" stroke-width=".05" fill="#282c33"/><path d="M5319.26 452.92l-14.26 4.63v-9.27z" stroke="#282c33" stroke-width="2" fill="#282c33"/><use xlink:href="#g" transform="matrix(1,0,0,1,5250.523049941808,90.19875826266534) translate(0 16.177777777777777)"/><path d="M5445.88 59.67V359.9h33.02" stroke="#282c33" stroke-width="2" fill="none"/><path d="M5446.86 59.7h-1.95v-1.03h1.96z" stroke="#282c33" stroke-width=".05" fill="#282c33"/><path d="M5494.17 359.9l-14.27 4.64v-9.27z" stroke="#282c33" stroke-width="2" fill="#282c33"/><use xlink:href="#g" transform="matrix(1,0,0,1,5453.881583287259,95.88162028992159) translate(0 16.177777777777777)"/><path d="M5650 59.67v275.35h24.57" stroke="#282c33" stroke-width="2" fill="none"/><path d="M5650.98 59.7h-1.95v-1.03h1.95z" stroke="#282c33" stroke-width=".05" fill="#282c33"/><path d="M5689.83 335.02l-14.26 4.63v-9.26z" stroke="#282c33" stroke-width="2" fill="#282c33"/><use xlink:href="#h" transform="matrix(1,0,0,1,5658,93.40059870488003) translate(0 16.177777777777777)"/><path d="M5233.7 105.3l18.6-18.6M5233.73 105.28l-.73.72M5252.27 86.73l.73-.73M5436.7 106.2l18.6-18.58M5436.73 106.18l-.73.73M5455.27 87.63l.73-.72M5639.43 107.08l18.58-18.6M5639.45 107.06l-.73.72M5658 88.5l.72-.72" stroke="#282c33" stroke-width="2" fill="none"/><path d="M6254.5 246.15a2 2 0 0 1 2-2h96a2 2 0 0 1 2 2v85.54a2 2 0 0 1-2 2h-96a2 2 0 0 1-2-2z" stroke="#333" stroke-width="3" fill="#fff"/><use xlink:href="#a" transform="matrix(1,0,0,1,6259.500049999991,249.14536839721333) translate(30.611111111111114 43.49999999999999)"/><path d="M6254.5 335.7a2 2 0 0 1 2-2h96a2 2 0 0 1 2 2v236.04a2 2 0 0 1-2 2h-96a2 2 0 0 1-2-2zM6254.5 124.82a2 2 0 0 1 2-2h96a2 2 0 0 1 2 2v117.33a2 2 0 0 1-2 2h-96a2 2 0 0 1-2-2zM6058.5 124.82a2 2 0 0 1 2-2h76a2 2 0 0 1 2 2v446.92a2 2 0 0 1-2 2h-76a2 2 0 0 1-2-2z" stroke="#333" stroke-width="3" fill="#fff"/><path d="M6058.5 315.76a2 2 0 0 1 2-2h76a2 2 0 0 1 2 2v42.5a2 2 0 0 1-2 2h-76a2 2 0 0 1-2-2z" stroke="#333" stroke-width="3" fill="#fff"/><use xlink:href="#b" transform="matrix(1,0,0,1,6070.500049999991,325.76187497278244) translate(15.250000000000004 17.4375)"/><path d="M6141 337.02h27a2 2 0 0 1 2 2v232.35a2 2 0 0 0 2 2h62.9" stroke="#333" stroke-width="2" fill="none"/><path d="M6141.03 338H6140v-1.96h1.03z" stroke="#333" stroke-width=".05" fill="#333"/><path d="M6250.16 573.37L6235.9 578v-9.27z" stroke="#333" stroke-width="2" fill="#333"/><path d="M6001 573.74h38.13" stroke="#5e5e5e" stroke-width="2" fill="none"/><path d="M6001.03 574.72H6000v-1.95h1.03z" stroke="#5e5e5e" stroke-width=".05" fill="#5e5e5e"/><path d="M6054.4 573.74l-14.27 4.64v-9.27z" stroke="#5e5e5e" stroke-width="2" fill="#5e5e5e"/><path d="M5940 20h180v37.67h-180z" stroke="#000" stroke-width="2" fill="#fff"/><use xlink:href="#e" transform="matrix(1,0,0,1,5952,32.00000000000023) translate(49.40802469135802 16.177777777777777)"/><path d="M6120 20h180v37.67h-180z" stroke="#000" stroke-width="2" fill="#fff"/><use xlink:href="#f" transform="matrix(1,0,0,1,6132,32.00000000000023) translate(49.40802469135802 16.177777777777777)"/><path d="M6005.88 59.67V359.9h33.02" stroke="#282c33" stroke-width="2" fill="none"/><path d="M6006.86 59.7h-1.95v-1.03h1.96z" stroke="#282c33" stroke-width=".05" fill="#282c33"/><path d="M6054.17 359.9l-14.27 4.64v-9.27z" stroke="#282c33" stroke-width="2" fill="#282c33"/><use xlink:href="#g" transform="matrix(1,0,0,1,6013.881583287259,95.87838438583279) translate(0 16.177777777777777)"/><path d="M6210 59.67v275.35h24.57" stroke="#282c33" stroke-width="2" fill="none"/><path d="M6210.98 59.7h-1.95v-1.03h1.95z" stroke="#282c33" stroke-width=".05" fill="#282c33"/><path d="M6249.83 335.02l-14.26 4.63v-9.27z" stroke="#282c33" stroke-width="2" fill="#282c33"/><use xlink:href="#h" transform="matrix(1,0,0,1,6218,93.39675484492633) translate(0 16.177777777777777)"/><path d="M5996.7 106.2l18.6-18.6M5996.73 106.18l-.73.72M6015.27 87.63l.73-.72M6199.43 107.07L6218 88.5M6199.45 107.06l-.73.72M6218 88.5l.72-.72" stroke="#282c33" stroke-width="2" fill="none"/><path d="M5920 548.3a2 2 0 0 1 2-2h76a2 2 0 0 1 2 2v50.9a2 2 0 0 1-2 2h-76a2 2 0 0 1-2-2z" stroke="#000" stroke-opacity="0" stroke-width="3" fill="#fff" fill-opacity="0"/><use xlink:href="#c" transform="matrix(1,0,0,1,5925,551.3021827054874) translate(26.790123456790127 26.21527777777778)"/><path d="M6614.5 246.15a2 2 0 0 1 2-2h96a2 2 0 0 1 2 2v85.54a2 2 0 0 1-2 2h-96a2 2 0 0 1-2-2z" stroke="#333" stroke-width="3" fill="#fff"/><use xlink:href="#a" transform="matrix(1,0,0,1,6619.500049999991,249.1453683972131) translate(30.611111111111114 43.49999999999999)"/><path d="M6614.5 335.7a2 2 0 0 1 2-2h96a2 2 0 0 1 2 2v236.04a2 2 0 0 1-2 2h-96a2 2 0 0 1-2-2zM6614.5 124.82a2 2 0 0 1 2-2h96a2 2 0 0 1 2 2v117.33a2 2 0 0 1-2 2h-96a2 2 0 0 1-2-2z" stroke="#333" stroke-width="3" fill="#fff"/><path d="M6541 573.74h35.5a.2.2 0 0 0 .2-.18.2.2 0 0 1 .2-.2h18" stroke="#333" stroke-width="2" fill="none"/><path d="M6541.03 574.72H6540v-1.95h1.03z" stroke="#333" stroke-width=".05" fill="#333"/><path d="M6610.16 573.37L6595.9 578v-9.27z" stroke="#333" stroke-width="2" fill="#333"/><path d="M6480 20h180v37.67h-180z" stroke="#000" stroke-width="2" fill="#fff"/><use xlink:href="#f" transform="matrix(1,0,0,1,6492,32) translate(49.40802469135802 16.177777777777777)"/><path d="M6570 59.67v275.35h24.57" stroke="#282c33" stroke-width="2" fill="none"/><path d="M6570.98 59.7h-1.95v-1.03h1.95z" stroke="#282c33" stroke-width=".05" fill="#282c33"/><path d="M6609.83 335.02l-14.26 4.63v-9.27z" stroke="#282c33" stroke-width="2" fill="#282c33"/><use xlink:href="#h" transform="matrix(1,0,0,1,6578,93.39675484492611) translate(0 16.177777777777777)"/><path d="M6559.43 107.07L6578 88.5M6559.45 107.06l-.73.72M6578 88.5l.72-.72" stroke="#282c33" stroke-width="2" fill="none"/><path d="M6460 548.3a2 2 0 0 1 2-2h76a2 2 0 0 1 2 2v50.9a2 2 0 0 1-2 2h-76a2 2 0 0 1-2-2z" stroke="#000" stroke-opacity="0" stroke-width="3" fill="#fff" fill-opacity="0"/><use xlink:href="#c" transform="matrix(1,0,0,1,6465,551.3021827054874) translate(26.790123456790127 26.21527777777778)"/><defs><path fill="#333" d="M30-248c118-7 216 8 213 122C240-48 200 0 122 0H30v-248zM63-27c89 8 146-16 146-99s-60-101-146-95v194" id="i"/><path fill="#333" d="M212-179c-10-28-35-45-73-45-59 0-87 40-87 99 0 60 29 101 89 101 43 0 62-24 78-52l27 14C228-24 195 4 139 4 59 4 22-46 18-125c-6-104 99-153 187-111 19 9 31 26 39 46" id="j"/><g id="a"><use transform="matrix(0.05555555555555554,0,0,0.05555555555555554,0,0)" xlink:href="#i"/><use transform="matrix(0.05555555555555554,0,0,0.05555555555555554,14.388888888888884,0)" xlink:href="#j"/></g><path fill="#333" d="M190 0L58-211 59 0H30v-248h39L202-35l-2-213h31V0h-41" id="k"/><path fill="#333" d="M30 0v-248h33v221h125V0H30" id="l"/><g id="b"><use transform="matrix(0.055555555555555546,0,0,0.055555555555555546,0,0)" xlink:href="#k"/><use transform="matrix(0.055555555555555546,0,0,0.055555555555555546,14.388888888888886,0)" xlink:href="#l"/></g><path fill="#333" d="M85-194c31 0 48 13 60 33l-1-100h32l1 261h-30c-2-10 0-23-3-31C134-8 116 4 85 4 32 4 16-35 15-94c0-66 23-100 70-100zm9 24c-40 0-46 34-46 75 0 40 6 74 45 74 42 0 51-32 51-76 0-42-9-74-50-73" id="m"/><path fill="#333" d="M59-47c-2 24 18 29 38 22v24C64 9 27 4 27-40v-127H5v-23h24l9-43h21v43h35v23H59v120" id="n"/><path fill="#333" d="M115-194c55 1 70 41 70 98S169 2 115 4C84 4 66-9 55-30l1 105H24l-1-265h31l2 30c10-21 28-34 59-34zm-8 174c40 0 45-34 45-75s-6-73-45-74c-42 0-51 32-51 76 0 43 10 73 51 73" id="o"/><g id="c"><use transform="matrix(0.06172839506172839,0,0,0.06172839506172839,0,0)" xlink:href="#m"/><use transform="matrix(0.06172839506172839,0,0,0.06172839506172839,12.345679012345679,0)" xlink:href="#m"/><use transform="matrix(0.06172839506172839,0,0,0.06172839506172839,24.691358024691358,0)" xlink:href="#n"/><use transform="matrix(0.06172839506172839,0,0,0.06172839506172839,30.864197530864196,0)" xlink:href="#o"/></g><path fill="#282c33" d="M30-248c118-7 216 8 213 122C240-48 200 0 122 0H30v-248zM63-27c89 8 146-16 146-99s-60-101-146-95v194" id="p"/><path fill="#282c33" d="M33 0v-248h34V0H33" id="q"/><path fill="#282c33" d="M26 75v-336h71v23H56V52h41v23H26" id="r"/><path fill="#282c33" d="M101-251c82-7 93 87 43 132L82-64C71-53 59-42 53-27h129V0H18c2-99 128-94 128-182 0-28-16-43-45-43s-46 15-49 41l-32-3c6-41 34-60 81-64" id="s"/><path fill="#282c33" d="M3 75V52h41v-290H3v-23h71V75H3" id="t"/><g id="d"><use transform="matrix(0.056172839506172835,0,0,0.056172839506172835,0,0)" xlink:href="#p"/><use transform="matrix(0.056172839506172835,0,0,0.056172839506172835,14.548765432098763,0)" xlink:href="#p"/><use transform="matrix(0.056172839506172835,0,0,0.056172839506172835,29.097530864197527,0)" xlink:href="#q"/><use transform="matrix(0.056172839506172835,0,0,0.056172839506172835,34.71481481481481,0)" xlink:href="#r"/><use transform="matrix(0.056172839506172835,0,0,0.056172839506172835,40.33209876543209,0)" xlink:href="#s"/><use transform="matrix(0.056172839506172835,0,0,0.056172839506172835,51.56666666666666,0)" xlink:href="#t"/></g><path fill="#282c33" d="M27 0v-27h64v-190l-56 39v-29l58-41h29v221h61V0H27" id="u"/><g id="e"><use transform="matrix(0.056172839506172835,0,0,0.056172839506172835,0,0)" xlink:href="#p"/><use transform="matrix(0.056172839506172835,0,0,0.056172839506172835,14.548765432098763,0)" xlink:href="#p"/><use transform="matrix(0.056172839506172835,0,0,0.056172839506172835,29.097530864197527,0)" xlink:href="#q"/><use transform="matrix(0.056172839506172835,0,0,0.056172839506172835,34.71481481481481,0)" xlink:href="#r"/><use transform="matrix(0.056172839506172835,0,0,0.056172839506172835,40.33209876543209,0)" xlink:href="#u"/><use transform="matrix(0.056172839506172835,0,0,0.056172839506172835,51.56666666666666,0)" xlink:href="#t"/></g><path fill="#282c33" d="M101-251c68 0 85 55 85 127S166 4 100 4C33 4 14-52 14-124c0-73 17-127 87-127zm-1 229c47 0 54-49 54-102s-4-102-53-102c-51 0-55 48-55 102 0 53 5 102 54 102" id="v"/><g id="f"><use transform="matrix(0.056172839506172835,0,0,0.056172839506172835,0,0)" xlink:href="#p"/><use transform="matrix(0.056172839506172835,0,0,0.056172839506172835,14.548765432098763,0)" xlink:href="#p"/><use transform="matrix(0.056172839506172835,0,0,0.056172839506172835,29.097530864197527,0)" xlink:href="#q"/><use transform="matrix(0.056172839506172835,0,0,0.056172839506172835,34.71481481481481,0)" xlink:href="#r"/><use transform="matrix(0.056172839506172835,0,0,0.056172839506172835,40.33209876543209,0)" xlink:href="#v"/><use transform="matrix(0.056172839506172835,0,0,0.056172839506172835,51.56666666666666,0)" xlink:href="#t"/></g><path fill="#282c33" d="M99-251c64 0 84 50 84 122C183-37 130 33 47-8c-14-7-20-23-25-40l30-5c6 39 69 39 84 7 9-19 16-44 16-74-10 22-31 35-62 35-49 0-73-33-73-83 0-54 28-83 82-83zm-1 141c31-1 51-18 51-49 0-36-14-67-51-67-34 0-49 23-49 58 0 34 15 58 49 58" id="w"/><path fill="#282c33" d="M16-82v-28h88v28H16" id="x"/><path fill="#282c33" d="M115-194c53 0 69 39 70 98 0 66-23 100-70 100C84 3 66-7 56-30L54 0H23l1-261h32v101c10-23 28-34 59-34zm-8 174c40 0 45-34 45-75 0-40-5-75-45-74-42 0-51 32-51 76 0 43 10 73 51 73" id="y"/><path fill="#282c33" d="M24-231v-30h32v30H24zM24 0v-190h32V0H24" id="z"/><path fill="#282c33" d="M59-47c-2 24 18 29 38 22v24C64 9 27 4 27-40v-127H5v-23h24l9-43h21v43h35v23H59v120" id="A"/><g id="g"><use transform="matrix(0.056172839506172835,0,0,0.056172839506172835,0,0)" xlink:href="#w"/><use transform="matrix(0.056172839506172835,0,0,0.056172839506172835,11.234567901234566,0)" xlink:href="#x"/><use transform="matrix(0.056172839506172835,0,0,0.056172839506172835,17.919135802469135,0)" xlink:href="#y"/><use transform="matrix(0.056172839506172835,0,0,0.056172839506172835,29.1537037037037,0)" xlink:href="#z"/><use transform="matrix(0.056172839506172835,0,0,0.056172839506172835,33.59135802469135,0)" xlink:href="#A"/></g><path fill="#282c33" d="M110-160c48 1 74 30 74 79 0 53-28 85-80 85-65 0-83-55-86-122-5-90 50-162 133-122 14 7 22 21 27 39l-31 6c-5-40-67-38-82-6-9 19-15 44-15 74 11-20 30-34 60-33zm-7 138c34 0 49-23 49-58s-16-56-50-56c-29 0-50 16-49 49 1 36 15 65 50 65" id="B"/><g id="h"><use transform="matrix(0.056172839506172835,0,0,0.056172839506172835,0,0)" xlink:href="#B"/><use transform="matrix(0.056172839506172835,0,0,0.056172839506172835,11.234567901234566,0)" xlink:href="#x"/><use transform="matrix(0.056172839506172835,0,0,0.056172839506172835,17.919135802469135,0)" xlink:href="#y"/><use transform="matrix(0.056172839506172835,0,0,0.056172839506172835,29.1537037037037,0)" xlink:href="#z"/><use transform="matrix(0.056172839506172835,0,0,0.056172839506172835,33.59135802469135,0)" xlink:href="#A"/></g></defs></g></svg>
