<svg xmlns="http://www.w3.org/2000/svg" xmlns:xlink="http://www.w3.org/1999/xlink" xmlns:lucid="lucid" width="1517" height="582.19"><g transform="translate(-5201.749975000004 -679)" lucid:page-tab-id="uAxj0TO~3.Aj"><path d="M5697.25 906.15a2 2 0 0 1 2-2h96a2 2 0 0 1 2 2v85.54a2 2 0 0 1-2 2h-96a2 2 0 0 1-2-2z" stroke="#333" stroke-width="3" fill="#fff"/><use xlink:href="#a" transform="matrix(1,0,0,1,5702.250024999995,909.149212257167) translate(30.611111111111114 43.49999999999999)"/><path d="M5697.25 995.7a2 2 0 0 1 2-2h96a2 2 0 0 1 2 2v236.04a2 2 0 0 1-2 2h-96a2 2 0 0 1-2-2zM5697.25 784.83a2 2 0 0 1 2-2h96a2 2 0 0 1 2 2v117.32a2 2 0 0 1-2 2h-96a2 2 0 0 1-2-2zM5501.25 784.83a2 2 0 0 1 2-2h76a2 2 0 0 1 2 2v446.9a2 2 0 0 1-2 2h-76a2 2 0 0 1-2-2z" stroke="#333" stroke-width="3" fill="#fff"/><path d="M5501.25 975.77a2 2 0 0 1 2-2h76a2 2 0 0 1 2 2v42.5a2 2 0 0 1-2 2h-76a2 2 0 0 1-2-2z" stroke="#333" stroke-width="3" fill="#fff"/><use xlink:href="#b" transform="matrix(1,0,0,1,5513.250024999995,985.7657188327362) translate(15.250000000000004 17.4375)"/><path d="M5583.75 997.02h27a2 2 0 0 1 2 2v232.35a2 2 0 0 0 2 2h62.9" stroke="#333" stroke-width="2" fill="none"/><path d="M5583.78 998h-1.03v-1.96h1.03z" stroke="#333" stroke-width=".05" fill="#333"/><path d="M5692.9 1233.37l-14.25 4.64v-9.27z" stroke="#333" stroke-width="2" fill="#333"/><path d="M5202.75 1207.12a2 2 0 0 1 2-2h76a2 2 0 0 1 2 2V1258a2 2 0 0 1-2 2h-76a2 2 0 0 1-2-2z" stroke="#000" stroke-opacity="0" stroke-width="3" fill="#fff" fill-opacity="0"/><use xlink:href="#c" transform="matrix(1,0,0,1,5207.749975000004,1210.1194610825341) translate(26.790123456790127 26.21527777777778)"/><path d="M5326.75 784.83a2 2 0 0 1 2-2h76a2 2 0 0 1 2 2v446.9a2 2 0 0 1-2 2h-76a2 2 0 0 1-2-2z" stroke="#333" stroke-width="3" fill="#fff"/><path d="M5326.75 1078.7a2 2 0 0 1 2-2h76a2 2 0 0 1 2 2v39.3a2 2 0 0 1-2 2h-76a2 2 0 0 1-2-2z" stroke="#333" stroke-width="3" fill="#fff"/><use xlink:href="#b" transform="matrix(1,0,0,1,5338.749975000004,1088.690005383383) translate(15.250000000000004 15.999999999999998)"/><path d="M5409.25 1098.35h43.06a2 2 0 0 1 2 2v131.4a2 2 0 0 0 2 2h25.58" stroke="#5e5e5e" stroke-width="2" fill="none"/><path d="M5409.28 1099.32h-1.03v-1.95h1.03z" stroke="#5e5e5e" stroke-width=".05" fill="#5e5e5e"/><path d="M5497.14 1233.75l-14.26 4.63v-9.27z" stroke="#5e5e5e" stroke-width="2" fill="#5e5e5e"/><path d="M5283.75 1232.56H5304a.04.04 0 0 0 .04-.04.04.04 0 0 1 .05-.05h2.73" stroke="#5e5e5e" stroke-width="2" fill="none"/><path d="M5283.78 1233.54h-1.03v-1.95h1.03z" stroke="#5e5e5e" stroke-width=".05" fill="#5e5e5e"/><path d="M5322.1 1232.47l-14.27 4.64v-9.26z" stroke="#5e5e5e" stroke-width="2" fill="#5e5e5e"/><path d="M5202.75 680h180v37.67h-180z" stroke="#000" stroke-width="2" fill="#fff"/><use xlink:href="#d" transform="matrix(1,0,0,1,5214.749975000004,692.0038438599539) translate(49.40802469135802 16.177777777777777)"/><path d="M5382.75 680h180v37.67h-180z" stroke="#000" stroke-width="2" fill="#fff"/><use xlink:href="#e" transform="matrix(1,0,0,1,5394.749975000004,692.0038438599539) translate(49.40802469135802 16.177777777777777)"/><path d="M5562.75 680h180v37.67h-180z" stroke="#000" stroke-width="2" fill="#fff"/><use xlink:href="#f" transform="matrix(1,0,0,1,5574.749975000004,692.0038438599539) translate(49.40802469135802 16.177777777777777)"/><path d="M5245.27 719.67v391.25a2 2 0 0 0 2 2h59.48" stroke="#282c33" stroke-width="2" fill="none"/><path d="M5246.25 719.7h-1.95v-1.03h1.95z" stroke="#282c33" stroke-width=".05" fill="#282c33"/><path d="M5322 1112.92l-14.25 4.63v-9.27z" stroke="#282c33" stroke-width="2" fill="#282c33"/><use xlink:href="#g" transform="matrix(1,0,0,1,5253.273024941812,750.1987582626653) translate(0 16.177777777777777)"/><path d="M5448.63 719.67v300.23h33.02" stroke="#282c33" stroke-width="2" fill="none"/><path d="M5449.6 719.7h-1.94v-1.03h1.95z" stroke="#282c33" stroke-width=".05" fill="#282c33"/><path d="M5496.92 1019.9l-14.27 4.64v-9.27z" stroke="#282c33" stroke-width="2" fill="#282c33"/><use xlink:href="#h" transform="matrix(1,0,0,1,5456.631558287263,755.8816202899216) translate(0 16.177777777777777)"/><path d="M5652.75 719.67v275.35h24.57" stroke="#282c33" stroke-width="2" fill="none"/><path d="M5653.73 719.7h-1.95v-1.03h1.95z" stroke="#282c33" stroke-width=".05" fill="#282c33"/><path d="M5692.58 995.02l-14.26 4.63v-9.26z" stroke="#282c33" stroke-width="2" fill="#282c33"/><use xlink:href="#i" transform="matrix(1,0,0,1,5660.749975000004,753.4005987048799) translate(0 16.177777777777777)"/><path d="M5236.46 765.3l18.58-18.6M5236.48 765.28l-.73.72M5255.02 746.73l.73-.73M5439.46 766.2l18.58-18.58M5439.48 766.18l-.73.73M5458.02 747.63l.73-.72M5642.18 767.08l18.58-18.6M5642.2 767.06l-.73.72M5660.75 748.5l.72-.72" stroke="#282c33" stroke-width="2" fill="none"/><path d="M6257.25 906.14a2 2 0 0 1 2-2h96a2 2 0 0 1 2 2v85.55a2 2 0 0 1-2 2h-96a2 2 0 0 1-2-2z" stroke="#333" stroke-width="3" fill="#fff"/><use xlink:href="#a" transform="matrix(1,0,0,1,6262.250024999995,909.1453683972135) translate(30.611111111111114 43.49999999999999)"/><path d="M6257.25 995.7a2 2 0 0 1 2-2h96a2 2 0 0 1 2 2v236.04a2 2 0 0 1-2 2h-96a2 2 0 0 1-2-2zM6257.25 784.82a2 2 0 0 1 2-2h96a2 2 0 0 1 2 2v117.32a2 2 0 0 1-2 2h-96a2 2 0 0 1-2-2zM6061.25 784.82a2 2 0 0 1 2-2h76a2 2 0 0 1 2 2v446.92a2 2 0 0 1-2 2h-76a2 2 0 0 1-2-2z" stroke="#333" stroke-width="3" fill="#fff"/><path d="M6061.25 975.76a2 2 0 0 1 2-2h76a2 2 0 0 1 2 2v42.5a2 2 0 0 1-2 2h-76a2 2 0 0 1-2-2z" stroke="#333" stroke-width="3" fill="#fff"/><use xlink:href="#b" transform="matrix(1,0,0,1,6073.250024999995,985.7618749727824) translate(15.250000000000004 17.4375)"/><path d="M6143.75 997.02h27a2 2 0 0 1 2 2v232.35a2 2 0 0 0 2 2h62.9" stroke="#333" stroke-width="2" fill="none"/><path d="M6143.78 998h-1.03v-1.96h1.03z" stroke="#333" stroke-width=".05" fill="#333"/><path d="M6252.9 1233.37l-14.25 4.63v-9.27z" stroke="#333" stroke-width="2" fill="#333"/><path d="M6003.75 1233.74h38.13" stroke="#5e5e5e" stroke-width="2" fill="none"/><path d="M6003.78 1234.72h-1.03v-1.95h1.03z" stroke="#5e5e5e" stroke-width=".05" fill="#5e5e5e"/><path d="M6057.14 1233.74l-14.26 4.64v-9.27z" stroke="#5e5e5e" stroke-width="2" fill="#5e5e5e"/><path d="M5942.75 680h180v37.67h-180z" stroke="#000" stroke-width="2" fill="#fff"/><use xlink:href="#e" transform="matrix(1,0,0,1,5954.749975000004,692.0000000000002) translate(49.40802469135802 16.177777777777777)"/><path d="M6122.75 680h180v37.67h-180z" stroke="#000" stroke-width="2" fill="#fff"/><use xlink:href="#f" transform="matrix(1,0,0,1,6134.749975000004,692.0000000000002) translate(49.40802469135802 16.177777777777777)"/><path d="M6008.63 719.67v300.23h33.02" stroke="#282c33" stroke-width="2" fill="none"/><path d="M6009.6 719.7h-1.94v-1.03h1.95z" stroke="#282c33" stroke-width=".05" fill="#282c33"/><path d="M6056.92 1019.9l-14.27 4.64v-9.27z" stroke="#282c33" stroke-width="2" fill="#282c33"/><use xlink:href="#h" transform="matrix(1,0,0,1,6016.631558287263,755.8783843858328) translate(0 16.177777777777777)"/><path d="M6212.75 719.67v275.35h24.57" stroke="#282c33" stroke-width="2" fill="none"/><path d="M6213.73 719.7h-1.95v-1.03h1.95z" stroke="#282c33" stroke-width=".05" fill="#282c33"/><path d="M6252.58 995.02l-14.26 4.63v-9.27z" stroke="#282c33" stroke-width="2" fill="#282c33"/><use xlink:href="#i" transform="matrix(1,0,0,1,6220.749975000004,753.3967548449262) translate(0 16.177777777777777)"/><path d="M5999.46 766.2l18.58-18.6M5999.48 766.18l-.73.73M6018.02 747.63l.73-.73M6202.18 767.07l18.58-18.58M6202.2 767.05l-.73.73M6220.75 748.5l.72-.72" stroke="#282c33" stroke-width="2" fill="none"/><path d="M5922.75 1208.3a2 2 0 0 1 2-2h76a2 2 0 0 1 2 2v50.9a2 2 0 0 1-2 2h-76a2 2 0 0 1-2-2z" stroke="#000" stroke-opacity="0" stroke-width="3" fill="#fff" fill-opacity="0"/><use xlink:href="#c" transform="matrix(1,0,0,1,5927.749975000004,1211.3021827054874) translate(26.790123456790127 26.21527777777778)"/><path d="M6617.25 906.14a2 2 0 0 1 2-2h96a2 2 0 0 1 2 2v85.55a2 2 0 0 1-2 2h-96a2 2 0 0 1-2-2z" stroke="#333" stroke-width="3" fill="#fff"/><use xlink:href="#a" transform="matrix(1,0,0,1,6622.250024999995,909.1453683972132) translate(30.611111111111114 43.49999999999999)"/><path d="M6617.25 995.7a2 2 0 0 1 2-2h96a2 2 0 0 1 2 2v236.04a2 2 0 0 1-2 2h-96a2 2 0 0 1-2-2zM6617.25 784.82a2 2 0 0 1 2-2h96a2 2 0 0 1 2 2v117.32a2 2 0 0 1-2 2h-96a2 2 0 0 1-2-2z" stroke="#333" stroke-width="3" fill="#fff"/><path d="M6543.75 1233.74h35.5a.2.2 0 0 0 .2-.18.2.2 0 0 1 .2-.2h18" stroke="#333" stroke-width="2" fill="none"/><path d="M6543.78 1234.72h-1.03v-1.95h1.03z" stroke="#333" stroke-width=".05" fill="#333"/><path d="M6612.9 1233.37l-14.25 4.63v-9.27z" stroke="#333" stroke-width="2" fill="#333"/><path d="M6482.75 680h180v37.67h-180z" stroke="#000" stroke-width="2" fill="#fff"/><use xlink:href="#f" transform="matrix(1,0,0,1,6494.749975000004,692) translate(49.40802469135802 16.177777777777777)"/><path d="M6572.75 719.67v275.35h24.57" stroke="#282c33" stroke-width="2" fill="none"/><path d="M6573.73 719.7h-1.95v-1.03h1.95z" stroke="#282c33" stroke-width=".05" fill="#282c33"/><path d="M6612.58 995.02l-14.26 4.63v-9.27z" stroke="#282c33" stroke-width="2" fill="#282c33"/><use xlink:href="#i" transform="matrix(1,0,0,1,6580.749975000004,753.396754844926) translate(0 16.177777777777777)"/><path d="M6562.18 767.07l18.58-18.58M6562.2 767.05l-.73.73M6580.75 748.5l.72-.72" stroke="#282c33" stroke-width="2" fill="none"/><path d="M6462.75 1208.3a2 2 0 0 1 2-2h76a2 2 0 0 1 2 2v50.9a2 2 0 0 1-2 2h-76a2 2 0 0 1-2-2z" stroke="#000" stroke-opacity="0" stroke-width="3" fill="#fff" fill-opacity="0"/><use xlink:href="#c" transform="matrix(1,0,0,1,6467.749975000004,1211.3021827054874) translate(26.790123456790127 26.21527777777778)"/><defs><path fill="#333" d="M30-248c118-7 216 8 213 122C240-48 200 0 122 0H30v-248zM63-27c89 8 146-16 146-99s-60-101-146-95v194" id="j"/><path fill="#333" d="M212-179c-10-28-35-45-73-45-59 0-87 40-87 99 0 60 29 101 89 101 43 0 62-24 78-52l27 14C228-24 195 4 139 4 59 4 22-46 18-125c-6-104 99-153 187-111 19 9 31 26 39 46" id="k"/><g id="a"><use transform="matrix(0.05555555555555554,0,0,0.05555555555555554,0,0)" xlink:href="#j"/><use transform="matrix(0.05555555555555554,0,0,0.05555555555555554,14.388888888888884,0)" xlink:href="#k"/></g><path fill="#333" d="M190 0L58-211 59 0H30v-248h39L202-35l-2-213h31V0h-41" id="l"/><path fill="#333" d="M30 0v-248h33v221h125V0H30" id="m"/><g id="b"><use transform="matrix(0.055555555555555546,0,0,0.055555555555555546,0,0)" xlink:href="#l"/><use transform="matrix(0.055555555555555546,0,0,0.055555555555555546,14.388888888888886,0)" xlink:href="#m"/></g><path fill="#333" d="M85-194c31 0 48 13 60 33l-1-100h32l1 261h-30c-2-10 0-23-3-31C134-8 116 4 85 4 32 4 16-35 15-94c0-66 23-100 70-100zm9 24c-40 0-46 34-46 75 0 40 6 74 45 74 42 0 51-32 51-76 0-42-9-74-50-73" id="n"/><path fill="#333" d="M59-47c-2 24 18 29 38 22v24C64 9 27 4 27-40v-127H5v-23h24l9-43h21v43h35v23H59v120" id="o"/><path fill="#333" d="M115-194c55 1 70 41 70 98S169 2 115 4C84 4 66-9 55-30l1 105H24l-1-265h31l2 30c10-21 28-34 59-34zm-8 174c40 0 45-34 45-75s-6-73-45-74c-42 0-51 32-51 76 0 43 10 73 51 73" id="p"/><g id="c"><use transform="matrix(0.06172839506172839,0,0,0.06172839506172839,0,0)" xlink:href="#n"/><use transform="matrix(0.06172839506172839,0,0,0.06172839506172839,12.345679012345679,0)" xlink:href="#n"/><use transform="matrix(0.06172839506172839,0,0,0.06172839506172839,24.691358024691358,0)" xlink:href="#o"/><use transform="matrix(0.06172839506172839,0,0,0.06172839506172839,30.864197530864196,0)" xlink:href="#p"/></g><path fill="#282c33" d="M30-248c118-7 216 8 213 122C240-48 200 0 122 0H30v-248zM63-27c89 8 146-16 146-99s-60-101-146-95v194" id="q"/><path fill="#282c33" d="M33 0v-248h34V0H33" id="r"/><path fill="#282c33" d="M26 75v-336h71v23H56V52h41v23H26" id="s"/><path fill="#282c33" d="M101-251c82-7 93 87 43 132L82-64C71-53 59-42 53-27h129V0H18c2-99 128-94 128-182 0-28-16-43-45-43s-46 15-49 41l-32-3c6-41 34-60 81-64" id="t"/><path fill="#282c33" d="M3 75V52h41v-290H3v-23h71V75H3" id="u"/><g id="d"><use transform="matrix(0.056172839506172835,0,0,0.056172839506172835,0,0)" xlink:href="#q"/><use transform="matrix(0.056172839506172835,0,0,0.056172839506172835,14.548765432098763,0)" xlink:href="#q"/><use transform="matrix(0.056172839506172835,0,0,0.056172839506172835,29.097530864197527,0)" xlink:href="#r"/><use transform="matrix(0.056172839506172835,0,0,0.056172839506172835,34.71481481481481,0)" xlink:href="#s"/><use transform="matrix(0.056172839506172835,0,0,0.056172839506172835,40.33209876543209,0)" xlink:href="#t"/><use transform="matrix(0.056172839506172835,0,0,0.056172839506172835,51.56666666666666,0)" xlink:href="#u"/></g><path fill="#282c33" d="M27 0v-27h64v-190l-56 39v-29l58-41h29v221h61V0H27" id="v"/><g id="e"><use transform="matrix(0.056172839506172835,0,0,0.056172839506172835,0,0)" xlink:href="#q"/><use transform="matrix(0.056172839506172835,0,0,0.056172839506172835,14.548765432098763,0)" xlink:href="#q"/><use transform="matrix(0.056172839506172835,0,0,0.056172839506172835,29.097530864197527,0)" xlink:href="#r"/><use transform="matrix(0.056172839506172835,0,0,0.056172839506172835,34.71481481481481,0)" xlink:href="#s"/><use transform="matrix(0.056172839506172835,0,0,0.056172839506172835,40.33209876543209,0)" xlink:href="#v"/><use transform="matrix(0.056172839506172835,0,0,0.056172839506172835,51.56666666666666,0)" xlink:href="#u"/></g><path fill="#282c33" d="M101-251c68 0 85 55 85 127S166 4 100 4C33 4 14-52 14-124c0-73 17-127 87-127zm-1 229c47 0 54-49 54-102s-4-102-53-102c-51 0-55 48-55 102 0 53 5 102 54 102" id="w"/><g id="f"><use transform="matrix(0.056172839506172835,0,0,0.056172839506172835,0,0)" xlink:href="#q"/><use transform="matrix(0.056172839506172835,0,0,0.056172839506172835,14.548765432098763,0)" xlink:href="#q"/><use transform="matrix(0.056172839506172835,0,0,0.056172839506172835,29.097530864197527,0)" xlink:href="#r"/><use transform="matrix(0.056172839506172835,0,0,0.056172839506172835,34.71481481481481,0)" xlink:href="#s"/><use transform="matrix(0.056172839506172835,0,0,0.056172839506172835,40.33209876543209,0)" xlink:href="#w"/><use transform="matrix(0.056172839506172835,0,0,0.056172839506172835,51.56666666666666,0)" xlink:href="#u"/></g><path fill="#282c33" d="M134-131c28 9 52 24 51 62-1 50-34 73-85 73S17-19 16-69c0-36 21-54 49-61-75-25-45-126 34-121 46 3 78 18 79 63 0 33-17 51-44 57zm-34-11c31 1 46-15 46-44 0-28-17-43-47-42-29 0-46 13-45 42 1 28 16 44 46 44zm1 122c35 0 51-18 51-52 0-30-18-46-53-46-33 0-51 17-51 47 0 34 19 51 53 51" id="x"/><path fill="#282c33" d="M16-82v-28h88v28H16" id="y"/><path fill="#282c33" d="M115-194c53 0 69 39 70 98 0 66-23 100-70 100C84 3 66-7 56-30L54 0H23l1-261h32v101c10-23 28-34 59-34zm-8 174c40 0 45-34 45-75 0-40-5-75-45-74-42 0-51 32-51 76 0 43 10 73 51 73" id="z"/><path fill="#282c33" d="M24-231v-30h32v30H24zM24 0v-190h32V0H24" id="A"/><path fill="#282c33" d="M59-47c-2 24 18 29 38 22v24C64 9 27 4 27-40v-127H5v-23h24l9-43h21v43h35v23H59v120" id="B"/><g id="g"><use transform="matrix(0.056172839506172835,0,0,0.056172839506172835,0,0)" xlink:href="#x"/><use transform="matrix(0.056172839506172835,0,0,0.056172839506172835,11.234567901234566,0)" xlink:href="#y"/><use transform="matrix(0.056172839506172835,0,0,0.056172839506172835,17.919135802469135,0)" xlink:href="#z"/><use transform="matrix(0.056172839506172835,0,0,0.056172839506172835,29.1537037037037,0)" xlink:href="#A"/><use transform="matrix(0.056172839506172835,0,0,0.056172839506172835,33.59135802469135,0)" xlink:href="#B"/></g><path fill="#282c33" d="M99-251c64 0 84 50 84 122C183-37 130 33 47-8c-14-7-20-23-25-40l30-5c6 39 69 39 84 7 9-19 16-44 16-74-10 22-31 35-62 35-49 0-73-33-73-83 0-54 28-83 82-83zm-1 141c31-1 51-18 51-49 0-36-14-67-51-67-34 0-49 23-49 58 0 34 15 58 49 58" id="C"/><g id="h"><use transform="matrix(0.056172839506172835,0,0,0.056172839506172835,0,0)" xlink:href="#C"/><use transform="matrix(0.056172839506172835,0,0,0.056172839506172835,11.234567901234566,0)" xlink:href="#y"/><use transform="matrix(0.056172839506172835,0,0,0.056172839506172835,17.919135802469135,0)" xlink:href="#z"/><use transform="matrix(0.056172839506172835,0,0,0.056172839506172835,29.1537037037037,0)" xlink:href="#A"/><use transform="matrix(0.056172839506172835,0,0,0.056172839506172835,33.59135802469135,0)" xlink:href="#B"/></g><path fill="#282c33" d="M64 0c3-98 48-159 88-221H18v-27h164v26C143-157 98-101 97 0H64" id="D"/><g id="i"><use transform="matrix(0.056172839506172835,0,0,0.056172839506172835,0,0)" xlink:href="#D"/><use transform="matrix(0.056172839506172835,0,0,0.056172839506172835,11.234567901234566,0)" xlink:href="#y"/><use transform="matrix(0.056172839506172835,0,0,0.056172839506172835,17.919135802469135,0)" xlink:href="#z"/><use transform="matrix(0.056172839506172835,0,0,0.056172839506172835,29.1537037037037,0)" xlink:href="#A"/><use transform="matrix(0.056172839506172835,0,0,0.056172839506172835,33.59135802469135,0)" xlink:href="#B"/></g></defs></g></svg>
