<svg xmlns="http://www.w3.org/2000/svg" xmlns:xlink="http://www.w3.org/1999/xlink" xmlns:lucid="lucid" width="537" height="519.2"><g transform="translate(-2579 -705.6)" lucid:page-tab-id="uAxj0TO~3.Aj"><path d="M3070 937.53c16.57 0 30 13.44 30 30v140c0 16.57-13.43 30-30 30h-460c-16.57 0-30-13.43-30-30v-140c0-16.56 13.43-30 30-30z" stroke="#000" stroke-width="2" fill-opacity="0"/><path d="M2623.67 997.53h197.55v80h-197.55z" stroke="#000" stroke-width="2" fill="#fff"/><use xlink:href="#a" transform="matrix(1,0,0,1,2635.666481274139,1009.5333333333579) translate(35.34660493827161 21.455555555555552)"/><use xlink:href="#b" transform="matrix(1,0,0,1,2635.666481274139,1009.5333333333579) translate(110.03672839506173 21.455555555555552)"/><use xlink:href="#c" transform="matrix(1,0,0,1,2635.666481274139,1009.5333333333579) translate(0.401851851851859 48.388888888888886)"/><use xlink:href="#d" transform="matrix(1,0,0,1,2635.666481274139,1009.5333333333579) translate(144.98148148148147 48.388888888888886)"/><path d="M2652.44 1172.87h140v50.93h-140z" stroke="#000" stroke-width="2" fill="#fff"/><use xlink:href="#a" transform="matrix(1,0,0,1,2664.4443208494263,1184.8666666666722) translate(6.346604938271611 19.643055555555552)"/><use xlink:href="#e" transform="matrix(1,0,0,1,2664.4443208494263,1184.8666666666722) translate(81.03672839506173 19.643055555555552)"/><path d="M2770 940h140v44.47h-140z" stroke="#000" stroke-opacity="0" stroke-width="2" fill="#fff" fill-opacity="0"/><use xlink:href="#f" transform="matrix(1,0,0,1,2775,945) translate(18.80339506172841 23.698611111111106)"/><path d="M2876.57 706.6h160v131.73h-160z" stroke="#000" stroke-width="2" fill="#fff"/><use xlink:href="#g" transform="matrix(1,0,0,1,2888.5701719072586,718.6) translate(35.01913580246915 58.45555555555555)"/><use xlink:href="#h" transform="matrix(1,0,0,1,2888.5701719072586,718.6) translate(74.85802469135803 58.45555555555555)"/><use xlink:href="#i" transform="matrix(1,0,0,1,2888.5701719072586,718.6) translate(88.51172839506172 58.45555555555555)"/><path d="M2642.44 706.6h160v131.73h-160z" stroke="#000" stroke-width="2" fill="#fff"/><use xlink:href="#g" transform="matrix(1,0,0,1,2654.4443208494263,718.6) translate(35.01913580246915 58.45555555555555)"/><use xlink:href="#h" transform="matrix(1,0,0,1,2654.4443208494263,718.6) translate(74.85802469135803 58.45555555555555)"/><use xlink:href="#j" transform="matrix(1,0,0,1,2654.4443208494263,718.6) translate(88.51172839506172 58.45555555555555)"/><path d="M2722.44 995.53v-137.7" stroke="#282c33" stroke-width="2" fill="none"/><path d="M2723.42 996.53h-1.95v-1.02h1.95z" stroke="#282c33" stroke-width=".05" fill="#282c33"/><path d="M2722.44 842.57l4.64 14.26h-9.27z" stroke="#282c33" stroke-width="2" fill="#282c33"/><path d="M2958.77 995.53l-1.45-137.7" stroke="#282c33" stroke-width="2" fill="none"/><path d="M2959.75 996.53h-1.95v-1l1.94-.03z" stroke="#282c33" stroke-width=".05" fill="#282c33"/><path d="M2957.16 842.57l4.8 14.22-9.28.08z" stroke="#282c33" stroke-width="2" fill="#282c33"/><path d="M2860 997.53h197.56v80H2860z" stroke="#000" stroke-width="2" fill="#fff"/><use xlink:href="#a" transform="matrix(1,0,0,1,2872,1009.533333333358) translate(35.34660493827161 21.455555555555552)"/><use xlink:href="#k" transform="matrix(1,0,0,1,2872,1009.533333333358) translate(110.03672839506173 21.455555555555552)"/><use xlink:href="#c" transform="matrix(1,0,0,1,2872,1009.533333333358) translate(0.401851851851859 48.388888888888886)"/><use xlink:href="#d" transform="matrix(1,0,0,1,2872,1009.533333333358) translate(144.98148148148147 48.388888888888886)"/><path d="M2722.44 1170.87v-73.83" stroke="#282c33" stroke-width="2" fill="none"/><path d="M2723.42 1171.87h-1.95v-1.03h1.95z" stroke="#282c33" stroke-width=".05" fill="#282c33"/><path d="M2722.44 1081.77l4.64 14.27h-9.27z" stroke="#282c33" stroke-width="2" fill="#282c33"/><path d="M2888.78 1172.87h140v50.93h-140z" stroke="#000" stroke-width="2" fill="#fff"/><g><use xlink:href="#a" transform="matrix(1,0,0,1,2900.777839575287,1184.8666666666722) translate(6.346604938271611 19.643055555555552)"/><use xlink:href="#l" transform="matrix(1,0,0,1,2900.777839575287,1184.8666666666722) translate(81.03672839506173 19.643055555555552)"/></g><path d="M2958.78 1170.87v-73.83" stroke="#282c33" stroke-width="2" fill="none"/><path d="M2959.75 1171.87h-1.95v-1.03h1.95z" stroke="#282c33" stroke-width=".05" fill="#282c33"/><path d="M2958.78 1081.77l4.63 14.27h-9.26z" stroke="#282c33" stroke-width="2" fill="#282c33"/><defs><path fill="#282c33" d="M30-248c118-7 216 8 213 122C240-48 200 0 122 0H30v-248zM63-27c89 8 146-16 146-99s-60-101-146-95v194" id="m"/><path fill="#282c33" d="M100-194c63 0 86 42 84 106H49c0 40 14 67 53 68 26 1 43-12 49-29l28 8c-11 28-37 45-77 45C44 4 14-33 15-96c1-61 26-98 85-98zm52 81c6-60-76-77-97-28-3 7-6 17-6 28h103" id="n"/><path fill="#282c33" d="M108 0H70L1-190h34L89-25l56-165h34" id="o"/><path fill="#282c33" d="M24-231v-30h32v30H24zM24 0v-190h32V0H24" id="p"/><path fill="#282c33" d="M96-169c-40 0-48 33-48 73s9 75 48 75c24 0 41-14 43-38l32 2c-6 37-31 61-74 61-59 0-76-41-82-99-10-93 101-131 147-64 4 7 5 14 7 22l-32 3c-4-21-16-35-41-35" id="q"/><g id="a"><use transform="matrix(0.06234567901234567,0,0,0.06234567901234567,0,0)" xlink:href="#m"/><use transform="matrix(0.06234567901234567,0,0,0.06234567901234567,16.147530864197527,0)" xlink:href="#n"/><use transform="matrix(0.06234567901234567,0,0,0.06234567901234567,28.61666666666666,0)" xlink:href="#o"/><use transform="matrix(0.06234567901234567,0,0,0.06234567901234567,39.83888888888888,0)" xlink:href="#p"/><use transform="matrix(0.06234567901234567,0,0,0.06234567901234567,44.76419753086419,0)" xlink:href="#q"/><use transform="matrix(0.06234567901234567,0,0,0.06234567901234567,55.98641975308641,0)" xlink:href="#n"/></g><path fill="#282c33" d="M27 0v-27h64v-190l-56 39v-29l58-41h29v221h61V0H27" id="r"/><g id="b"><use transform="matrix(0.06234567901234567,0,0,0.06234567901234567,0,0)" xlink:href="#m"/><use transform="matrix(0.06234567901234567,0,0,0.06234567901234567,16.147530864197527,0)" xlink:href="#r"/></g><path fill="#282c33" d="M185-189c-5-48-123-54-124 2 14 75 158 14 163 119 3 78-121 87-175 55-17-10-28-26-33-46l33-7c5 56 141 63 141-1 0-78-155-14-162-118-5-82 145-84 179-34 5 7 8 16 11 25" id="s"/><path fill="#282c33" d="M100-194c62-1 85 37 85 99 1 63-27 99-86 99S16-35 15-95c0-66 28-99 85-99zM99-20c44 1 53-31 53-75 0-43-8-75-51-75s-53 32-53 75 10 74 51 75" id="t"/><path fill="#282c33" d="M117-194c89-4 53 116 60 194h-32v-121c0-31-8-49-39-48C34-167 62-67 57 0H25l-1-190h30c1 10-1 24 2 32 11-22 29-35 61-36" id="u"/><path fill="#282c33" d="M85-194c31 0 48 13 60 33l-1-100h32l1 261h-30c-2-10 0-23-3-31C134-8 116 4 85 4 32 4 16-35 15-94c0-66 23-100 70-100zm9 24c-40 0-46 34-46 75 0 40 6 74 45 74 42 0 51-32 51-76 0-42-9-74-50-73" id="v"/><path fill="#282c33" d="M16-82v-28h88v28H16" id="w"/><path fill="#282c33" d="M135-143c-3-34-86-38-87 0 15 53 115 12 119 90S17 21 10-45l28-5c4 36 97 45 98 0-10-56-113-15-118-90-4-57 82-63 122-42 12 7 21 19 24 35" id="x"/><path fill="#282c33" d="M59-47c-2 24 18 29 38 22v24C64 9 27 4 27-40v-127H5v-23h24l9-43h21v43h35v23H59v120" id="y"/><path fill="#282c33" d="M141-36C126-15 110 5 73 4 37 3 15-17 15-53c-1-64 63-63 125-63 3-35-9-54-41-54-24 1-41 7-42 31l-33-3c5-37 33-52 76-52 45 0 72 20 72 64v82c-1 20 7 32 28 27v20c-31 9-61-2-59-35zM48-53c0 20 12 33 32 33 41-3 63-29 60-74-43 2-92-5-92 41" id="z"/><path fill="#282c33" d="M177-190C167-65 218 103 67 71c-23-6-38-20-44-43l32-5c15 47 100 32 89-28v-30C133-14 115 1 83 1 29 1 15-40 15-95c0-56 16-97 71-98 29-1 48 16 59 35 1-10 0-23 2-32h30zM94-22c36 0 50-32 50-73 0-42-14-75-50-75-39 0-46 34-46 75s6 73 46 73" id="A"/><g id="c"><use transform="matrix(0.06234567901234567,0,0,0.06234567901234567,0,0)" xlink:href="#s"/><use transform="matrix(0.06234567901234567,0,0,0.06234567901234567,14.96296296296296,0)" xlink:href="#n"/><use transform="matrix(0.06234567901234567,0,0,0.06234567901234567,27.432098765432094,0)" xlink:href="#q"/><use transform="matrix(0.06234567901234567,0,0,0.06234567901234567,38.654320987654316,0)" xlink:href="#t"/><use transform="matrix(0.06234567901234567,0,0,0.06234567901234567,51.12345679012345,0)" xlink:href="#u"/><use transform="matrix(0.06234567901234567,0,0,0.06234567901234567,63.59259259259258,0)" xlink:href="#v"/><use transform="matrix(0.06234567901234567,0,0,0.06234567901234567,76.06172839506172,0)" xlink:href="#w"/><use transform="matrix(0.06234567901234567,0,0,0.06234567901234567,83.48086419753085,0)" xlink:href="#x"/><use transform="matrix(0.06234567901234567,0,0,0.06234567901234567,94.70308641975306,0)" xlink:href="#y"/><use transform="matrix(0.06234567901234567,0,0,0.06234567901234567,100.93765432098763,0)" xlink:href="#z"/><use transform="matrix(0.06234567901234567,0,0,0.06234567901234567,113.40679012345677,0)" xlink:href="#A"/><use transform="matrix(0.06234567901234567,0,0,0.06234567901234567,125.87592592592591,0)" xlink:href="#n"/></g><path fill="#282c33" d="M30-248c87 1 191-15 191 75 0 78-77 80-158 76V0H30v-248zm33 125c57 0 124 11 124-50 0-59-68-47-124-48v98" id="B"/><path fill="#282c33" d="M127-220V0H93v-220H8v-28h204v28h-85" id="C"/><g id="d"><use transform="matrix(0.06234567901234567,0,0,0.06234567901234567,0,0)" xlink:href="#B"/><use transform="matrix(0.06234567901234567,0,0,0.06234567901234567,14.96296296296296,0)" xlink:href="#C"/></g><g id="e"><use transform="matrix(0.06234567901234567,0,0,0.06234567901234567,0,0)" xlink:href="#m"/><use transform="matrix(0.06234567901234567,0,0,0.06234567901234567,16.147530864197527,0)" xlink:href="#r"/></g><path fill="#282c33" d="M33 0v-248h34V0H33" id="D"/><path fill="#282c33" d="M140-251c81 0 123 46 123 126C263-46 219 4 140 4 59 4 17-45 17-125s42-126 123-126zm0 227c63 0 89-41 89-101s-29-99-89-99c-61 0-89 39-89 99S79-25 140-24" id="E"/><path fill="#282c33" d="M240 0l2-218c-23 76-54 145-80 218h-23L58-218 59 0H30v-248h44l77 211c21-75 51-140 76-211h43V0h-30" id="F"/><path fill="#282c33" d="M232-93c-1 65-40 97-104 97C67 4 28-28 28-90v-158h33c8 89-33 224 67 224 102 0 64-133 71-224h33v155" id="G"/><g id="f"><use transform="matrix(0.07469135802469135,0,0,0.07469135802469135,0,0)" xlink:href="#D"/><use transform="matrix(0.07469135802469135,0,0,0.07469135802469135,7.469135802469134,0)" xlink:href="#E"/><use transform="matrix(0.07469135802469135,0,0,0.07469135802469135,28.382716049382708,0)" xlink:href="#F"/><use transform="matrix(0.07469135802469135,0,0,0.07469135802469135,50.71543209876541,0)" xlink:href="#F"/><use transform="matrix(0.07469135802469135,0,0,0.07469135802469135,73.04814814814813,0)" xlink:href="#G"/></g><path fill="#282c33" d="M137 0h-34L2-248h35l83 218 83-218h36" id="H"/><g id="g"><use transform="matrix(0.06234567901234567,0,0,0.06234567901234567,0,0)" xlink:href="#H"/><use transform="matrix(0.06234567901234567,0,0,0.06234567901234567,14.96296296296296,0)" xlink:href="#F"/></g><use transform="matrix(0.06234567901234567,0,0,0.06234567901234567,0,0)" xlink:href="#w" id="h"/><path fill="#282c33" d="M101-251c82-7 93 87 43 132L82-64C71-53 59-42 53-27h129V0H18c2-99 128-94 128-182 0-28-16-43-45-43s-46 15-49 41l-32-3c6-41 34-60 81-64" id="I"/><use transform="matrix(0.06234567901234567,0,0,0.06234567901234567,0,0)" xlink:href="#I" id="i"/><use transform="matrix(0.06234567901234567,0,0,0.06234567901234567,0,0)" xlink:href="#r" id="j"/><g id="k"><use transform="matrix(0.06234567901234567,0,0,0.06234567901234567,0,0)" xlink:href="#m"/><use transform="matrix(0.06234567901234567,0,0,0.06234567901234567,16.147530864197527,0)" xlink:href="#I"/></g><g id="l"><use transform="matrix(0.06234567901234567,0,0,0.06234567901234567,0,0)" xlink:href="#m"/><use transform="matrix(0.06234567901234567,0,0,0.06234567901234567,16.147530864197527,0)" xlink:href="#I"/></g></defs></g></svg>
