<svg xmlns="http://www.w3.org/2000/svg" xmlns:xlink="http://www.w3.org/1999/xlink" xmlns:lucid="lucid" width="552" height="536.53"><g transform="translate(-2559 -41.73333333332087)" lucid:page-tab-id="uAxj0TO~3.Aj"><path d="M3020 280.27c16.57 0 30 13.43 30 30v140c0 16.56-13.43 30-30 30h-380c-16.57 0-30-13.44-30-30v-140c0-16.57 13.43-30 30-30z" stroke="#000" stroke-width="2" fill-opacity="0"/><path d="M2750 340.27h160v80h-160z" stroke="#000" stroke-width="2" fill="#fff"/><use xlink:href="#a" transform="matrix(1,0,0,1,2762,352.2666666666787) translate(15.130864197530869 21.455555555555552)"/><use xlink:href="#b" transform="matrix(1,0,0,1,2762,352.2666666666787) translate(11.951234567901253 48.388888888888886)"/><use xlink:href="#c" transform="matrix(1,0,0,1,2762,352.2666666666787) translate(70.55617283950617 48.388888888888886)"/><path d="M2760 526.33h140v50.94h-140z" stroke="#000" stroke-width="2" fill="#fff"/><use xlink:href="#d" transform="matrix(1,0,0,1,2772,538.3333333333458) translate(6.346604938271611 19.643055555555552)"/><use xlink:href="#e" transform="matrix(1,0,0,1,2772,538.3333333333458) translate(81.03672839506173 19.643055555555552)"/><path d="M2610 295.53h140V340h-140z" stroke="#000" stroke-opacity="0" stroke-width="2" fill="#fff" fill-opacity="0"/><use xlink:href="#f" transform="matrix(1,0,0,1,2615,300.5333333333697) translate(18.80339506172841 23.698611111111106)"/><path d="M2791.56 524.33v-84.56" stroke="#282c33" stroke-width="2" fill="none"/><path d="M2792.53 525.33h-1.95v-1.02h1.95z" stroke="#282c33" stroke-width=".05" fill="#282c33"/><path d="M2791.56 424.5l4.63 14.27h-9.28z" stroke="#282c33" stroke-width="2" fill="#282c33"/><path d="M2867.56 524.33v-84.56" stroke="#282c33" stroke-width="2" fill="none"/><path d="M2868.53 525.33h-1.95v-1.02h1.95z" stroke="#282c33" stroke-width=".05" fill="#282c33"/><path d="M2867.56 424.5l4.63 14.27h-9.28z" stroke="#282c33" stroke-width="2" fill="#282c33"/><path d="M2870 42.73h240v131.74h-240z" stroke="#000" stroke-width="2" fill="#fff"/><use xlink:href="#g" transform="matrix(1,0,0,1,2882,54.73333333332087) translate(10.366666666666674 31.455555555555552)"/><use xlink:href="#h" transform="matrix(1,0,0,1,2882,54.73333333332087) translate(124.77098765432099 31.455555555555552)"/><use xlink:href="#i" transform="matrix(1,0,0,1,2882,54.73333333332087) translate(31.4706790123457 58.388888888888886)"/><use xlink:href="#j" transform="matrix(1,0,0,1,2882,54.73333333332087) translate(88.76635802469137 58.388888888888886)"/><use xlink:href="#k" transform="matrix(1,0,0,1,2882,54.73333333332087) translate(63.859259259259275 85.32222222222221)"/><path d="M2560 42.73h240v131.74h-240z" stroke="#000" stroke-width="2" fill="#fff"/><use xlink:href="#l" transform="matrix(1,0,0,1,2572,54.73333333332087) translate(14.045061728395083 31.455555555555552)"/><use xlink:href="#m" transform="matrix(1,0,0,1,2572,54.73333333332087) translate(101.14197530864197 31.455555555555552)"/><use xlink:href="#n" transform="matrix(1,0,0,1,2572,54.73333333332087) translate(183.25123456790124 31.455555555555552)"/><use xlink:href="#o" transform="matrix(1,0,0,1,2572,54.73333333332087) translate(30.067901234567927 58.388888888888886)"/><use xlink:href="#p" transform="matrix(1,0,0,1,2572,54.73333333332087) translate(61.24074074074076 58.388888888888886)"/><use xlink:href="#q" transform="matrix(1,0,0,1,2572,54.73333333332087) translate(162.24074074074073 58.388888888888886)"/><use xlink:href="#r" transform="matrix(1,0,0,1,2572,54.73333333332087) translate(56.34660493827161 85.32222222222221)"/><use xlink:href="#e" transform="matrix(1,0,0,1,2572,54.73333333332087) translate(131.03672839506174 85.32222222222221)"/><path d="M2787 338.43l-96.84-147.5" stroke="#282c33" stroke-width="2" fill="none"/><path d="M2788.72 339.27h-2.33l-.22-.33 1.63-1.07z" stroke="#282c33" stroke-width=".05" fill="#282c33"/><path d="M2681.78 178.17l11.7 9.38-7.75 5.1z" stroke="#282c33" stroke-width="2" fill="#282c33"/><path d="M2854.66 338.4l4.8-8.16m4.8-8.17l9.63-16.33m4.8-8.17l9.62-16.33m4.8-8.17l9.63-16.33m4.8-8.17l9.63-16.33m4.8-8.17l9.63-16.33m4.82-8.16l4.8-8.17" stroke="#282c33" stroke-width="2" fill="none"/><path d="M2855.5 338.88l-.22.4h-2.26l.8-1.4z" stroke="#282c33" stroke-width=".05" fill="#282c33"/><path d="M2948.98 178.25l-3.25 14.65-8-4.7z" stroke="#282c33" stroke-width="2" fill="#282c33"/><g><path d="M2928.14 254.14c-9.4 9.42-24.68 9.42-34.1 0-9.4-9.4-9.4-24.68 0-34.1 9.42-9.4 24.7-9.4 34.1 0 9.42 9.42 9.42 24.7 0 34.1z" stroke="#000" stroke-width="6" fill-opacity="0"/></g><g><path d="M2896.5 215.16l29.18 39.86" stroke="#000" stroke-width="6" fill="none"/></g><defs><path fill="#282c33" d="M63-220v92h138v28H63V0H30v-248h175v28H63" id="s"/><path fill="#282c33" d="M24-231v-30h32v30H24zM24 0v-190h32V0H24" id="t"/><path fill="#282c33" d="M114-163C36-179 61-72 57 0H25l-1-190h30c1 12-1 29 2 39 6-27 23-49 58-41v29" id="u"/><path fill="#282c33" d="M135-143c-3-34-86-38-87 0 15 53 115 12 119 90S17 21 10-45l28-5c4 36 97 45 98 0-10-56-113-15-118-90-4-57 82-63 122-42 12 7 21 19 24 35" id="v"/><path fill="#282c33" d="M59-47c-2 24 18 29 38 22v24C64 9 27 4 27-40v-127H5v-23h24l9-43h21v43h35v23H59v120" id="w"/><path fill="#282c33" d="M16-82v-28h88v28H16" id="x"/><path fill="#282c33" d="M141-36C126-15 110 5 73 4 37 3 15-17 15-53c-1-64 63-63 125-63 3-35-9-54-41-54-24 1-41 7-42 31l-33-3c5-37 33-52 76-52 45 0 72 20 72 64v82c-1 20 7 32 28 27v20c-31 9-61-2-59-35zM48-53c0 20 12 33 32 33 41-3 63-29 60-74-43 2-92-5-92 41" id="y"/><path fill="#282c33" d="M177-190C167-65 218 103 67 71c-23-6-38-20-44-43l32-5c15 47 100 32 89-28v-30C133-14 115 1 83 1 29 1 15-40 15-95c0-56 16-97 71-98 29-1 48 16 59 35 1-10 0-23 2-32h30zM94-22c36 0 50-32 50-73 0-42-14-75-50-75-39 0-46 34-46 75s6 73 46 73" id="z"/><path fill="#282c33" d="M100-194c63 0 86 42 84 106H49c0 40 14 67 53 68 26 1 43-12 49-29l28 8c-11 28-37 45-77 45C44 4 14-33 15-96c1-61 26-98 85-98zm52 81c6-60-76-77-97-28-3 7-6 17-6 28h103" id="A"/><g id="a"><use transform="matrix(0.06234567901234567,0,0,0.06234567901234567,0,0)" xlink:href="#s"/><use transform="matrix(0.06234567901234567,0,0,0.06234567901234567,13.653703703703702,0)" xlink:href="#t"/><use transform="matrix(0.06234567901234567,0,0,0.06234567901234567,18.57901234567901,0)" xlink:href="#u"/><use transform="matrix(0.06234567901234567,0,0,0.06234567901234567,25.998148148148147,0)" xlink:href="#v"/><use transform="matrix(0.06234567901234567,0,0,0.06234567901234567,37.22037037037037,0)" xlink:href="#w"/><use transform="matrix(0.06234567901234567,0,0,0.06234567901234567,43.45493827160493,0)" xlink:href="#x"/><use transform="matrix(0.06234567901234567,0,0,0.06234567901234567,50.874074074074066,0)" xlink:href="#v"/><use transform="matrix(0.06234567901234567,0,0,0.06234567901234567,62.09629629629629,0)" xlink:href="#w"/><use transform="matrix(0.06234567901234567,0,0,0.06234567901234567,68.33086419753086,0)" xlink:href="#y"/><use transform="matrix(0.06234567901234567,0,0,0.06234567901234567,80.79999999999998,0)" xlink:href="#z"/><use transform="matrix(0.06234567901234567,0,0,0.06234567901234567,93.26913580246912,0)" xlink:href="#A"/></g><path fill="#282c33" d="M30-248c87 1 191-15 191 75 0 78-77 80-158 76V0H30v-248zm33 125c57 0 124 11 124-50 0-59-68-47-124-48v98" id="B"/><g id="b"><use transform="matrix(0.06234567901234567,0,0,0.06234567901234567,0,0)" xlink:href="#B"/><use transform="matrix(0.06234567901234567,0,0,0.06234567901234567,14.96296296296296,0)" xlink:href="#y"/><use transform="matrix(0.06234567901234567,0,0,0.06234567901234567,27.432098765432094,0)" xlink:href="#z"/><use transform="matrix(0.06234567901234567,0,0,0.06234567901234567,39.90123456790123,0)" xlink:href="#A"/></g><path fill="#282c33" d="M127-220V0H93v-220H8v-28h204v28h-85" id="C"/><path fill="#282c33" d="M115-194c53 0 69 39 70 98 0 66-23 100-70 100C84 3 66-7 56-30L54 0H23l1-261h32v101c10-23 28-34 59-34zm-8 174c40 0 45-34 45-75 0-40-5-75-45-74-42 0-51 32-51 76 0 43 10 73 51 73" id="D"/><path fill="#282c33" d="M24 0v-261h32V0H24" id="E"/><g id="c"><use transform="matrix(0.06234567901234567,0,0,0.06234567901234567,0,0)" xlink:href="#C"/><use transform="matrix(0.06234567901234567,0,0,0.06234567901234567,11.159876543209876,0)" xlink:href="#y"/><use transform="matrix(0.06234567901234567,0,0,0.06234567901234567,23.62901234567901,0)" xlink:href="#D"/><use transform="matrix(0.06234567901234567,0,0,0.06234567901234567,36.09814814814814,0)" xlink:href="#E"/><use transform="matrix(0.06234567901234567,0,0,0.06234567901234567,41.02345679012345,0)" xlink:href="#A"/></g><path fill="#282c33" d="M30-248c118-7 216 8 213 122C240-48 200 0 122 0H30v-248zM63-27c89 8 146-16 146-99s-60-101-146-95v194" id="F"/><path fill="#282c33" d="M108 0H70L1-190h34L89-25l56-165h34" id="G"/><path fill="#282c33" d="M96-169c-40 0-48 33-48 73s9 75 48 75c24 0 41-14 43-38l32 2c-6 37-31 61-74 61-59 0-76-41-82-99-10-93 101-131 147-64 4 7 5 14 7 22l-32 3c-4-21-16-35-41-35" id="H"/><g id="d"><use transform="matrix(0.06234567901234567,0,0,0.06234567901234567,0,0)" xlink:href="#F"/><use transform="matrix(0.06234567901234567,0,0,0.06234567901234567,16.147530864197527,0)" xlink:href="#A"/><use transform="matrix(0.06234567901234567,0,0,0.06234567901234567,28.61666666666666,0)" xlink:href="#G"/><use transform="matrix(0.06234567901234567,0,0,0.06234567901234567,39.83888888888888,0)" xlink:href="#t"/><use transform="matrix(0.06234567901234567,0,0,0.06234567901234567,44.76419753086419,0)" xlink:href="#H"/><use transform="matrix(0.06234567901234567,0,0,0.06234567901234567,55.98641975308641,0)" xlink:href="#A"/></g><path fill="#282c33" d="M27 0v-27h64v-190l-56 39v-29l58-41h29v221h61V0H27" id="I"/><g id="e"><use transform="matrix(0.06234567901234567,0,0,0.06234567901234567,0,0)" xlink:href="#F"/><use transform="matrix(0.06234567901234567,0,0,0.06234567901234567,16.147530864197527,0)" xlink:href="#I"/></g><path fill="#282c33" d="M33 0v-248h34V0H33" id="J"/><path fill="#282c33" d="M140-251c81 0 123 46 123 126C263-46 219 4 140 4 59 4 17-45 17-125s42-126 123-126zm0 227c63 0 89-41 89-101s-29-99-89-99c-61 0-89 39-89 99S79-25 140-24" id="K"/><path fill="#282c33" d="M240 0l2-218c-23 76-54 145-80 218h-23L58-218 59 0H30v-248h44l77 211c21-75 51-140 76-211h43V0h-30" id="L"/><path fill="#282c33" d="M232-93c-1 65-40 97-104 97C67 4 28-28 28-90v-158h33c8 89-33 224 67 224 102 0 64-133 71-224h33v155" id="M"/><g id="f"><use transform="matrix(0.07469135802469135,0,0,0.07469135802469135,0,0)" xlink:href="#J"/><use transform="matrix(0.07469135802469135,0,0,0.07469135802469135,7.469135802469134,0)" xlink:href="#K"/><use transform="matrix(0.07469135802469135,0,0,0.07469135802469135,28.382716049382708,0)" xlink:href="#L"/><use transform="matrix(0.07469135802469135,0,0,0.07469135802469135,50.71543209876541,0)" xlink:href="#L"/><use transform="matrix(0.07469135802469135,0,0,0.07469135802469135,73.04814814814813,0)" xlink:href="#M"/></g><path fill="#282c33" d="M100-194c62-1 85 37 85 99 1 63-27 99-86 99S16-35 15-95c0-66 28-99 85-99zM99-20c44 1 53-31 53-75 0-43-8-75-51-75s-53 32-53 75 10 74 51 75" id="N"/><path fill="#282c33" d="M206 0h-36l-40-164L89 0H53L-1-190h32L70-26l43-164h34l41 164 42-164h31" id="O"/><path fill="#282c33" d="M85-194c31 0 48 13 60 33l-1-100h32l1 261h-30c-2-10 0-23-3-31C134-8 116 4 85 4 32 4 16-35 15-94c0-66 23-100 70-100zm9 24c-40 0-46 34-46 75 0 40 6 74 45 74 42 0 51-32 51-76 0-42-9-74-50-73" id="P"/><g id="g"><use transform="matrix(0.06234567901234567,0,0,0.06234567901234567,0,0)" xlink:href="#F"/><use transform="matrix(0.06234567901234567,0,0,0.06234567901234567,16.147530864197527,0)" xlink:href="#t"/><use transform="matrix(0.06234567901234567,0,0,0.06234567901234567,21.072839506172834,0)" xlink:href="#v"/><use transform="matrix(0.06234567901234567,0,0,0.06234567901234567,32.295061728395055,0)" xlink:href="#y"/><use transform="matrix(0.06234567901234567,0,0,0.06234567901234567,44.76419753086419,0)" xlink:href="#E"/><use transform="matrix(0.06234567901234567,0,0,0.06234567901234567,49.689506172839494,0)" xlink:href="#E"/><use transform="matrix(0.06234567901234567,0,0,0.06234567901234567,54.6148148148148,0)" xlink:href="#N"/><use transform="matrix(0.06234567901234567,0,0,0.06234567901234567,67.08395061728393,0)" xlink:href="#O"/><use transform="matrix(0.06234567901234567,0,0,0.06234567901234567,83.23148148148147,0)" xlink:href="#A"/><use transform="matrix(0.06234567901234567,0,0,0.06234567901234567,95.7006172839506,0)" xlink:href="#P"/></g><path fill="#282c33" d="M210-169c-67 3-38 105-44 169h-31v-121c0-29-5-50-35-48C34-165 62-65 56 0H25l-1-190h30c1 10-1 24 2 32 10-44 99-50 107 0 11-21 27-35 58-36 85-2 47 119 55 194h-31v-121c0-29-5-49-35-48" id="Q"/><path fill="#282c33" d="M179-190L93 31C79 59 56 82 12 73V49c39 6 53-20 64-50L1-190h34L92-34l54-156h33" id="R"/><g id="h"><use transform="matrix(0.06234567901234567,0,0,0.06234567901234567,0,0)" xlink:href="#Q"/><use transform="matrix(0.06234567901234567,0,0,0.06234567901234567,18.641358024691353,0)" xlink:href="#A"/><use transform="matrix(0.06234567901234567,0,0,0.06234567901234567,31.110493827160486,0)" xlink:href="#Q"/><use transform="matrix(0.06234567901234567,0,0,0.06234567901234567,49.75185185185184,0)" xlink:href="#N"/><use transform="matrix(0.06234567901234567,0,0,0.06234567901234567,62.22098765432097,0)" xlink:href="#u"/><use transform="matrix(0.06234567901234567,0,0,0.06234567901234567,69.6401234567901,0)" xlink:href="#R"/></g><path fill="#282c33" d="M87 75C49 33 22-17 22-94c0-76 28-126 65-167h31c-38 41-64 92-64 168S80 34 118 75H87" id="S"/><path fill="#282c33" d="M33 0v-38h34V0H33" id="T"/><path fill="#282c33" d="M68-38c1 34 0 65-14 84H32c9-13 17-26 17-46H33v-38h35" id="U"/><g id="i"><use transform="matrix(0.06234567901234567,0,0,0.06234567901234567,0,0)" xlink:href="#S"/><use transform="matrix(0.06234567901234567,0,0,0.06234567901234567,7.4191358024691345,0)" xlink:href="#A"/><use transform="matrix(0.06234567901234567,0,0,0.06234567901234567,19.888271604938268,0)" xlink:href="#T"/><use transform="matrix(0.06234567901234567,0,0,0.06234567901234567,26.122839506172834,0)" xlink:href="#z"/><use transform="matrix(0.06234567901234567,0,0,0.06234567901234567,38.59197530864196,0)" xlink:href="#T"/><use transform="matrix(0.06234567901234567,0,0,0.06234567901234567,44.82654320987653,0)" xlink:href="#U"/></g><path fill="#282c33" d="M115-194c55 1 70 41 70 98S169 2 115 4C84 4 66-9 55-30l1 105H24l-1-265h31l2 30c10-21 28-34 59-34zm-8 174c40 0 45-34 45-75s-6-73-45-74c-42 0-51 32-51 76 0 43 10 73 51 73" id="V"/><g id="j"><use transform="matrix(0.06234567901234567,0,0,0.06234567901234567,0,0)" xlink:href="#V"/><use transform="matrix(0.06234567901234567,0,0,0.06234567901234567,12.469135802469133,0)" xlink:href="#u"/><use transform="matrix(0.06234567901234567,0,0,0.06234567901234567,19.888271604938268,0)" xlink:href="#t"/><use transform="matrix(0.06234567901234567,0,0,0.06234567901234567,24.813580246913574,0)" xlink:href="#G"/><use transform="matrix(0.06234567901234567,0,0,0.06234567901234567,36.035802469135795,0)" xlink:href="#t"/><use transform="matrix(0.06234567901234567,0,0,0.06234567901234567,40.9611111111111,0)" xlink:href="#E"/><use transform="matrix(0.06234567901234567,0,0,0.06234567901234567,45.88641975308641,0)" xlink:href="#A"/><use transform="matrix(0.06234567901234567,0,0,0.06234567901234567,58.35555555555554,0)" xlink:href="#z"/><use transform="matrix(0.06234567901234567,0,0,0.06234567901234567,70.82469135802467,0)" xlink:href="#A"/><use transform="matrix(0.06234567901234567,0,0,0.06234567901234567,83.2938271604938,0)" xlink:href="#P"/></g><path fill="#282c33" d="M33-261c38 41 65 92 65 168S71 34 33 75H2C39 34 66-17 66-93S39-220 2-261h31" id="W"/><g id="k"><use transform="matrix(0.06234567901234567,0,0,0.06234567901234567,0,0)" xlink:href="#Q"/><use transform="matrix(0.06234567901234567,0,0,0.06234567901234567,18.641358024691353,0)" xlink:href="#A"/><use transform="matrix(0.06234567901234567,0,0,0.06234567901234567,31.110493827160486,0)" xlink:href="#Q"/><use transform="matrix(0.06234567901234567,0,0,0.06234567901234567,49.75185185185184,0)" xlink:href="#N"/><use transform="matrix(0.06234567901234567,0,0,0.06234567901234567,62.22098765432097,0)" xlink:href="#u"/><use transform="matrix(0.06234567901234567,0,0,0.06234567901234567,69.6401234567901,0)" xlink:href="#R"/><use transform="matrix(0.06234567901234567,0,0,0.06234567901234567,80.86234567901232,0)" xlink:href="#W"/></g><g id="l"><use transform="matrix(0.06234567901234567,0,0,0.06234567901234567,0,0)" xlink:href="#L"/><use transform="matrix(0.06234567901234567,0,0,0.06234567901234567,18.641358024691353,0)" xlink:href="#A"/><use transform="matrix(0.06234567901234567,0,0,0.06234567901234567,31.110493827160486,0)" xlink:href="#Q"/><use transform="matrix(0.06234567901234567,0,0,0.06234567901234567,49.75185185185184,0)" xlink:href="#N"/><use transform="matrix(0.06234567901234567,0,0,0.06234567901234567,62.22098765432097,0)" xlink:href="#u"/><use transform="matrix(0.06234567901234567,0,0,0.06234567901234567,69.6401234567901,0)" xlink:href="#R"/></g><g id="m"><use transform="matrix(0.06234567901234567,0,0,0.06234567901234567,0,0)" xlink:href="#y"/><use transform="matrix(0.06234567901234567,0,0,0.06234567901234567,12.469135802469133,0)" xlink:href="#E"/><use transform="matrix(0.06234567901234567,0,0,0.06234567901234567,17.39444444444444,0)" xlink:href="#E"/><use transform="matrix(0.06234567901234567,0,0,0.06234567901234567,22.319753086419745,0)" xlink:href="#N"/><use transform="matrix(0.06234567901234567,0,0,0.06234567901234567,34.78888888888888,0)" xlink:href="#O"/><use transform="matrix(0.06234567901234567,0,0,0.06234567901234567,50.936419753086405,0)" xlink:href="#A"/><use transform="matrix(0.06234567901234567,0,0,0.06234567901234567,63.40555555555554,0)" xlink:href="#P"/></g><g id="n"><use transform="matrix(0.06234567901234567,0,0,0.06234567901234567,0,0)" xlink:href="#w"/><use transform="matrix(0.06234567901234567,0,0,0.06234567901234567,6.234567901234566,0)" xlink:href="#N"/></g><g id="o"><use transform="matrix(0.06234567901234567,0,0,0.06234567901234567,0,0)" xlink:href="#D"/><use transform="matrix(0.06234567901234567,0,0,0.06234567901234567,12.469135802469133,0)" xlink:href="#A"/></g><g id="p"><use transform="matrix(0.06234567901234567,0,0,0.06234567901234567,0,0)" xlink:href="#y"/><use transform="matrix(0.06234567901234567,0,0,0.06234567901234567,12.469135802469133,0)" xlink:href="#H"/><use transform="matrix(0.06234567901234567,0,0,0.06234567901234567,23.691358024691354,0)" xlink:href="#H"/><use transform="matrix(0.06234567901234567,0,0,0.06234567901234567,34.913580246913575,0)" xlink:href="#A"/><use transform="matrix(0.06234567901234567,0,0,0.06234567901234567,47.38271604938271,0)" xlink:href="#v"/><use transform="matrix(0.06234567901234567,0,0,0.06234567901234567,58.60493827160493,0)" xlink:href="#v"/><use transform="matrix(0.06234567901234567,0,0,0.06234567901234567,69.82716049382715,0)" xlink:href="#A"/><use transform="matrix(0.06234567901234567,0,0,0.06234567901234567,82.29629629629628,0)" xlink:href="#P"/></g><g id="q"><use transform="matrix(0.06234567901234567,0,0,0.06234567901234567,0,0)" xlink:href="#D"/><use transform="matrix(0.06234567901234567,0,0,0.06234567901234567,12.469135802469133,0)" xlink:href="#R"/></g><g id="r"><use transform="matrix(0.06234567901234567,0,0,0.06234567901234567,0,0)" xlink:href="#F"/><use transform="matrix(0.06234567901234567,0,0,0.06234567901234567,16.147530864197527,0)" xlink:href="#A"/><use transform="matrix(0.06234567901234567,0,0,0.06234567901234567,28.61666666666666,0)" xlink:href="#G"/><use transform="matrix(0.06234567901234567,0,0,0.06234567901234567,39.83888888888888,0)" xlink:href="#t"/><use transform="matrix(0.06234567901234567,0,0,0.06234567901234567,44.76419753086419,0)" xlink:href="#H"/><use transform="matrix(0.06234567901234567,0,0,0.06234567901234567,55.98641975308641,0)" xlink:href="#A"/></g></defs></g></svg>
