<svg xmlns="http://www.w3.org/2000/svg" xmlns:xlink="http://www.w3.org/1999/xlink" xmlns:lucid="lucid" width="797" height="539.2"><g transform="translate(-3879 -579)" lucid:page-tab-id="uAxj0TO~3.Aj"><path d="M4630 759.47c16.57 0 30 13.43 30 30v211.46c0 16.57-13.43 30-30 30h-720c-16.57 0-30-13.43-30-30V789.47c0-16.57 13.43-30 30-30z" stroke="#000" stroke-width="2" fill-opacity="0"/><path d="M3963.67 801.27h197.55v80h-197.55z" stroke="#000" stroke-width="2" fill="#fff"/><use xlink:href="#a" transform="matrix(1,0,0,1,3975.666481337781,813.2666666666436) translate(35.34660493827161 21.455555555555552)"/><use xlink:href="#b" transform="matrix(1,0,0,1,3975.666481337781,813.2666666666436) translate(110.03672839506173 21.455555555555552)"/><use xlink:href="#c" transform="matrix(1,0,0,1,3975.666481337781,813.2666666666436) translate(0.401851851851859 48.388888888888886)"/><use xlink:href="#d" transform="matrix(1,0,0,1,3975.666481337781,813.2666666666436) translate(144.98148148148147 48.388888888888886)"/><path d="M3992.44 1066.27h140v50.93h-140z" stroke="#000" stroke-width="2" fill="#fff"/><use xlink:href="#a" transform="matrix(1,0,0,1,4004.444320849426,1078.2666666666723) translate(6.346604938271611 19.643055555555552)"/><use xlink:href="#e" transform="matrix(1,0,0,1,4004.444320849426,1078.2666666666723) translate(81.03672839506173 19.643055555555552)"/><path d="M3880 759.47h140v44.46h-140z" stroke="#000" stroke-opacity="0" stroke-width="2" fill="#fff" fill-opacity="0"/><use xlink:href="#f" transform="matrix(1,0,0,1,3885,764.4666666666669) translate(18.80339506172841 23.698611111111106)"/><path d="M4218.78 580h160v131.73h-160z" stroke="#000" stroke-width="2" fill="#fff"/><use xlink:href="#g" transform="matrix(1,0,0,1,4230.777839575287,592) translate(35.01913580246915 44.95555555555555)"/><use xlink:href="#h" transform="matrix(1,0,0,1,4230.777839575287,592) translate(74.85802469135803 44.95555555555555)"/><use xlink:href="#i" transform="matrix(1,0,0,1,4230.777839575287,592) translate(88.51172839506172 44.95555555555555)"/><use xlink:href="#j" transform="matrix(1,0,0,1,4230.777839575287,592) translate(27.56882716049384 71.88888888888889)"/><path d="M3982.44 580h160v131.73h-160z" stroke="#000" stroke-width="2" fill="#fff"/><use xlink:href="#g" transform="matrix(1,0,0,1,3994.444320849426,592) translate(35.01913580246915 44.95555555555555)"/><use xlink:href="#h" transform="matrix(1,0,0,1,3994.444320849426,592) translate(74.85802469135803 44.95555555555555)"/><use xlink:href="#k" transform="matrix(1,0,0,1,3994.444320849426,592) translate(88.51172839506172 44.95555555555555)"/><use xlink:href="#j" transform="matrix(1,0,0,1,3994.444320849426,592) translate(27.56882716049384 71.88888888888889)"/><path d="M4062.44 799.27v-68.03" stroke="#282c33" stroke-width="2" fill="none"/><path d="M4063.42 800.27h-1.95v-1.03h1.95z" stroke="#282c33" stroke-width=".05" fill="#282c33"/><path d="M4062.44 715.97l4.64 14.26h-9.27z" stroke="#282c33" stroke-width="2" fill="#282c33"/><path d="M4298.78 798v-66.76" stroke="#282c33" stroke-width="2" fill="none"/><path d="M4299.75 799h-1.95v-1.03h1.95z" stroke="#282c33" stroke-width=".05" fill="#282c33"/><path d="M4298.78 715.97l4.63 14.26h-9.26z" stroke="#282c33" stroke-width="2" fill="#282c33"/><path d="M4200 800h197.56v80H4200z" stroke="#000" stroke-width="2" fill="#fff"/><use xlink:href="#a" transform="matrix(1,0,0,1,4212,812) translate(35.34660493827161 21.455555555555552)"/><use xlink:href="#l" transform="matrix(1,0,0,1,4212,812) translate(110.03672839506173 21.455555555555552)"/><use xlink:href="#c" transform="matrix(1,0,0,1,4212,812) translate(0.401851851851859 48.388888888888886)"/><use xlink:href="#d" transform="matrix(1,0,0,1,4212,812) translate(144.98148148148147 48.388888888888886)"/><path d="M4062.44 1064.27v-163.5" stroke="#282c33" stroke-width="2" fill="none"/><path d="M4063.42 1065.27h-1.95v-1.03h1.95z" stroke="#282c33" stroke-width=".05" fill="#282c33"/><path d="M4062.44 885.5l4.64 14.27h-9.27z" stroke="#282c33" stroke-width="2" fill="#282c33"/><path d="M4228.78 1066.27h140v50.93h-140z" stroke="#000" stroke-width="2" fill="#fff"/><use xlink:href="#a" transform="matrix(1,0,0,1,4240.777839575287,1078.2666666666723) translate(6.346604938271611 19.643055555555552)"/><use xlink:href="#m" transform="matrix(1,0,0,1,4240.777839575287,1078.2666666666723) translate(81.03672839506173 19.643055555555552)"/><path d="M4298.78 1064.27V899.5" stroke="#282c33" stroke-width="2" fill="none"/><path d="M4299.75 1065.27h-1.95v-1.03h1.95z" stroke="#282c33" stroke-width=".05" fill="#282c33"/><path d="M4298.78 884.24l4.63 14.26h-9.26z" stroke="#282c33" stroke-width="2" fill="#282c33"/><path d="M4436.57 580h160v131.73h-160z" stroke="#000" stroke-width="2" fill="#fff"/><g><use xlink:href="#n" transform="matrix(1,0,0,1,4448.570171907259,592.0000000000001) translate(14.507407407407428 44.95555555555555)"/><use xlink:href="#j" transform="matrix(1,0,0,1,4448.570171907259,592.0000000000001) translate(27.56882716049384 71.88888888888889)"/></g><path d="M4518.77 920.23l-1.58-189" stroke="#282c33" stroke-width="2" fill="none"/><path d="M4519.75 921.23h-1.95v-1l1.94-.03z" stroke="#282c33" stroke-width=".05" fill="#282c33"/><path d="M4517.06 715.97l4.76 14.23-9.27.07z" stroke="#282c33" stroke-width="2" fill="#282c33"/><path d="M4420 922.23h197.56v80H4420z" stroke="#000" stroke-width="2" fill="#fff"/><g><use xlink:href="#a" transform="matrix(1,0,0,1,4432.000000000001,934.2333333333333) translate(35.34660493827161 21.455555555555552)"/><use xlink:href="#o" transform="matrix(1,0,0,1,4432.000000000001,934.2333333333333) translate(110.03672839506173 21.455555555555552)"/><use xlink:href="#p" transform="matrix(1,0,0,1,4432.000000000001,934.2333333333333) translate(16.705246913580254 48.388888888888886)"/><use xlink:href="#d" transform="matrix(1,0,0,1,4432.000000000001,934.2333333333333) translate(128.67808641975307 48.388888888888886)"/></g><path d="M4448.78 1066.27h140v50.93h-140z" stroke="#000" stroke-width="2" fill="#fff"/><g><use xlink:href="#a" transform="matrix(1,0,0,1,4460.7778395752875,1078.2666666666723) translate(6.346604938271611 19.643055555555552)"/><use xlink:href="#q" transform="matrix(1,0,0,1,4460.7778395752875,1078.2666666666723) translate(81.03672839506173 19.643055555555552)"/></g><path d="M4518.78 1064.27v-42.53" stroke="#282c33" stroke-width="2" fill="none"/><path d="M4519.75 1065.27h-1.95v-1.03h1.95z" stroke="#282c33" stroke-width=".05" fill="#282c33"/><path d="M4518.78 1006.47l4.63 14.26h-9.26z" stroke="#282c33" stroke-width="2" fill="#282c33"/><path d="M3960 922.23h197.56v80H3960z" stroke="#000" stroke-width="2" fill="#fff"/><g><use xlink:href="#a" transform="matrix(1,0,0,1,3972,934.2333333333333) translate(35.34660493827161 21.455555555555552)"/><use xlink:href="#b" transform="matrix(1,0,0,1,3972,934.2333333333333) translate(110.03672839506173 21.455555555555552)"/><use xlink:href="#p" transform="matrix(1,0,0,1,3972,934.2333333333333) translate(16.705246913580254 48.388888888888886)"/><use xlink:href="#d" transform="matrix(1,0,0,1,3972,934.2333333333333) translate(128.67808641975307 48.388888888888886)"/></g><defs><path fill="#282c33" d="M30-248c118-7 216 8 213 122C240-48 200 0 122 0H30v-248zM63-27c89 8 146-16 146-99s-60-101-146-95v194" id="r"/><path fill="#282c33" d="M100-194c63 0 86 42 84 106H49c0 40 14 67 53 68 26 1 43-12 49-29l28 8c-11 28-37 45-77 45C44 4 14-33 15-96c1-61 26-98 85-98zm52 81c6-60-76-77-97-28-3 7-6 17-6 28h103" id="s"/><path fill="#282c33" d="M108 0H70L1-190h34L89-25l56-165h34" id="t"/><path fill="#282c33" d="M24-231v-30h32v30H24zM24 0v-190h32V0H24" id="u"/><path fill="#282c33" d="M96-169c-40 0-48 33-48 73s9 75 48 75c24 0 41-14 43-38l32 2c-6 37-31 61-74 61-59 0-76-41-82-99-10-93 101-131 147-64 4 7 5 14 7 22l-32 3c-4-21-16-35-41-35" id="v"/><g id="a"><use transform="matrix(0.06234567901234567,0,0,0.06234567901234567,0,0)" xlink:href="#r"/><use transform="matrix(0.06234567901234567,0,0,0.06234567901234567,16.147530864197527,0)" xlink:href="#s"/><use transform="matrix(0.06234567901234567,0,0,0.06234567901234567,28.61666666666666,0)" xlink:href="#t"/><use transform="matrix(0.06234567901234567,0,0,0.06234567901234567,39.83888888888888,0)" xlink:href="#u"/><use transform="matrix(0.06234567901234567,0,0,0.06234567901234567,44.76419753086419,0)" xlink:href="#v"/><use transform="matrix(0.06234567901234567,0,0,0.06234567901234567,55.98641975308641,0)" xlink:href="#s"/></g><path fill="#282c33" d="M27 0v-27h64v-190l-56 39v-29l58-41h29v221h61V0H27" id="w"/><g id="b"><use transform="matrix(0.06234567901234567,0,0,0.06234567901234567,0,0)" xlink:href="#r"/><use transform="matrix(0.06234567901234567,0,0,0.06234567901234567,16.147530864197527,0)" xlink:href="#w"/></g><path fill="#282c33" d="M185-189c-5-48-123-54-124 2 14 75 158 14 163 119 3 78-121 87-175 55-17-10-28-26-33-46l33-7c5 56 141 63 141-1 0-78-155-14-162-118-5-82 145-84 179-34 5 7 8 16 11 25" id="x"/><path fill="#282c33" d="M100-194c62-1 85 37 85 99 1 63-27 99-86 99S16-35 15-95c0-66 28-99 85-99zM99-20c44 1 53-31 53-75 0-43-8-75-51-75s-53 32-53 75 10 74 51 75" id="y"/><path fill="#282c33" d="M117-194c89-4 53 116 60 194h-32v-121c0-31-8-49-39-48C34-167 62-67 57 0H25l-1-190h30c1 10-1 24 2 32 11-22 29-35 61-36" id="z"/><path fill="#282c33" d="M85-194c31 0 48 13 60 33l-1-100h32l1 261h-30c-2-10 0-23-3-31C134-8 116 4 85 4 32 4 16-35 15-94c0-66 23-100 70-100zm9 24c-40 0-46 34-46 75 0 40 6 74 45 74 42 0 51-32 51-76 0-42-9-74-50-73" id="A"/><path fill="#282c33" d="M16-82v-28h88v28H16" id="B"/><path fill="#282c33" d="M135-143c-3-34-86-38-87 0 15 53 115 12 119 90S17 21 10-45l28-5c4 36 97 45 98 0-10-56-113-15-118-90-4-57 82-63 122-42 12 7 21 19 24 35" id="C"/><path fill="#282c33" d="M59-47c-2 24 18 29 38 22v24C64 9 27 4 27-40v-127H5v-23h24l9-43h21v43h35v23H59v120" id="D"/><path fill="#282c33" d="M141-36C126-15 110 5 73 4 37 3 15-17 15-53c-1-64 63-63 125-63 3-35-9-54-41-54-24 1-41 7-42 31l-33-3c5-37 33-52 76-52 45 0 72 20 72 64v82c-1 20 7 32 28 27v20c-31 9-61-2-59-35zM48-53c0 20 12 33 32 33 41-3 63-29 60-74-43 2-92-5-92 41" id="E"/><path fill="#282c33" d="M177-190C167-65 218 103 67 71c-23-6-38-20-44-43l32-5c15 47 100 32 89-28v-30C133-14 115 1 83 1 29 1 15-40 15-95c0-56 16-97 71-98 29-1 48 16 59 35 1-10 0-23 2-32h30zM94-22c36 0 50-32 50-73 0-42-14-75-50-75-39 0-46 34-46 75s6 73 46 73" id="F"/><g id="c"><use transform="matrix(0.06234567901234567,0,0,0.06234567901234567,0,0)" xlink:href="#x"/><use transform="matrix(0.06234567901234567,0,0,0.06234567901234567,14.96296296296296,0)" xlink:href="#s"/><use transform="matrix(0.06234567901234567,0,0,0.06234567901234567,27.432098765432094,0)" xlink:href="#v"/><use transform="matrix(0.06234567901234567,0,0,0.06234567901234567,38.654320987654316,0)" xlink:href="#y"/><use transform="matrix(0.06234567901234567,0,0,0.06234567901234567,51.12345679012345,0)" xlink:href="#z"/><use transform="matrix(0.06234567901234567,0,0,0.06234567901234567,63.59259259259258,0)" xlink:href="#A"/><use transform="matrix(0.06234567901234567,0,0,0.06234567901234567,76.06172839506172,0)" xlink:href="#B"/><use transform="matrix(0.06234567901234567,0,0,0.06234567901234567,83.48086419753085,0)" xlink:href="#C"/><use transform="matrix(0.06234567901234567,0,0,0.06234567901234567,94.70308641975306,0)" xlink:href="#D"/><use transform="matrix(0.06234567901234567,0,0,0.06234567901234567,100.93765432098763,0)" xlink:href="#E"/><use transform="matrix(0.06234567901234567,0,0,0.06234567901234567,113.40679012345677,0)" xlink:href="#F"/><use transform="matrix(0.06234567901234567,0,0,0.06234567901234567,125.87592592592591,0)" xlink:href="#s"/></g><path fill="#282c33" d="M30-248c87 1 191-15 191 75 0 78-77 80-158 76V0H30v-248zm33 125c57 0 124 11 124-50 0-59-68-47-124-48v98" id="G"/><path fill="#282c33" d="M127-220V0H93v-220H8v-28h204v28h-85" id="H"/><g id="d"><use transform="matrix(0.06234567901234567,0,0,0.06234567901234567,0,0)" xlink:href="#G"/><use transform="matrix(0.06234567901234567,0,0,0.06234567901234567,14.96296296296296,0)" xlink:href="#H"/></g><g id="e"><use transform="matrix(0.06234567901234567,0,0,0.06234567901234567,0,0)" xlink:href="#r"/><use transform="matrix(0.06234567901234567,0,0,0.06234567901234567,16.147530864197527,0)" xlink:href="#w"/></g><path fill="#282c33" d="M33 0v-248h34V0H33" id="I"/><path fill="#282c33" d="M140-251c81 0 123 46 123 126C263-46 219 4 140 4 59 4 17-45 17-125s42-126 123-126zm0 227c63 0 89-41 89-101s-29-99-89-99c-61 0-89 39-89 99S79-25 140-24" id="J"/><path fill="#282c33" d="M240 0l2-218c-23 76-54 145-80 218h-23L58-218 59 0H30v-248h44l77 211c21-75 51-140 76-211h43V0h-30" id="K"/><path fill="#282c33" d="M232-93c-1 65-40 97-104 97C67 4 28-28 28-90v-158h33c8 89-33 224 67 224 102 0 64-133 71-224h33v155" id="L"/><g id="f"><use transform="matrix(0.07469135802469135,0,0,0.07469135802469135,0,0)" xlink:href="#I"/><use transform="matrix(0.07469135802469135,0,0,0.07469135802469135,7.469135802469134,0)" xlink:href="#J"/><use transform="matrix(0.07469135802469135,0,0,0.07469135802469135,28.382716049382708,0)" xlink:href="#K"/><use transform="matrix(0.07469135802469135,0,0,0.07469135802469135,50.71543209876541,0)" xlink:href="#K"/><use transform="matrix(0.07469135802469135,0,0,0.07469135802469135,73.04814814814813,0)" xlink:href="#L"/></g><path fill="#282c33" d="M137 0h-34L2-248h35l83 218 83-218h36" id="M"/><g id="g"><use transform="matrix(0.06234567901234567,0,0,0.06234567901234567,0,0)" xlink:href="#M"/><use transform="matrix(0.06234567901234567,0,0,0.06234567901234567,14.96296296296296,0)" xlink:href="#K"/></g><use transform="matrix(0.06234567901234567,0,0,0.06234567901234567,0,0)" xlink:href="#B" id="h"/><path fill="#282c33" d="M101-251c82-7 93 87 43 132L82-64C71-53 59-42 53-27h129V0H18c2-99 128-94 128-182 0-28-16-43-45-43s-46 15-49 41l-32-3c6-41 34-60 81-64" id="N"/><use transform="matrix(0.06234567901234567,0,0,0.06234567901234567,0,0)" xlink:href="#N" id="i"/><path fill="#282c33" d="M210-169c-67 3-38 105-44 169h-31v-121c0-29-5-50-35-48C34-165 62-65 56 0H25l-1-190h30c1 10-1 24 2 32 10-44 99-50 107 0 11-21 27-35 58-36 85-2 47 119 55 194h-31v-121c0-29-5-49-35-48" id="O"/><path fill="#282c33" d="M114-163C36-179 61-72 57 0H25l-1-190h30c1 12-1 29 2 39 6-27 23-49 58-41v29" id="P"/><path fill="#282c33" d="M179-190L93 31C79 59 56 82 12 73V49c39 6 53-20 64-50L1-190h34L92-34l54-156h33" id="Q"/><g id="j"><use transform="matrix(0.06234567901234567,0,0,0.06234567901234567,0,0)" xlink:href="#O"/><use transform="matrix(0.06234567901234567,0,0,0.06234567901234567,18.641358024691353,0)" xlink:href="#s"/><use transform="matrix(0.06234567901234567,0,0,0.06234567901234567,31.110493827160486,0)" xlink:href="#O"/><use transform="matrix(0.06234567901234567,0,0,0.06234567901234567,49.75185185185184,0)" xlink:href="#y"/><use transform="matrix(0.06234567901234567,0,0,0.06234567901234567,62.22098765432097,0)" xlink:href="#P"/><use transform="matrix(0.06234567901234567,0,0,0.06234567901234567,69.6401234567901,0)" xlink:href="#Q"/></g><use transform="matrix(0.06234567901234567,0,0,0.06234567901234567,0,0)" xlink:href="#w" id="k"/><g id="l"><use transform="matrix(0.06234567901234567,0,0,0.06234567901234567,0,0)" xlink:href="#r"/><use transform="matrix(0.06234567901234567,0,0,0.06234567901234567,16.147530864197527,0)" xlink:href="#N"/></g><g id="m"><use transform="matrix(0.06234567901234567,0,0,0.06234567901234567,0,0)" xlink:href="#r"/><use transform="matrix(0.06234567901234567,0,0,0.06234567901234567,16.147530864197527,0)" xlink:href="#N"/></g><path fill="#282c33" d="M197 0v-115H63V0H30v-248h33v105h134v-105h34V0h-34" id="R"/><path fill="#282c33" d="M115-194c55 1 70 41 70 98S169 2 115 4C84 4 66-9 55-30l1 105H24l-1-265h31l2 30c10-21 28-34 59-34zm-8 174c40 0 45-34 45-75s-6-73-45-74c-42 0-51 32-51 76 0 43 10 73 51 73" id="S"/><g id="n"><use transform="matrix(0.06234567901234567,0,0,0.06234567901234567,0,0)" xlink:href="#R"/><use transform="matrix(0.06234567901234567,0,0,0.06234567901234567,16.147530864197527,0)" xlink:href="#Q"/><use transform="matrix(0.06234567901234567,0,0,0.06234567901234567,27.36975308641975,0)" xlink:href="#S"/><use transform="matrix(0.06234567901234567,0,0,0.06234567901234567,39.83888888888888,0)" xlink:href="#s"/><use transform="matrix(0.06234567901234567,0,0,0.06234567901234567,52.308024691358014,0)" xlink:href="#P"/><use transform="matrix(0.06234567901234567,0,0,0.06234567901234567,59.72716049382715,0)" xlink:href="#t"/><use transform="matrix(0.06234567901234567,0,0,0.06234567901234567,70.94938271604937,0)" xlink:href="#u"/><use transform="matrix(0.06234567901234567,0,0,0.06234567901234567,75.87469135802468,0)" xlink:href="#C"/><use transform="matrix(0.06234567901234567,0,0,0.06234567901234567,87.09691358024689,0)" xlink:href="#y"/><use transform="matrix(0.06234567901234567,0,0,0.06234567901234567,99.56604938271602,0)" xlink:href="#P"/></g><path fill="#282c33" d="M126-127c33 6 58 20 58 59 0 88-139 92-164 29-3-8-5-16-6-25l32-3c6 27 21 44 54 44 32 0 52-15 52-46 0-38-36-46-79-43v-28c39 1 72-4 72-42 0-27-17-43-46-43-28 0-47 15-49 41l-32-3c6-42 35-63 81-64 48-1 79 21 79 65 0 36-21 52-52 59" id="T"/><g id="o"><use transform="matrix(0.06234567901234567,0,0,0.06234567901234567,0,0)" xlink:href="#r"/><use transform="matrix(0.06234567901234567,0,0,0.06234567901234567,16.147530864197527,0)" xlink:href="#T"/></g><path fill="#282c33" d="M63-220v92h138v28H63V0H30v-248h175v28H63" id="U"/><g id="p"><use transform="matrix(0.06234567901234567,0,0,0.06234567901234567,0,0)" xlink:href="#U"/><use transform="matrix(0.06234567901234567,0,0,0.06234567901234567,13.653703703703702,0)" xlink:href="#u"/><use transform="matrix(0.06234567901234567,0,0,0.06234567901234567,18.57901234567901,0)" xlink:href="#P"/><use transform="matrix(0.06234567901234567,0,0,0.06234567901234567,25.998148148148147,0)" xlink:href="#C"/><use transform="matrix(0.06234567901234567,0,0,0.06234567901234567,37.22037037037037,0)" xlink:href="#D"/><use transform="matrix(0.06234567901234567,0,0,0.06234567901234567,43.45493827160493,0)" xlink:href="#B"/><use transform="matrix(0.06234567901234567,0,0,0.06234567901234567,50.874074074074066,0)" xlink:href="#C"/><use transform="matrix(0.06234567901234567,0,0,0.06234567901234567,62.09629629629629,0)" xlink:href="#D"/><use transform="matrix(0.06234567901234567,0,0,0.06234567901234567,68.33086419753086,0)" xlink:href="#E"/><use transform="matrix(0.06234567901234567,0,0,0.06234567901234567,80.79999999999998,0)" xlink:href="#F"/><use transform="matrix(0.06234567901234567,0,0,0.06234567901234567,93.26913580246912,0)" xlink:href="#s"/></g><g id="q"><use transform="matrix(0.06234567901234567,0,0,0.06234567901234567,0,0)" xlink:href="#r"/><use transform="matrix(0.06234567901234567,0,0,0.06234567901234567,16.147530864197527,0)" xlink:href="#T"/></g></defs></g></svg>
