<svg xmlns="http://www.w3.org/2000/svg" xmlns:xlink="http://www.w3.org/1999/xlink" xmlns:lucid="lucid" width="1071" height="486.23"><g transform="translate(-3719 -19.000000000000057)" lucid:page-tab-id="uAxj0TO~3.Aj"><path d="M4000 173.35h220V348.9h-220z" stroke="#000" stroke-width="2" fill="#fff"/><use xlink:href="#a" transform="matrix(1,0,0,1,4012,185.34583333333185) translate(67.07499999999999 14.4)"/><path d="M3720 230.88h140v62.47h-140z" stroke="#000" stroke-width="2" fill="#fff"/><use xlink:href="#b" transform="matrix(1,0,0,1,3732,242.8791666666651) translate(30.549999999999997 24.15)"/><path d="M4040 230.88h140v62.47h-140z" stroke="#000" stroke-width="2" fill="#fff"/><use xlink:href="#c" transform="matrix(1,0,0,1,4052,242.8791666666651) translate(28.049999999999997 24.15)"/><use xlink:href="#d" transform="matrix(1,0,0,1,4052,242.8791666666651) translate(65 24.15)"/><path d="M3899.72 263.1H3862v-1.96h37.72zm120.78 0h-72.22v-1.96h72.22z" stroke="#282c33" stroke-width=".05" fill="#282c33"/><path d="M3862.03 263.1H3861v-1.96h1.03z" fill="#282c33"/><path stroke="#282c33" stroke-width=".05" fill="#282c33"/><path d="M4035.76 262.1l-14.26 4.65v-9.27z" fill="#282c33"/><path d="M4038.92 262.1l-18.4 6v-11.97zm-16.45 3.3l10.14-3.3-10.13-3.28z" stroke="#282c33" stroke-width=".05" fill="#282c33"/><use xlink:href="#e" transform="matrix(1,0,0,1,3899.7251409318756,229.71249999999847) translate(8.304999999999996 14.4)"/><use xlink:href="#f" transform="matrix(1,0,0,1,3899.7251409318756,229.71249999999847) translate(3.5299999999999976 36)"/><use xlink:href="#g" transform="matrix(1,0,0,1,3899.7251409318756,229.71249999999847) translate(0.004999999999999005 57.6)"/><path d="M4340 174.33h140V349.9h-140z" stroke="#000" stroke-width="2" fill="#fff"/><use xlink:href="#h" transform="matrix(1,0,0,1,4352,186.32916666665912) translate(20.049999999999997 14.4)"/><use xlink:href="#i" transform="matrix(1,0,0,1,4352,186.32916666665912) translate(44.05 14.4)"/><path d="M4569 20h220v484.23h-220z" stroke="#000" stroke-width="2" fill="#fff"/><use xlink:href="#j" transform="matrix(1,0,0,1,4581,32.00000000000006) translate(73.05 14.4)"/><path d="M4599 69.46h160v54.77h-160z" stroke="#000" stroke-width="2" fill="#fff"/><use xlink:href="#k" transform="matrix(1,0,0,1,4611,81.45833333333013) translate(7.174999999999997 18.275)"/><use xlink:href="#l" transform="matrix(1,0,0,1,4611,81.45833333333013) translate(69.975 18.275)"/><use xlink:href="#m" transform="matrix(1,0,0,1,4611,81.45833333333013) translate(99.97500000000001 18.275)"/><path d="M4599 141.9h160v54.77h-160z" stroke="#000" stroke-width="2" fill="#fff"/><use xlink:href="#n" transform="matrix(1,0,0,1,4611,153.90519484661462) translate(8.650000000000006 18.275)"/><use xlink:href="#l" transform="matrix(1,0,0,1,4611,153.90519484661462) translate(68.5 18.275)"/><use xlink:href="#m" transform="matrix(1,0,0,1,4611,153.90519484661462) translate(98.5 18.275)"/><path d="M4599 210.56h160v54.76h-160z" stroke="#000" stroke-width="2" fill="#fff"/><use xlink:href="#o" transform="matrix(1,0,0,1,4611,222.55833333334218) translate(4.575000000000003 18.275)"/><use xlink:href="#l" transform="matrix(1,0,0,1,4611,222.55833333334218) translate(57.575 18.275)"/><use xlink:href="#p" transform="matrix(1,0,0,1,4611,222.55833333334218) translate(87.575 18.275)"/><use xlink:href="#q" transform="matrix(1,0,0,1,4611,222.55833333334218) translate(121.425 18.275)"/><path d="M4599 279.2h160V334h-160z" stroke="#000" stroke-width="2" fill="#fff"/><use xlink:href="#o" transform="matrix(1,0,0,1,4611,291.21147182006973) translate(4.575000000000003 18.275)"/><use xlink:href="#l" transform="matrix(1,0,0,1,4611,291.21147182006973) translate(57.575 18.275)"/><use xlink:href="#p" transform="matrix(1,0,0,1,4611,291.21147182006973) translate(87.575 18.275)"/><use xlink:href="#r" transform="matrix(1,0,0,1,4611,291.21147182006973) translate(121.425 18.275)"/><path d="M4599 424.23h160V479h-160z" stroke="#000" stroke-width="2" fill="#fff"/><g><use xlink:href="#o" transform="matrix(1,0,0,1,4611,436.22499999999684) translate(3.1000000000000085 18.275)"/><use xlink:href="#l" transform="matrix(1,0,0,1,4611,436.22499999999684) translate(56.10000000000001 18.275)"/><use xlink:href="#p" transform="matrix(1,0,0,1,4611,436.22499999999684) translate(86.10000000000001 18.275)"/><use xlink:href="#s" transform="matrix(1,0,0,1,4611,436.22499999999684) translate(119.95 18.275)"/></g><path d="M4678.9 347.05c0 .55-.46 1-1 1-.56 0-1-.45-1-1 0-.56.44-1 1-1 .54 0 1 .44 1 1zm.03 7.8c0 .56-.45 1-1 1s-1-.44-1-1c0-.54.45-1 1-1s1 .46 1 1zm.05 7.82c0 .56-.45 1-1 1-.56 0-1-.44-1-1 0-.55.44-1 1-1 .55 0 1 .45 1 1zm.04 7.82c0 .54-.45 1-1 1s-1-.46-1-1c0-.56.45-1 1-1s1 .44 1 1zm.04 7.8c0 .56-.44 1-1 1-.55 0-1-.44-1-1 0-.55.45-1 1-1 .56 0 1 .45 1 1zm.05 7.82c0 .55-.44 1-1 1-.55 0-1-.45-1-1s.45-1 1-1c.56 0 1 .45 1 1zm.05 7.8c0 .57-.45 1-1 1s-1-.43-1-1c0-.54.45-1 1-1s1 .46 1 1zm.04 7.83c0 .55-.45 1-1 1-.56 0-1-.45-1-1s.44-1 1-1c.55 0 1 .45 1 1zm.04 7.8c0 .57-.45 1-1 1s-1-.43-1-1c0-.54.45-1 1-1s1 .46 1 1z" fill="#282c33"/><path d="M4677.9 347.07l-.02-1.02M4678.24 409.54v1.02" stroke="#282c33" stroke-width="2" fill="none"/><path d="M4247.1 263.1H4182v-1.96h65.1zm73.4 0h-26.85v-1.96h26.85z" stroke="#282c33" stroke-width=".05" fill="#282c33"/><path d="M4182.03 263.1H4181v-1.96h1.03z" fill="#282c33"/><path stroke="#282c33" stroke-width=".05" fill="#282c33"/><path d="M4335.76 262.1l-14.26 4.65v-9.27z" fill="#282c33"/><path d="M4338.92 262.1l-18.4 6v-11.97zm-16.45 3.3l10.14-3.3-10.13-3.28z" stroke="#282c33" stroke-width=".05" fill="#282c33"/><g><use xlink:href="#e" transform="matrix(1,0,0,1,4247.095510340721,229.71249999999847) translate(7.304999999999996 14.4)"/><use xlink:href="#f" transform="matrix(1,0,0,1,4247.095510340721,229.71249999999847) translate(2.5299999999999976 36)"/><use xlink:href="#t" transform="matrix(1,0,0,1,4247.095510340721,229.71249999999847) translate(0.004999999999999005 57.6)"/></g><path d="M4482 262.1h67.5" stroke="#282c33" stroke-width="2" fill="none"/><path d="M4482.03 263.1H4481v-1.96h1.03z" stroke="#282c33" stroke-width=".05" fill="#282c33"/><path d="M4564.76 262.1l-14.26 4.65v-9.27z" stroke="#282c33" stroke-width="2" fill="#282c33"/><defs><path fill="#282c33" d="M33 0v-248h34V0H33" id="u"/><path fill="#282c33" d="M140-251c81 0 123 46 123 126C263-46 219 4 140 4 59 4 17-45 17-125s42-126 123-126zm0 227c63 0 89-41 89-101s-29-99-89-99c-61 0-89 39-89 99S79-25 140-24" id="v"/><path fill="#282c33" d="M240 0l2-218c-23 76-54 145-80 218h-23L58-218 59 0H30v-248h44l77 211c21-75 51-140 76-211h43V0h-30" id="w"/><path fill="#282c33" d="M232-93c-1 65-40 97-104 97C67 4 28-28 28-90v-158h33c8 89-33 224 67 224 102 0 64-133 71-224h33v155" id="x"/><g id="a"><use transform="matrix(0.05,0,0,0.05,0,0)" xlink:href="#u"/><use transform="matrix(0.05,0,0,0.05,5,0)" xlink:href="#v"/><use transform="matrix(0.05,0,0,0.05,19,0)" xlink:href="#w"/><use transform="matrix(0.05,0,0,0.05,33.95,0)" xlink:href="#w"/><use transform="matrix(0.05,0,0,0.05,48.900000000000006,0)" xlink:href="#x"/></g><path fill="#282c33" d="M30-248c118-7 216 8 213 122C240-48 200 0 122 0H30v-248zM63-27c89 8 146-16 146-99s-60-101-146-95v194" id="y"/><path fill="#282c33" d="M100-194c63 0 86 42 84 106H49c0 40 14 67 53 68 26 1 43-12 49-29l28 8c-11 28-37 45-77 45C44 4 14-33 15-96c1-61 26-98 85-98zm52 81c6-60-76-77-97-28-3 7-6 17-6 28h103" id="z"/><path fill="#282c33" d="M108 0H70L1-190h34L89-25l56-165h34" id="A"/><path fill="#282c33" d="M24-231v-30h32v30H24zM24 0v-190h32V0H24" id="B"/><path fill="#282c33" d="M96-169c-40 0-48 33-48 73s9 75 48 75c24 0 41-14 43-38l32 2c-6 37-31 61-74 61-59 0-76-41-82-99-10-93 101-131 147-64 4 7 5 14 7 22l-32 3c-4-21-16-35-41-35" id="C"/><g id="b"><use transform="matrix(0.05,0,0,0.05,0,0)" xlink:href="#y"/><use transform="matrix(0.05,0,0,0.05,12.950000000000001,0)" xlink:href="#z"/><use transform="matrix(0.05,0,0,0.05,22.950000000000003,0)" xlink:href="#A"/><use transform="matrix(0.05,0,0,0.05,31.950000000000003,0)" xlink:href="#B"/><use transform="matrix(0.05,0,0,0.05,35.900000000000006,0)" xlink:href="#C"/><use transform="matrix(0.05,0,0,0.05,44.900000000000006,0)" xlink:href="#z"/></g><path fill="#282c33" d="M185-189c-5-48-123-54-124 2 14 75 158 14 163 119 3 78-121 87-175 55-17-10-28-26-33-46l33-7c5 56 141 63 141-1 0-78-155-14-162-118-5-82 145-84 179-34 5 7 8 16 11 25" id="D"/><g id="c"><use transform="matrix(0.05,0,0,0.05,0,0)" xlink:href="#w"/><use transform="matrix(0.05,0,0,0.05,14.950000000000001,0)" xlink:href="#D"/><use transform="matrix(0.05,0,0,0.05,26.950000000000003,0)" xlink:href="#u"/></g><path fill="#282c33" d="M30-248c87 1 191-15 191 75 0 78-77 80-158 76V0H30v-248zm33 125c57 0 124 11 124-50 0-59-68-47-124-48v98" id="E"/><path fill="#282c33" d="M127-220V0H93v-220H8v-28h204v28h-85" id="F"/><g id="d"><use transform="matrix(0.05,0,0,0.05,0,0)" xlink:href="#E"/><use transform="matrix(0.05,0,0,0.05,12,0)" xlink:href="#F"/></g><g id="e"><use transform="matrix(0.05,0,0,0.05,0,0)" xlink:href="#w"/><use transform="matrix(0.05,0,0,0.05,14.950000000000001,0)" xlink:href="#D"/><use transform="matrix(0.05,0,0,0.05,26.950000000000003,0)" xlink:href="#u"/></g><path fill="#282c33" d="M266 0h-40l-56-210L115 0H75L2-248h35L96-30l15-64 43-154h32l59 218 59-218h35" id="G"/><path fill="#282c33" d="M114-163C36-179 61-72 57 0H25l-1-190h30c1 12-1 29 2 39 6-27 23-49 58-41v29" id="H"/><path fill="#282c33" d="M59-47c-2 24 18 29 38 22v24C64 9 27 4 27-40v-127H5v-23h24l9-43h21v43h35v23H59v120" id="I"/><g id="f"><use transform="matrix(0.05,0,0,0.05,0,0)" xlink:href="#G"/><use transform="matrix(0.05,0,0,0.05,16.599999999999998,0)" xlink:href="#H"/><use transform="matrix(0.05,0,0,0.05,22.549999999999997,0)" xlink:href="#B"/><use transform="matrix(0.05,0,0,0.05,26.499999999999996,0)" xlink:href="#I"/><use transform="matrix(0.05,0,0,0.05,31.499999999999996,0)" xlink:href="#z"/></g><path fill="#282c33" d="M87 75C49 33 22-17 22-94c0-76 28-126 65-167h31c-38 41-64 92-64 168S80 34 118 75H87" id="J"/><path fill="#282c33" d="M143 4C61 4 22-44 18-125c-5-107 100-154 193-111 17 8 29 25 37 43l-32 9c-13-25-37-40-76-40-61 0-88 39-88 99 0 61 29 100 91 101 35 0 62-11 79-27v-45h-74v-28h105v86C228-13 192 4 143 4" id="K"/><path fill="#282c33" d="M205 0l-28-72H64L36 0H1l101-248h38L239 0h-34zm-38-99l-47-123c-12 45-31 82-46 123h93" id="L"/><path fill="#282c33" d="M33-261c38 41 65 92 65 168S71 34 33 75H2C39 34 66-17 66-93S39-220 2-261h31" id="M"/><g id="g"><use transform="matrix(0.05,0,0,0.05,0,0)" xlink:href="#J"/><use transform="matrix(0.05,0,0,0.05,5.95,0)" xlink:href="#K"/><use transform="matrix(0.05,0,0,0.05,19.95,0)" xlink:href="#E"/><use transform="matrix(0.05,0,0,0.05,30.599999999999994,0)" xlink:href="#L"/><use transform="matrix(0.05,0,0,0.05,42.599999999999994,0)" xlink:href="#M"/></g><g id="h"><use transform="matrix(0.05,0,0,0.05,0,0)" xlink:href="#u"/><use transform="matrix(0.05,0,0,0.05,5,0)" xlink:href="#v"/></g><path fill="#282c33" d="M160-131c35 5 61 23 61 61C221 17 115-2 30 0v-248c76 3 177-17 177 60 0 33-19 50-47 57zm-97-11c50-1 110 9 110-42 0-47-63-36-110-37v79zm0 115c55-2 124 14 124-45 0-56-70-42-124-44v89" id="N"/><path fill="#282c33" d="M85-194c31 0 48 13 60 33l-1-100h32l1 261h-30c-2-10 0-23-3-31C134-8 116 4 85 4 32 4 16-35 15-94c0-66 23-100 70-100zm9 24c-40 0-46 34-46 75 0 40 6 74 45 74 42 0 51-32 51-76 0-42-9-74-50-73" id="O"/><path fill="#282c33" d="M177-190C167-65 218 103 67 71c-23-6-38-20-44-43l32-5c15 47 100 32 89-28v-30C133-14 115 1 83 1 29 1 15-40 15-95c0-56 16-97 71-98 29-1 48 16 59 35 1-10 0-23 2-32h30zM94-22c36 0 50-32 50-73 0-42-14-75-50-75-39 0-46 34-46 75s6 73 46 73" id="P"/><g id="i"><use transform="matrix(0.05,0,0,0.05,0,0)" xlink:href="#N"/><use transform="matrix(0.05,0,0,0.05,12,0)" xlink:href="#H"/><use transform="matrix(0.05,0,0,0.05,17.95,0)" xlink:href="#B"/><use transform="matrix(0.05,0,0,0.05,21.9,0)" xlink:href="#O"/><use transform="matrix(0.05,0,0,0.05,31.899999999999995,0)" xlink:href="#P"/><use transform="matrix(0.05,0,0,0.05,41.9,0)" xlink:href="#z"/></g><path fill="#282c33" d="M212-179c-10-28-35-45-73-45-59 0-87 40-87 99 0 60 29 101 89 101 43 0 62-24 78-52l27 14C228-24 195 4 139 4 59 4 22-46 18-125c-6-104 99-153 187-111 19 9 31 26 39 46" id="Q"/><g id="j"><use transform="matrix(0.05,0,0,0.05,0,0)" xlink:href="#u"/><use transform="matrix(0.05,0,0,0.05,5,0)" xlink:href="#w"/><use transform="matrix(0.05,0,0,0.05,19.950000000000003,0)" xlink:href="#D"/><use transform="matrix(0.05,0,0,0.05,31.950000000000003,0)" xlink:href="#u"/><use transform="matrix(0.05,0,0,0.05,36.95,0)" xlink:href="#Q"/></g><path fill="#282c33" d="M16-82v-28h88v28H16" id="R"/><path fill="#282c33" d="M24 0v-261h32V0H24" id="S"/><g id="k"><use transform="matrix(0.05,0,0,0.05,0,0)" xlink:href="#w"/><use transform="matrix(0.05,0,0,0.05,14.950000000000001,0)" xlink:href="#R"/><use transform="matrix(0.05,0,0,0.05,20.900000000000002,0)" xlink:href="#S"/><use transform="matrix(0.05,0,0,0.05,24.85,0)" xlink:href="#z"/><use transform="matrix(0.05,0,0,0.05,34.85,0)" xlink:href="#A"/><use transform="matrix(0.05,0,0,0.05,43.85,0)" xlink:href="#z"/><use transform="matrix(0.05,0,0,0.05,53.85,0)" xlink:href="#S"/></g><path fill="#282c33" d="M117-194c89-4 53 116 60 194h-32v-121c0-31-8-49-39-48C34-167 62-67 57 0H25l-1-190h30c1 10-1 24 2 32 11-22 29-35 61-36" id="T"/><path fill="#282c33" d="M33 0v-38h34V0H33" id="U"/><g id="l"><use transform="matrix(0.05,0,0,0.05,0,0)" xlink:href="#u"/><use transform="matrix(0.05,0,0,0.05,5,0)" xlink:href="#T"/><use transform="matrix(0.05,0,0,0.05,15,0)" xlink:href="#I"/><use transform="matrix(0.05,0,0,0.05,20,0)" xlink:href="#U"/></g><path fill="#282c33" d="M63-220v92h138v28H63V0H30v-248h175v28H63" id="V"/><g id="m"><use transform="matrix(0.05,0,0,0.05,0,0)" xlink:href="#V"/><use transform="matrix(0.05,0,0,0.05,10.950000000000001,0)" xlink:href="#B"/><use transform="matrix(0.05,0,0,0.05,14.9,0)" xlink:href="#S"/><use transform="matrix(0.05,0,0,0.05,18.85,0)" xlink:href="#z"/></g><g id="n"><use transform="matrix(0.05,0,0,0.05,0,0)" xlink:href="#D"/><use transform="matrix(0.05,0,0,0.05,12,0)" xlink:href="#R"/><use transform="matrix(0.05,0,0,0.05,17.95,0)" xlink:href="#S"/><use transform="matrix(0.05,0,0,0.05,21.9,0)" xlink:href="#z"/><use transform="matrix(0.05,0,0,0.05,31.899999999999995,0)" xlink:href="#A"/><use transform="matrix(0.05,0,0,0.05,40.9,0)" xlink:href="#z"/><use transform="matrix(0.05,0,0,0.05,50.9,0)" xlink:href="#S"/></g><path fill="#282c33" d="M84 4C-5 8 30-112 23-190h32v120c0 31 7 50 39 49 72-2 45-101 50-169h31l1 190h-30c-1-10 1-25-2-33-11 22-28 36-60 37" id="W"/><path fill="#282c33" d="M135-143c-3-34-86-38-87 0 15 53 115 12 119 90S17 21 10-45l28-5c4 36 97 45 98 0-10-56-113-15-118-90-4-57 82-63 122-42 12 7 21 19 24 35" id="X"/><g id="o"><use transform="matrix(0.05,0,0,0.05,0,0)" xlink:href="#K"/><use transform="matrix(0.05,0,0,0.05,14,0)" xlink:href="#W"/><use transform="matrix(0.05,0,0,0.05,24,0)" xlink:href="#z"/><use transform="matrix(0.05,0,0,0.05,34,0)" xlink:href="#X"/><use transform="matrix(0.05,0,0,0.05,43,0)" xlink:href="#I"/></g><g id="p"><use transform="matrix(0.05,0,0,0.05,0,0)" xlink:href="#V"/><use transform="matrix(0.05,0,0,0.05,10.950000000000001,0)" xlink:href="#B"/><use transform="matrix(0.05,0,0,0.05,14.9,0)" xlink:href="#S"/><use transform="matrix(0.05,0,0,0.05,18.85,0)" xlink:href="#z"/></g><path fill="#282c33" d="M27 0v-27h64v-190l-56 39v-29l58-41h29v221h61V0H27" id="Y"/><use transform="matrix(0.05,0,0,0.05,0,0)" xlink:href="#Y" id="q"/><path fill="#282c33" d="M101-251c82-7 93 87 43 132L82-64C71-53 59-42 53-27h129V0H18c2-99 128-94 128-182 0-28-16-43-45-43s-46 15-49 41l-32-3c6-41 34-60 81-64" id="Z"/><use transform="matrix(0.05,0,0,0.05,0,0)" xlink:href="#Z" id="r"/><path fill="#282c33" d="M190 0L58-211 59 0H30v-248h39L202-35l-2-213h31V0h-41" id="aa"/><use transform="matrix(0.05,0,0,0.05,0,0)" xlink:href="#aa" id="s"/><g id="t"><use transform="matrix(0.05,0,0,0.05,0,0)" xlink:href="#J"/><use transform="matrix(0.05,0,0,0.05,5.95,0)" xlink:href="#D"/><use transform="matrix(0.05,0,0,0.05,17.95,0)" xlink:href="#E"/><use transform="matrix(0.05,0,0,0.05,28.599999999999994,0)" xlink:href="#L"/><use transform="matrix(0.05,0,0,0.05,40.599999999999994,0)" xlink:href="#M"/></g></defs></g></svg>
