<svg xmlns="http://www.w3.org/2000/svg" xmlns:xlink="http://www.w3.org/1999/xlink" xmlns:lucid="lucid" width="1016" height="1116"><g transform="translate(-827 0)" lucid:page-tab-id="0_0"><path d="M0 0h3676.8v1323.2H0z" fill="#fff"/><path d="M925 400h180v174.75H925z" stroke="#000" stroke-width="2" fill="#fff"/><use xlink:href="#a" transform="matrix(1,0,0,1,937,412) translate(40.05 14.4)"/><use xlink:href="#b" transform="matrix(1,0,0,1,937,412) translate(64.05 14.4)"/><path d="M1060 40h160v160h-160z" stroke="#000" stroke-width="2" fill="#fff"/><use xlink:href="#c" transform="matrix(1,0,0,1,1065,45) translate(9.038271604938288 78.89305555555555)"/><use xlink:href="#d" transform="matrix(1,0,0,1,1065,45) translate(91.14753086419753 78.89305555555555)"/><path d="M1060 200h160v40h-160z" stroke="#000" stroke-width="2" fill="#fff"/><use xlink:href="#e" transform="matrix(1,0,0,1,1065,205) translate(33.55 18.15)"/><path d="M860 300h740v60H860z" stroke="#000" stroke-width="2" fill="#fff"/><use xlink:href="#f" transform="matrix(1,0,0,1,865,305) translate(307.6 30.025)"/><use xlink:href="#g" transform="matrix(1,0,0,1,865,305) translate(372.55 30.025)"/><path d="M1140 242v38.5" stroke="#000" stroke-width="2" fill="none"/><path d="M1141 242.03h-2V241h2z" stroke="#000" stroke-width=".05"/><path d="M1140 295.76l-4.64-14.26h9.28z" stroke="#000" stroke-width="2"/><path d="M1372.13 79.77h160v160h-160z" stroke="#000" stroke-width="2" fill="#fff"/><use xlink:href="#h" transform="matrix(1,0,0,1,1377.1290322580646,84.77477477477476) translate(38.57191358024692 67.74027777777778)"/><use xlink:href="#i" transform="matrix(1,0,0,1,1377.1290322580646,84.77477477477476) translate(26.270061728395063 92.00694444444444)"/><path d="M1450.8 298v-38.72" stroke="#000" stroke-width="2" fill="none"/><path d="M1451.8 299h-2v-1.03h2z" stroke="#000" stroke-width=".05"/><path d="M1450.8 244l4.63 14.28h-9.27z" stroke="#000" stroke-width="2"/><path d="M1060 160h160v40h-160z" stroke="#000" stroke-width="2" fill="#fff"/><use xlink:href="#j" transform="matrix(1,0,0,1,1065,165) translate(50.92993827160494 19.927777777777777)"/><path d="M950 869l29-29h42l29 29v42l-29 29h-42l-29-29z" stroke="#000" stroke-width="2" fill-opacity="0"/><use xlink:href="#k" transform="matrix(1,0,0,1,955,845) translate(18.549999999999997 48.15)"/><path d="M900 649.5h205V760H900z" stroke="#000" stroke-width="2" fill="#fff"/><use xlink:href="#l" transform="matrix(1,0,0,1,905,654.5000000000001) translate(97.5 14.4)"/><use xlink:href="#m" transform="matrix(1,0,0,1,905,654.5000000000001) translate(59.55 36)"/><use xlink:href="#n" transform="matrix(1,0,0,1,905,654.5000000000001) translate(102.5 36)"/><use xlink:href="#o" transform="matrix(1,0,0,1,905,654.5000000000001) translate(97.5 57.6)"/><use xlink:href="#p" transform="matrix(1,0,0,1,905,654.5000000000001) translate(49.55 79.20000000000002)"/><use xlink:href="#q" transform="matrix(1,0,0,1,905,654.5000000000001) translate(73.55 79.20000000000002)"/><use xlink:href="#r" transform="matrix(1,0,0,1,905,654.5000000000001) translate(133.45 79.20000000000002)"/><path d="M972 647.5v-53.25" stroke="#000" stroke-width="2" fill="none"/><path d="M973 648.5h-2v-1.03h2z" stroke="#000" stroke-width=".05"/><path d="M972 579l4.64 14.25h-9.28z" stroke="#000" stroke-width="2"/><path d="M1055.68 398v-18.5M1055.68 397.97V399" stroke="#000" stroke-width="2" fill="none"/><path d="M1055.68 364.24l4.64 14.26h-9.27z" stroke="#000" stroke-width="2"/><path d="M979.5 362v19.5" stroke="#000" stroke-width="2" fill="none"/><path d="M980.5 362.03h-2V361h2z" stroke="#000" stroke-width=".05"/><path d="M979.5 396.76l-4.64-14.26h9.28z" stroke="#000" stroke-width="2"/><path d="M910 361v269M910 361.03V360" stroke="#000" stroke-width="2" fill="none"/><path d="M910 645.26L905.36 631h9.28z" stroke="#000" stroke-width="2"/><path d="M1000 778.5v42" stroke="#000" stroke-width="2" fill="none"/><path d="M1000 763.24l4.64 14.26h-9.28zM1000 835.76l-4.64-14.26h9.28z" stroke="#000" stroke-width="2"/><path d="M920 1020h160v80H920z" stroke="#000" stroke-width="2" fill-opacity="0"/><use xlink:href="#s" transform="matrix(1,0,0,1,932,1032) translate(1.5749999999999886 53.71648)"/><use xlink:href="#t" transform="matrix(1,0,0,1,932,1032) translate(79.52499999999999 53.71648)"/><path d="M1140 940h160v80h-160z" stroke="#000" stroke-width="2" fill-opacity="0"/><use xlink:href="#s" transform="matrix(1,0,0,1,1152,952) translate(1.5749999999999886 31.9)"/><use xlink:href="#t" transform="matrix(1,0,0,1,1152,952) translate(79.52499999999999 31.9)"/><path d="M1000 1020h80v41h-80z" stroke="#000" stroke-width="2" fill="#dfe3e8"/><use xlink:href="#u" transform="matrix(1,0,0,1,1005,1024.9999999999995) translate(1.75 20.4)"/><path d="M1000 1000.5v-41" stroke="#000" stroke-width="2" fill="none"/><path d="M1000 1015.76l-4.64-14.26h9.28zM1000 944.24l4.64 14.26h-9.28z" stroke="#000" stroke-width="2"/><path d="M1220 920.5V890h-150.5" stroke="#000" stroke-width="2" fill="none"/><path d="M1220 935.76l-4.64-14.26h9.28zM1054.24 890l14.26-4.64v9.28z" stroke="#000" stroke-width="2"/><path d="M1630 20c16.57 0 30 13.43 30 30v720c0 16.57-13.43 30-30 30H870c-16.57 0-30-13.43-30-30V50c0-16.57 13.43-30 30-30zM1700 20h120v340h-120z" stroke="#000" stroke-width="2" fill-opacity="0"/><use xlink:href="#v" transform="matrix(1,0,0,1,1705,25) translate(21.324382716049385 155.39652777777778)"/><use xlink:href="#w" transform="matrix(1,0,0,1,1705,25) translate(18.57191358024692 179.66319444444443)"/><path d="M1534.13 159.77h146.37" stroke="#000" stroke-width="2" fill="none"/><path d="M1534.15 160.77h-1.02v-2h1.02z" stroke="#000" stroke-width=".05"/><path d="M1695.76 159.77l-14.26 4.64v-9.26z" stroke="#000" stroke-width="2"/><path d="M1124.5 675.88h4.08m8.15 0h8.16m1.1-7.04v-8.16m0-8.15v-8.16m0-8.15v-8.15m0-8.16v-8.14m0-8.16v-8.15m0-8.16v-8.16m0-8.15v-8.17m0-8.15v-8.16m0-8.15v-8.16m0-8.14v-8.15m0-8.15v-4h-4.15m-8.16 0h-8.16m-8.15 0h-8.17m-8.15 0H1097" stroke="#282c33" stroke-width="2" fill="none"/><path d="M1109.24 675.88l14.26-4.64v9.27z" stroke="#282c33" stroke-width="2" fill="#282c33"/><path d="M1097.03 502.75H1096v-2h1.03z" stroke="#282c33" stroke-width=".05" fill="#282c33"/><path d="M1060 539h240v60h-240z" stroke="#000" stroke-opacity="0" stroke-width="2" fill="#fff" fill-opacity="0"/><use xlink:href="#x" transform="matrix(1,0,0,1,1065,544) translate(98.2 30.025)"/><path d="M1107 704.75h3.96m7.9 0h7.92m7.92 0h7.9m7.92 0h7.92m7.9 0h7.92m7.92 0h7.9m7.92 0h2v-5.92m0-7.9V683m0-7.9v-7.92m0-7.92v-7.9m0-7.92v-7.92m0-7.9v-7.92m0-7.92v-7.9m0-7.92v-7.92m0-7.9v-7.92m0-7.92v-7.9m0-7.92v-7.92m0-7.9v-7.92m0-7.92v-7.9m0-7.92v-7.92m0-7.9v-7.92m-2.4-5.5h-7.92m-7.9 0h-7.93m-7.9 0h-7.92m-7.92 0h-7.9m-7.9 0h-7.93m-7.9 0h-3.97" stroke="#282c33" stroke-width="2" fill="none"/><path d="M1107.03 705.75H1106v-2h1.03z" stroke="#282c33" stroke-width=".05" fill="#282c33"/><path d="M1099.24 471.75l14.26-4.64v9.28z" stroke="#282c33" stroke-width="2" fill="#282c33"/><path d="M1000 444.6h95v114.3h-95z" stroke="#000" stroke-width="2" fill="#dfe3e8"/><use xlink:href="#y" transform="matrix(1,0,0,1,1012,456.61432160804) translate(-6.878703703703692 50.43333333333334)"/><path d="M1280 680h120v80h-120z" stroke="#000" stroke-width="2" fill="#fff"/><use xlink:href="#z" transform="matrix(1,0,0,1,1285,685) translate(7.049999999999997 38.4625)"/><use xlink:href="#q" transform="matrix(1,0,0,1,1285,685) translate(31.049999999999997 38.4625)"/><use xlink:href="#A" transform="matrix(1,0,0,1,1285,685) translate(90.95 38.4625)"/><path d="M1464.4 399v-18.5M1464.4 398.97V400" stroke="#000" stroke-width="2" fill="none"/><path d="M1464.4 365.24l4.65 14.26h-9.27z" stroke="#000" stroke-width="2"/><path d="M1391 363v18.5M1391 363.03V362" stroke="#000" stroke-width="2" fill="none"/><path d="M1391 396.76l-4.64-14.26h9.28z" stroke="#000" stroke-width="2"/><path d="M1460 680h120v80h-120z" stroke="#000" stroke-width="2" fill="#fff"/><use xlink:href="#z" transform="matrix(1,0,0,1,1465,685) translate(6.574999999999996 38.4625)"/><use xlink:href="#q" transform="matrix(1,0,0,1,1465,685) translate(30.574999999999996 38.4625)"/><use xlink:href="#B" transform="matrix(1,0,0,1,1465,685) translate(90.475 38.4625)"/><path d="M1330 610.5h190V631h-190z" stroke="#000" stroke-width="2" fill="#fff"/><path d="M1393.5 608.5v-17" stroke="#000" stroke-width="2" fill="none"/><path d="M1394.5 609.5h-2v-1.03h2z" stroke="#000" stroke-width=".05"/><path d="M1393.5 576.24l4.64 14.26h-9.28z" stroke="#000" stroke-width="2"/><path d="M1370.67 678v-27.5" stroke="#000" stroke-width="2" fill="none"/><path d="M1371.67 679h-2v-1.03h2z" stroke="#000" stroke-width=".05"/><path d="M1370.67 635.24l4.63 14.26h-9.27z" stroke="#000" stroke-width="2"/><path d="M1500.16 678v-28" stroke="#000" stroke-width="2" fill="none"/><path d="M1501.16 679h-2v-1.03h2z" stroke="#000" stroke-width=".05"/><path d="M1500.16 634.75l4.63 14.26h-9.28z" stroke="#000" stroke-width="2"/><path d="M1340 397.25h180V572h-180z" stroke="#000" stroke-width="2" fill="#fff"/><g><use xlink:href="#a" transform="matrix(1,0,0,1,1352,409.2500000000002) translate(40.05 14.4)"/><use xlink:href="#b" transform="matrix(1,0,0,1,1352,409.2500000000002) translate(64.05 14.4)"/></g><path d="M1420 441.86h90v114.28h-90z" stroke="#000" stroke-width="2" fill="#dfe3e8"/><g><use xlink:href="#y" transform="matrix(1,0,0,1,1432,453.86432160804014) translate(-9.378703703703692 50.43333333333334)"/></g><path d="M1298.45 364v296.5M1298.45 364.03V363" stroke="#000" stroke-width="2" fill="none"/><path d="M1298.45 675.76l-4.64-14.26h9.28z" stroke="#000" stroke-width="2"/><path d="M1558.58 364v296.5M1558.58 364.03V363" stroke="#000" stroke-width="2" fill="none"/><path d="M1558.58 675.76l-4.63-14.26h9.27z" stroke="#000" stroke-width="2"/><defs><path fill="#282c33" d="M33 0v-248h34V0H33" id="C"/><path fill="#282c33" d="M140-251c81 0 123 46 123 126C263-46 219 4 140 4 59 4 17-45 17-125s42-126 123-126zm0 227c63 0 89-41 89-101s-29-99-89-99c-61 0-89 39-89 99S79-25 140-24" id="D"/><g id="a"><use transform="matrix(0.05,0,0,0.05,0,0)" xlink:href="#C"/><use transform="matrix(0.05,0,0,0.05,5,0)" xlink:href="#D"/></g><path fill="#282c33" d="M160-131c35 5 61 23 61 61C221 17 115-2 30 0v-248c76 3 177-17 177 60 0 33-19 50-47 57zm-97-11c50-1 110 9 110-42 0-47-63-36-110-37v79zm0 115c55-2 124 14 124-45 0-56-70-42-124-44v89" id="E"/><path fill="#282c33" d="M114-163C36-179 61-72 57 0H25l-1-190h30c1 12-1 29 2 39 6-27 23-49 58-41v29" id="F"/><path fill="#282c33" d="M24-231v-30h32v30H24zM24 0v-190h32V0H24" id="G"/><path fill="#282c33" d="M85-194c31 0 48 13 60 33l-1-100h32l1 261h-30c-2-10 0-23-3-31C134-8 116 4 85 4 32 4 16-35 15-94c0-66 23-100 70-100zm9 24c-40 0-46 34-46 75 0 40 6 74 45 74 42 0 51-32 51-76 0-42-9-74-50-73" id="H"/><path fill="#282c33" d="M177-190C167-65 218 103 67 71c-23-6-38-20-44-43l32-5c15 47 100 32 89-28v-30C133-14 115 1 83 1 29 1 15-40 15-95c0-56 16-97 71-98 29-1 48 16 59 35 1-10 0-23 2-32h30zM94-22c36 0 50-32 50-73 0-42-14-75-50-75-39 0-46 34-46 75s6 73 46 73" id="I"/><path fill="#282c33" d="M100-194c63 0 86 42 84 106H49c0 40 14 67 53 68 26 1 43-12 49-29l28 8c-11 28-37 45-77 45C44 4 14-33 15-96c1-61 26-98 85-98zm52 81c6-60-76-77-97-28-3 7-6 17-6 28h103" id="J"/><g id="b"><use transform="matrix(0.05,0,0,0.05,0,0)" xlink:href="#E"/><use transform="matrix(0.05,0,0,0.05,12,0)" xlink:href="#F"/><use transform="matrix(0.05,0,0,0.05,17.95,0)" xlink:href="#G"/><use transform="matrix(0.05,0,0,0.05,21.9,0)" xlink:href="#H"/><use transform="matrix(0.05,0,0,0.05,31.899999999999995,0)" xlink:href="#I"/><use transform="matrix(0.05,0,0,0.05,41.9,0)" xlink:href="#J"/></g><path d="M233-177c-1 41-23 64-60 70L243 0h-38l-65-103H63V0H30v-248c88 3 205-21 203 71zM63-129c60-2 137 13 137-47 0-61-80-42-137-45v92" id="K"/><path d="M33 0v-248h34V0H33" id="L"/><path d="M185-189c-5-48-123-54-124 2 14 75 158 14 163 119 3 78-121 87-175 55-17-10-28-26-33-46l33-7c5 56 141 63 141-1 0-78-155-14-162-118-5-82 145-84 179-34 5 7 8 16 11 25" id="M"/><path d="M212-179c-10-28-35-45-73-45-59 0-87 40-87 99 0 60 29 101 89 101 43 0 62-24 78-52l27 14C228-24 195 4 139 4 59 4 22-46 18-125c-6-104 99-153 187-111 19 9 31 26 39 46" id="N"/><path d="M16-82v-28h88v28H16" id="O"/><path d="M137 0h-34L2-248h35l83 218 83-218h36" id="P"/><g id="c"><use transform="matrix(0.06234567901234567,0,0,0.06234567901234567,0,0)" xlink:href="#K"/><use transform="matrix(0.06234567901234567,0,0,0.06234567901234567,16.147530864197527,0)" xlink:href="#L"/><use transform="matrix(0.06234567901234567,0,0,0.06234567901234567,22.382098765432094,0)" xlink:href="#M"/><use transform="matrix(0.06234567901234567,0,0,0.06234567901234567,37.34506172839505,0)" xlink:href="#N"/><use transform="matrix(0.06234567901234567,0,0,0.06234567901234567,53.49259259259258,0)" xlink:href="#O"/><use transform="matrix(0.06234567901234567,0,0,0.06234567901234567,60.911728395061715,0)" xlink:href="#P"/></g><path d="M106-169C34-169 62-67 57 0H25v-261h32l-1 103c12-21 28-36 61-36 89 0 53 116 60 194h-32v-121c2-32-8-49-39-48" id="Q"/><path d="M141-36C126-15 110 5 73 4 37 3 15-17 15-53c-1-64 63-63 125-63 3-35-9-54-41-54-24 1-41 7-42 31l-33-3c5-37 33-52 76-52 45 0 72 20 72 64v82c-1 20 7 32 28 27v20c-31 9-61-2-59-35zM48-53c0 20 12 33 32 33 41-3 63-29 60-74-43 2-92-5-92 41" id="R"/><path d="M114-163C36-179 61-72 57 0H25l-1-190h30c1 12-1 29 2 39 6-27 23-49 58-41v29" id="S"/><path d="M59-47c-2 24 18 29 38 22v24C64 9 27 4 27-40v-127H5v-23h24l9-43h21v43h35v23H59v120" id="T"/><path d="M135-143c-3-34-86-38-87 0 15 53 115 12 119 90S17 21 10-45l28-5c4 36 97 45 98 0-10-56-113-15-118-90-4-57 82-63 122-42 12 7 21 19 24 35" id="U"/><g id="d"><use transform="matrix(0.06234567901234567,0,0,0.06234567901234567,0,0)" xlink:href="#Q"/><use transform="matrix(0.06234567901234567,0,0,0.06234567901234567,12.469135802469133,0)" xlink:href="#R"/><use transform="matrix(0.06234567901234567,0,0,0.06234567901234567,24.938271604938265,0)" xlink:href="#S"/><use transform="matrix(0.06234567901234567,0,0,0.06234567901234567,32.3574074074074,0)" xlink:href="#T"/><use transform="matrix(0.06234567901234567,0,0,0.06234567901234567,38.59197530864196,0)" xlink:href="#U"/></g><path d="M30-248c87 1 191-15 191 75 0 78-77 80-158 76V0H30v-248zm33 125c57 0 124 11 124-50 0-59-68-47-124-48v98" id="V"/><path d="M240 0l2-218c-23 76-54 145-80 218h-23L58-218 59 0H30v-248h44l77 211c21-75 51-140 76-211h43V0h-30" id="W"/><path d="M205 0l-28-72H64L36 0H1l101-248h38L239 0h-34zm-38-99l-47-123c-12 45-31 82-46 123h93" id="X"/><path d="M0 4l72-265h28L28 4H0" id="Y"/><g id="e"><use transform="matrix(0.05,0,0,0.05,0,0)" xlink:href="#V"/><use transform="matrix(0.05,0,0,0.05,12,0)" xlink:href="#W"/><use transform="matrix(0.05,0,0,0.05,26.950000000000003,0)" xlink:href="#X"/><use transform="matrix(0.05,0,0,0.05,38.95,0)" xlink:href="#Y"/><use transform="matrix(0.05,0,0,0.05,43.95,0)" xlink:href="#V"/><use transform="matrix(0.05,0,0,0.05,55.95,0)" xlink:href="#W"/><use transform="matrix(0.05,0,0,0.05,70.9,0)" xlink:href="#V"/></g><path d="M179-190L93 31C79 59 56 82 12 73V49c39 6 53-20 64-50L1-190h34L92-34l54-156h33" id="Z"/><path d="M100-194c63 0 86 42 84 106H49c0 40 14 67 53 68 26 1 43-12 49-29l28 8c-11 28-37 45-77 45C44 4 14-33 15-96c1-61 26-98 85-98zm52 81c6-60-76-77-97-28-3 7-6 17-6 28h103" id="aa"/><path d="M210-169c-67 3-38 105-44 169h-31v-121c0-29-5-50-35-48C34-165 62-65 56 0H25l-1-190h30c1 10-1 24 2 32 10-44 99-50 107 0 11-21 27-35 58-36 85-2 47 119 55 194h-31v-121c0-29-5-49-35-48" id="ab"/><g id="f"><use transform="matrix(0.05,0,0,0.05,0,0)" xlink:href="#M"/><use transform="matrix(0.05,0,0,0.05,12,0)" xlink:href="#Z"/><use transform="matrix(0.05,0,0,0.05,21,0)" xlink:href="#U"/><use transform="matrix(0.05,0,0,0.05,30,0)" xlink:href="#T"/><use transform="matrix(0.05,0,0,0.05,35,0)" xlink:href="#aa"/><use transform="matrix(0.05,0,0,0.05,45,0)" xlink:href="#ab"/></g><path d="M63-220v92h138v28H63V0H30v-248h175v28H63" id="ac"/><path d="M115-194c53 0 69 39 70 98 0 66-23 100-70 100C84 3 66-7 56-30L54 0H23l1-261h32v101c10-23 28-34 59-34zm-8 174c40 0 45-34 45-75 0-40-5-75-45-74-42 0-51 32-51 76 0 43 10 73 51 73" id="ad"/><path d="M24-231v-30h32v30H24zM24 0v-190h32V0H24" id="ae"/><path d="M96-169c-40 0-48 33-48 73s9 75 48 75c24 0 41-14 43-38l32 2c-6 37-31 61-74 61-59 0-76-41-82-99-10-93 101-131 147-64 4 7 5 14 7 22l-32 3c-4-21-16-35-41-35" id="af"/><g id="g"><use transform="matrix(0.05,0,0,0.05,0,0)" xlink:href="#ac"/><use transform="matrix(0.05,0,0,0.05,10.950000000000001,0)" xlink:href="#R"/><use transform="matrix(0.05,0,0,0.05,20.950000000000003,0)" xlink:href="#ad"/><use transform="matrix(0.05,0,0,0.05,30.950000000000003,0)" xlink:href="#S"/><use transform="matrix(0.05,0,0,0.05,36.900000000000006,0)" xlink:href="#ae"/><use transform="matrix(0.05,0,0,0.05,40.85000000000001,0)" xlink:href="#af"/></g><path d="M100-194c62-1 85 37 85 99 1 63-27 99-86 99S16-35 15-95c0-66 28-99 85-99zM99-20c44 1 53-31 53-75 0-43-8-75-51-75s-53 32-53 75 10 74 51 75" id="ag"/><g id="h"><use transform="matrix(0.056172839506172835,0,0,0.056172839506172835,0,0)" xlink:href="#W"/><use transform="matrix(0.056172839506172835,0,0,0.056172839506172835,16.795679012345676,0)" xlink:href="#aa"/><use transform="matrix(0.056172839506172835,0,0,0.056172839506172835,28.030246913580243,0)" xlink:href="#ab"/><use transform="matrix(0.056172839506172835,0,0,0.056172839506172835,44.825925925925915,0)" xlink:href="#ag"/><use transform="matrix(0.056172839506172835,0,0,0.056172839506172835,56.060493827160485,0)" xlink:href="#S"/><use transform="matrix(0.056172839506172835,0,0,0.056172839506172835,62.74506172839506,0)" xlink:href="#Z"/></g><path d="M117-194c89-4 53 116 60 194h-32v-121c0-31-8-49-39-48C34-167 62-67 57 0H25l-1-190h30c1 10-1 24 2 32 11-22 29-35 61-36" id="ah"/><path d="M24 0v-261h32V0H24" id="ai"/><g id="i"><use transform="matrix(0.056172839506172835,0,0,0.056172839506172835,0,0)" xlink:href="#N"/><use transform="matrix(0.056172839506172835,0,0,0.056172839506172835,14.548765432098763,0)" xlink:href="#ag"/><use transform="matrix(0.056172839506172835,0,0,0.056172839506172835,25.78333333333333,0)" xlink:href="#ah"/><use transform="matrix(0.056172839506172835,0,0,0.056172839506172835,37.0179012345679,0)" xlink:href="#T"/><use transform="matrix(0.056172839506172835,0,0,0.056172839506172835,42.635185185185186,0)" xlink:href="#S"/><use transform="matrix(0.056172839506172835,0,0,0.056172839506172835,49.31975308641975,0)" xlink:href="#ag"/><use transform="matrix(0.056172839506172835,0,0,0.056172839506172835,60.554320987654314,0)" xlink:href="#ai"/><use transform="matrix(0.056172839506172835,0,0,0.056172839506172835,64.99197530864197,0)" xlink:href="#ai"/><use transform="matrix(0.056172839506172835,0,0,0.056172839506172835,69.42962962962962,0)" xlink:href="#aa"/><use transform="matrix(0.056172839506172835,0,0,0.056172839506172835,80.66419753086419,0)" xlink:href="#S"/><use transform="matrix(0.056172839506172835,0,0,0.056172839506172835,87.34876543209876,0)" xlink:href="#U"/></g><path fill="#282c33" d="M240 0l2-218c-23 76-54 145-80 218h-23L58-218 59 0H30v-248h44l77 211c21-75 51-140 76-211h43V0h-30" id="aj"/><path fill="#282c33" d="M232-93c-1 65-40 97-104 97C67 4 28-28 28-90v-158h33c8 89-33 224 67 224 102 0 64-133 71-224h33v155" id="ak"/><g id="j"><use transform="matrix(0.056172839506172835,0,0,0.056172839506172835,0,0)" xlink:href="#aj"/><use transform="matrix(0.056172839506172835,0,0,0.056172839506172835,16.795679012345676,0)" xlink:href="#aj"/><use transform="matrix(0.056172839506172835,0,0,0.056172839506172835,33.59135802469135,0)" xlink:href="#ak"/></g><path d="M206 0h-36l-40-164L89 0H53L-1-190h32L70-26l43-164h34l41 164 42-164h31" id="al"/><g id="k"><use transform="matrix(0.05,0,0,0.05,0,0)" xlink:href="#M"/><use transform="matrix(0.05,0,0,0.05,12,0)" xlink:href="#al"/><use transform="matrix(0.05,0,0,0.05,24.950000000000003,0)" xlink:href="#ae"/><use transform="matrix(0.05,0,0,0.05,28.900000000000002,0)" xlink:href="#T"/><use transform="matrix(0.05,0,0,0.05,33.900000000000006,0)" xlink:href="#af"/><use transform="matrix(0.05,0,0,0.05,42.900000000000006,0)" xlink:href="#Q"/></g><g id="m"><use transform="matrix(0.05,0,0,0.05,0,0)" xlink:href="#K"/><use transform="matrix(0.05,0,0,0.05,12.950000000000001,0)" xlink:href="#ag"/><use transform="matrix(0.05,0,0,0.05,22.950000000000003,0)" xlink:href="#ag"/><use transform="matrix(0.05,0,0,0.05,32.95,0)" xlink:href="#T"/></g><g id="n"><use transform="matrix(0.05,0,0,0.05,0,0)" xlink:href="#V"/><use transform="matrix(0.05,0,0,0.05,12,0)" xlink:href="#ag"/><use transform="matrix(0.05,0,0,0.05,22,0)" xlink:href="#S"/><use transform="matrix(0.05,0,0,0.05,27.950000000000003,0)" xlink:href="#T"/></g><path d="M140-251c81 0 123 46 123 126C263-46 219 4 140 4 59 4 17-45 17-125s42-126 123-126zm0 227c63 0 89-41 89-101s-29-99-89-99c-61 0-89 39-89 99S79-25 140-24" id="am"/><g id="p"><use transform="matrix(0.05,0,0,0.05,0,0)" xlink:href="#L"/><use transform="matrix(0.05,0,0,0.05,5,0)" xlink:href="#am"/></g><path d="M30-248c118-7 216 8 213 122C240-48 200 0 122 0H30v-248zM63-27c89 8 146-16 146-99s-60-101-146-95v194" id="an"/><path d="M108 0H70L1-190h34L89-25l56-165h34" id="ao"/><g id="q"><use transform="matrix(0.05,0,0,0.05,0,0)" xlink:href="#an"/><use transform="matrix(0.05,0,0,0.05,12.950000000000001,0)" xlink:href="#aa"/><use transform="matrix(0.05,0,0,0.05,22.950000000000003,0)" xlink:href="#ao"/><use transform="matrix(0.05,0,0,0.05,31.950000000000003,0)" xlink:href="#ae"/><use transform="matrix(0.05,0,0,0.05,35.900000000000006,0)" xlink:href="#af"/><use transform="matrix(0.05,0,0,0.05,44.900000000000006,0)" xlink:href="#aa"/></g><use transform="matrix(0.05,0,0,0.05,0,0)" xlink:href="#X" id="r"/><path d="M30 0v-248h187v28H63v79h144v27H63v87h162V0H30" id="ap"/><path d="M85-194c31 0 48 13 60 33l-1-100h32l1 261h-30c-2-10 0-23-3-31C134-8 116 4 85 4 32 4 16-35 15-94c0-66 23-100 70-100zm9 24c-40 0-46 34-46 75 0 40 6 74 45 74 42 0 51-32 51-76 0-42-9-74-50-73" id="aq"/><g id="s"><use transform="matrix(0.05,0,0,0.05,0,0)" xlink:href="#ap"/><use transform="matrix(0.05,0,0,0.05,12,0)" xlink:href="#ah"/><use transform="matrix(0.05,0,0,0.05,22,0)" xlink:href="#aq"/><use transform="matrix(0.05,0,0,0.05,32,0)" xlink:href="#V"/><use transform="matrix(0.05,0,0,0.05,44,0)" xlink:href="#ag"/><use transform="matrix(0.05,0,0,0.05,54,0)" xlink:href="#ae"/><use transform="matrix(0.05,0,0,0.05,57.95,0)" xlink:href="#ah"/><use transform="matrix(0.05,0,0,0.05,67.95,0)" xlink:href="#T"/></g><g id="t"><use transform="matrix(0.05,0,0,0.05,0,0)" xlink:href="#an"/><use transform="matrix(0.05,0,0,0.05,12.950000000000001,0)" xlink:href="#aa"/><use transform="matrix(0.05,0,0,0.05,22.950000000000003,0)" xlink:href="#ao"/><use transform="matrix(0.05,0,0,0.05,31.950000000000003,0)" xlink:href="#ae"/><use transform="matrix(0.05,0,0,0.05,35.900000000000006,0)" xlink:href="#af"/><use transform="matrix(0.05,0,0,0.05,44.900000000000006,0)" xlink:href="#aa"/></g><path d="M127-220V0H93v-220H8v-28h204v28h-85" id="ar"/><g id="u"><use transform="matrix(0.05,0,0,0.05,0,0)" xlink:href="#an"/><use transform="matrix(0.05,0,0,0.05,12.950000000000001,0)" xlink:href="#aa"/><use transform="matrix(0.05,0,0,0.05,22.950000000000003,0)" xlink:href="#ao"/><use transform="matrix(0.05,0,0,0.05,31.950000000000003,0)" xlink:href="#X"/><use transform="matrix(0.05,0,0,0.05,42.6,0)" xlink:href="#ar"/><use transform="matrix(0.05,0,0,0.05,53.550000000000004,0)" xlink:href="#N"/></g><g id="v"><use transform="matrix(0.056172839506172835,0,0,0.056172839506172835,0,0)" xlink:href="#M"/><use transform="matrix(0.056172839506172835,0,0,0.056172839506172835,13.481481481481481,0)" xlink:href="#Z"/><use transform="matrix(0.056172839506172835,0,0,0.056172839506172835,23.59259259259259,0)" xlink:href="#U"/><use transform="matrix(0.056172839506172835,0,0,0.056172839506172835,33.7037037037037,0)" xlink:href="#T"/><use transform="matrix(0.056172839506172835,0,0,0.056172839506172835,39.32098765432099,0)" xlink:href="#aa"/><use transform="matrix(0.056172839506172835,0,0,0.056172839506172835,50.55555555555556,0)" xlink:href="#ab"/></g><g id="w"><use transform="matrix(0.056172839506172835,0,0,0.056172839506172835,0,0)" xlink:href="#W"/><use transform="matrix(0.056172839506172835,0,0,0.056172839506172835,16.795679012345676,0)" xlink:href="#aa"/><use transform="matrix(0.056172839506172835,0,0,0.056172839506172835,28.030246913580243,0)" xlink:href="#ab"/><use transform="matrix(0.056172839506172835,0,0,0.056172839506172835,44.825925925925915,0)" xlink:href="#ag"/><use transform="matrix(0.056172839506172835,0,0,0.056172839506172835,56.060493827160485,0)" xlink:href="#S"/><use transform="matrix(0.056172839506172835,0,0,0.056172839506172835,62.74506172839506,0)" xlink:href="#Z"/></g><path fill="#282c33" d="M205 0l-28-72H64L36 0H1l101-248h38L239 0h-34zm-38-99l-47-123c-12 45-31 82-46 123h93" id="as"/><path fill="#282c33" d="M127-220V0H93v-220H8v-28h204v28h-85" id="at"/><path fill="#282c33" d="M185-189c-5-48-123-54-124 2 14 75 158 14 163 119 3 78-121 87-175 55-17-10-28-26-33-46l33-7c5 56 141 63 141-1 0-78-155-14-162-118-5-82 145-84 179-34 5 7 8 16 11 25" id="au"/><g id="x"><use transform="matrix(0.05,0,0,0.05,0,0)" xlink:href="#as"/><use transform="matrix(0.05,0,0,0.05,10.65,0)" xlink:href="#at"/><use transform="matrix(0.05,0,0,0.05,21.6,0)" xlink:href="#au"/></g><path fill="#282c33" d="M24 0v-248h52V0H24" id="av"/><path fill="#282c33" d="M140-251c80 0 125 45 125 126S219 4 139 4C58 4 15-44 15-125s44-126 125-126zm-1 214c52 0 73-35 73-88 0-50-21-86-72-86-52 0-73 35-73 86s22 88 72 88" id="aw"/><path fill="#282c33" d="M230 0l2-204L168 0h-37L68-204 70 0H24v-248h70l56 185 57-185h69V0h-46" id="ax"/><path fill="#282c33" d="M238-95c0 69-44 99-111 99C63 4 22-25 22-93v-155h51v151c-1 38 19 59 55 60 90 1 49-130 58-211h52v153" id="ay"/><g id="y"><use transform="matrix(0.0685185185185185,0,0,0.0685185185185185,0,0)" xlink:href="#av"/><use transform="matrix(0.0685185185185185,0,0,0.0685185185185185,6.85185185185185,0)" xlink:href="#aw"/><use transform="matrix(0.0685185185185185,0,0,0.0685185185185185,26.037037037037038,0)" xlink:href="#ax"/><use transform="matrix(0.0685185185185185,0,0,0.0685185185185185,46.524074074074065,0)" xlink:href="#ax"/><use transform="matrix(0.0685185185185185,0,0,0.0685185185185185,67.01111111111109,0)" xlink:href="#ay"/></g><g id="z"><use transform="matrix(0.05,0,0,0.05,0,0)" xlink:href="#L"/><use transform="matrix(0.05,0,0,0.05,5,0)" xlink:href="#am"/></g><path d="M160-131c35 5 61 23 61 61C221 17 115-2 30 0v-248c76 3 177-17 177 60 0 33-19 50-47 57zm-97-11c50-1 110 9 110-42 0-47-63-36-110-37v79zm0 115c55-2 124 14 124-45 0-56-70-42-124-44v89" id="az"/><use transform="matrix(0.05,0,0,0.05,0,0)" xlink:href="#az" id="A"/><use transform="matrix(0.05,0,0,0.05,0,0)" xlink:href="#N" id="B"/></defs></g></svg>