<svg xmlns="http://www.w3.org/2000/svg" xmlns:xlink="http://www.w3.org/1999/xlink" xmlns:lucid="lucid" width="2188" height="1259"><g transform="translate(-14 0)" lucid:page-tab-id="uAxj0TO~3.Aj"><path d="M0 0h3676.8v1323.2H0z" fill="#fff"/><path d="M835.85 269.73h553V458h-553z" stroke="#000" stroke-width="2" fill="#fff"/><use xlink:href="#a" transform="matrix(1,0,0,1,847.8499999999999,281.73333333334494) translate(196.60555555555555 88.5423611111111)"/><use xlink:href="#b" transform="matrix(1,0,0,1,847.8499999999999,281.73333333334494) translate(232.4574074074074 88.5423611111111)"/><use xlink:href="#c" transform="matrix(1,0,0,1,847.8499999999999,281.73333333334494) translate(317.45617283950617 88.5423611111111)"/><path d="M1281.15 0c16.57 0 30 13.43 30 30v140c0 16.57-13.43 30-30 30h-348c-16.57 0-30-13.43-30-30V30c0-16.57 13.43-30 30-30z" stroke="#000" stroke-width="6" fill-opacity="0"/><path d="M1690 102.47c16.57 0 30 13.43 30 30v397.26c0 16.57-13.43 30-30 30h-77.15c-16.57 0-30-13.43-30-30V132.47c0-16.57 13.43-30 30-30z" stroke="#000" stroke-width="2" fill-opacity="0"/><path d="M1580 287.07h137.15v79.86H1580z" stroke="#000" stroke-opacity="0" stroke-width="2" fill="#fff" fill-opacity="0"/><use xlink:href="#d" transform="matrix(1,0,0,1,1585,292.0666666666666) translate(35.65462962962964 21.511111111111106)"/><use xlink:href="#e" transform="matrix(1,0,0,1,1585,292.0666666666666) translate(39.38919753086421 53.777777777777764)"/><path d="M1580.85 363.87h-172.5" stroke="#000" stroke-width="2" fill="none"/><path d="M1581.85 364.87h-1.03v-2h1.03z" stroke="#000" stroke-width=".05"/><path d="M1393.1 363.87l14.25-4.64v9.27z" stroke="#000" stroke-width="2"/><path d="M833.85 363.87h-185.5" stroke="#000" stroke-width="2" fill="none"/><path d="M834.85 364.87h-1.03v-2h1.03z" stroke="#000" stroke-width=".05"/><path d="M633.1 363.87l14.25-4.64v9.27z" stroke="#000" stroke-width="2"/><path d="M630.85 100h250.8M630.88 100h-1.03" stroke="#000" stroke-width="2" fill="none"/><path d="M896.9 100l-14.25 4.64v-9.28z" stroke="#000" stroke-width="2"/><path d="M630.85 518.4h932.5M630.88 518.4h-1.03" stroke="#000" stroke-width="2" fill="none"/><path d="M1578.6 518.4l-14.25 4.64v-9.28z" stroke="#000" stroke-width="2"/><path d="M903.15 0h408v198.93h-408z" stroke="#000" stroke-opacity="0" stroke-width="6" fill-opacity="0"/><use xlink:href="#f" transform="matrix(1,0,0,1,908.1500000000001,5) translate(113.13672839506178 103.05277777777775)"/><use xlink:href="#g" transform="matrix(1,0,0,1,908.1500000000001,5) translate(262.51759259259256 103.05277777777775)"/><path d="M697.48 42.47h117.67v60H697.48z" stroke="#000" stroke-opacity="0" stroke-width="2" fill="#fff" fill-opacity="0"/><use xlink:href="#h" transform="matrix(1,0,0,1,702.4833333333322,47.4666666666667) translate(30.963271604938278 17.955555555555552)"/><use xlink:href="#i" transform="matrix(1,0,0,1,702.4833333333322,47.4666666666667) translate(11.043827160493834 44.888888888888886)"/><path d="M695.35 320h84v35.48h-84z" stroke="#000" stroke-opacity="0" stroke-width="2" fill="#fff" fill-opacity="0"/><use xlink:href="#j" transform="matrix(1,0,0,1,700.3499999999999,324.9999999999999) translate(20.829629629629633 19.73333333333333)"/><path d="M1421.34 362.47h129.02v17.77h-129.02z" stroke="#000" stroke-opacity="0" stroke-width="2" fill="#fff" fill-opacity="0"/><use xlink:href="#k" transform="matrix(1,0,0,1,1426.3401960784313,367.4666666666667) translate(19.475308641975317 17.955555555555552)"/><use xlink:href="#l" transform="matrix(1,0,0,1,1426.3401960784313,367.4666666666667) translate(32.848456790123464 44.888888888888886)"/><path d="M1239.38 267.73l-.05-46.23" stroke="#000" stroke-width="2" fill="none"/><path d="M1240.38 268.73h-2v-1.02h2z" stroke="#000" stroke-width=".05"/><path d="M1239.32 206.24l4.65 14.26h-9.27z" stroke="#000" stroke-width="2"/><path d="M1213.2 204v46.23" stroke="#000" stroke-width="2" fill="none"/><path d="M1214.2 204.03h-2V203h2z" stroke="#000" stroke-width=".05"/><path d="M1213.2 265.5l-4.63-14.27h9.27z" stroke="#000" stroke-width="2"/><path d="M1003.57 200.27h200.58v63.86h-200.58z" stroke="#000" stroke-opacity="0" stroke-width="2" fill="#fff" fill-opacity="0"/><use xlink:href="#m" transform="matrix(1,0,0,1,1008.5666666666671,205.26666666669) translate(6.394444444444531 17.95555555555555)"/><use xlink:href="#n" transform="matrix(1,0,0,1,1008.5666666666671,205.26666666669) translate(81.08456790123462 17.95555555555555)"/><use xlink:href="#o" transform="matrix(1,0,0,1,1008.5666666666671,205.26666666669) translate(77.7802469135803 44.88888888888887)"/><path d="M720.52 479.73h141v80h-141z" stroke="#000" stroke-opacity="0" stroke-width="2" fill="#fff" fill-opacity="0"/><use xlink:href="#p" transform="matrix(1,0,0,1,725.5166666666637,484.73333333335756) translate(16.246913580246925 26.705555555555552)"/><use xlink:href="#l" transform="matrix(1,0,0,1,725.5166666666637,484.73333333335756) translate(38.348456790123464 53.638888888888886)"/><path d="M655.84 362.47h180v103.4h-180z" stroke="#000" stroke-opacity="0" stroke-width="2" fill="#fff" fill-opacity="0"/><use xlink:href="#q" transform="matrix(1,0,0,1,660.8401960784317,367.46666666666675) translate(14.70648148148149 17.955555555555552)"/><use xlink:href="#r" transform="matrix(1,0,0,1,660.8401960784317,367.46666666666675) translate(101.99043209876542 17.955555555555552)"/><use xlink:href="#s" transform="matrix(1,0,0,1,660.8401960784317,367.46666666666675) translate(66.7962962962963 44.888888888888886)"/><use xlink:href="#t" transform="matrix(1,0,0,1,660.8401960784317,367.46666666666675) translate(9.687654320987662 71.82222222222221)"/><use xlink:href="#u" transform="matrix(1,0,0,1,660.8401960784317,367.46666666666675) translate(93.04382716049382 71.82222222222221)"/><use xlink:href="#v" transform="matrix(1,0,0,1,660.8401960784317,367.46666666666675) translate(38.740740740740755 98.75555555555553)"/><path d="M1443.85 322.47h84v35.47h-84z" stroke="#000" stroke-opacity="0" stroke-width="2" fill="#fff" fill-opacity="0"/><use xlink:href="#w" transform="matrix(1,0,0,1,1448.85,327.46666666666675) translate(7.811111111111114 19.73333333333333)"/><path d="M1449 177.47h4.5v2h-6.5v-3.62h2zm20.78 2h-8.13v-2h8.13zm16.28 0h-8.14v-2h8.14zm16.27 0h-8.14v-2h8.13zm16.27 0h-8.14v-2h8.14zm16.27 0h-8.13v-2h8.13zm16.27 0H1543v-2h8.14zm12.2 0h-4.06v-2h4.07zM1449 167.7h-2v-8.12h2zm0-48.8h-2v-8.14h2zm0-16.28h-2V101h-4.5v-2h6.5zM1336.72 101h-4.07v-2h4.07zm16.27 0h-8.14v-2h8.13zm16.26 0h-8.13v-2h8.13zm16.28 0h-8.14v-2h8.14zm16.27 0h-8.13v-2h8.14zm16.28 0h-8.14v-2h8.14zm16.27 0h-8.13v-2h8.13z" stroke="#000" stroke-width=".05"/><path d="M1331.65 104.64L1317.4 100l14.25-4.64z"/><path d="M1332.65 106l-18.5-6 18.5-6zm-12.03-6l10.03 3.26v-6.52z" stroke="#000" stroke-width=".05"/><path d="M1578.6 178.47l-14.25 4.64v-9.26z"/><path d="M1581.85 178.47l-18.5 6v-12zm-16.5 3.26l10.03-3.26-10.03-3.26z" stroke="#000" stroke-width=".05"/><use xlink:href="#x" transform="matrix(1,0,0,1,1427.0518518518518,125.76875549692176) translate(0 17.955555555555552)"/><path d="M978.5 204.15v46.08M978.5 204.18v-1.03" stroke="#000" stroke-width="2" fill="none"/><path d="M978.5 265.5l-4.64-14.27h9.28z" stroke="#000" stroke-width="2"/><path d="M803.15 187.28h170.5v90.8h-170.5z" stroke="#000" stroke-opacity="0" stroke-width="2" fill="#fff" fill-opacity="0"/><use xlink:href="#y" transform="matrix(1,0,0,1,808.1500000000001,192.28280812063178) translate(20.28580246913583 30.611805555555552)"/><use xlink:href="#z" transform="matrix(1,0,0,1,808.1500000000001,192.28280812063178) translate(73.84074074074076 30.611805555555552)"/><use xlink:href="#i" transform="matrix(1,0,0,1,808.1500000000001,192.28280812063178) translate(75.08765432098767 57.545138888888886)"/><path d="M1247.15 198.93h195.28v63.87h-195.28z" stroke="#000" stroke-opacity="0" stroke-width="2" fill="#fff" fill-opacity="0"/><use xlink:href="#m" transform="matrix(1,0,0,1,1252.15,203.93333333335653) translate(0 17.95555555555555)"/><use xlink:href="#A" transform="matrix(1,0,0,1,1252.15,203.93333333335653) translate(74.69012345679009 17.95555555555555)"/><use xlink:href="#B" transform="matrix(1,0,0,1,1252.15,203.93333333335653) translate(0 44.88888888888887)"/><path d="M1820 310.1l29-29h42l29 29v42l-29 29h-42l-29-29z" stroke="#000" stroke-width="2" fill-opacity="0"/><use xlink:href="#C" transform="matrix(1,0,0,1,1825,286.1000000000121) translate(5.488271604938284 49.636111111111106)"/><path d="M1739.5 331.1h61" stroke="#000" stroke-width="2" fill="none"/><path d="M1724.24 331.1l14.26-4.64v9.28zM1815.76 331.1l-14.26 4.64v-9.28z" stroke="#000" stroke-width="2"/><path d="M2020 284.17h160v93.86h-160z" stroke="#000" stroke-width="2" fill-opacity="0"/><use xlink:href="#D" transform="matrix(1,0,0,1,2032,296.1666666666788) translate(0 21.511111111111106)"/><use xlink:href="#E" transform="matrix(1,0,0,1,2032,296.1666666666788) translate(0 53.777777777777764)"/><path d="M2000.5 331.1h-61" stroke="#000" stroke-width="2" fill="none"/><path d="M2015.76 331.1l-14.26 4.64v-9.28zM1924.24 331.1l14.26-4.64v9.28z" stroke="#000" stroke-width="2"/><path d="M1920 71.9h220v93.87h-220z" stroke="#000" stroke-width="2" fill-opacity="0"/><use xlink:href="#D" transform="matrix(1,0,0,1,1932,83.9) translate(0 21.511111111111106)"/><use xlink:href="#E" transform="matrix(1,0,0,1,1932,83.9) translate(0 53.777777777777764)"/><path d="M2020 117.67h120v48.1h-120z" stroke="#000" stroke-width="2" fill="#dfe3e8"/><use xlink:href="#F" transform="matrix(1,0,0,1,2025,122.66666666666666) translate(5.330246913580254 23.948611111111106)"/><path d="M1870 261.6V118.83h30.5" stroke="#282c33" stroke-width="2" fill="none"/><path d="M1870 276.86l-4.64-14.26h9.28zM1915.76 118.83l-14.26 4.64v-9.27z" stroke="#282c33" stroke-width="2" fill="#282c33"/><path d="M839.35 969.73h553V1158h-553z" stroke="#000" stroke-width="2" fill="#fff"/><use xlink:href="#a" transform="matrix(1,0,0,1,851.3499999999999,981.733333333345) translate(196.60555555555555 88.5423611111111)"/><use xlink:href="#b" transform="matrix(1,0,0,1,851.3499999999999,981.733333333345) translate(232.4574074074074 88.5423611111111)"/><use xlink:href="#G" transform="matrix(1,0,0,1,851.3499999999999,981.733333333345) translate(317.45617283950617 88.5423611111111)"/><path d="M1284.65 700c16.57 0 30 13.43 30 30v140c0 16.57-13.43 30-30 30h-348c-16.57 0-30-13.43-30-30V730c0-16.57 13.43-30 30-30z" stroke="#000" stroke-width="6" fill-opacity="0"/><path d="M1558 1063.87h-146.15" stroke="#000" stroke-width="2" fill="none"/><path d="M1559 1064.87h-1.03v-2h1.03z" stroke="#000" stroke-width=".05"/><path d="M1396.6 1063.87l14.25-4.64v9.27z" stroke="#000" stroke-width="2"/><path d="M837.35 1063.87h-185.5" stroke="#000" stroke-width="2" fill="none"/><path d="M838.35 1064.87h-1.03v-2h1.03z" stroke="#000" stroke-width=".05"/><path d="M636.6 1063.87l14.25-4.64v9.27z" stroke="#000" stroke-width="2"/><path d="M634.35 800h250.8M634.38 800h-1.03" stroke="#000" stroke-width="2" fill="none"/><path d="M900.4 800l-14.25 4.64v-9.28z" stroke="#000" stroke-width="2"/><path d="M634.35 1209.6H1620v-22.2h20.5M634.38 1209.6h-1.03" stroke="#000" stroke-width="2" fill="none"/><path d="M1655.76 1187.4l-14.26 4.64v-9.27z" stroke="#000" stroke-width="2"/><path d="M906.65 700h408v198.93h-408z" stroke="#000" stroke-opacity="0" stroke-width="6" fill-opacity="0"/><use xlink:href="#f" transform="matrix(1,0,0,1,911.6500000000001,705) translate(113.13672839506178 103.05277777777775)"/><use xlink:href="#H" transform="matrix(1,0,0,1,911.6500000000001,705) translate(262.51759259259256 103.05277777777775)"/><path d="M700.98 742.47h117.67v60H700.98z" stroke="#000" stroke-opacity="0" stroke-width="2" fill="#fff" fill-opacity="0"/><use xlink:href="#h" transform="matrix(1,0,0,1,705.9833333333322,747.4666666666667) translate(30.963271604938278 17.955555555555552)"/><use xlink:href="#i" transform="matrix(1,0,0,1,705.9833333333322,747.4666666666667) translate(11.043827160493834 44.888888888888886)"/><path d="M698.85 1020h84v35.48h-84z" stroke="#000" stroke-opacity="0" stroke-width="2" fill="#fff" fill-opacity="0"/><use xlink:href="#j" transform="matrix(1,0,0,1,703.8499999999999,1025) translate(20.829629629629633 19.73333333333333)"/><path d="M1424.84 1062.47h129.02v17.77h-129.02z" stroke="#000" stroke-opacity="0" stroke-width="2" fill="#fff" fill-opacity="0"/><use xlink:href="#k" transform="matrix(1,0,0,1,1429.8401960784313,1067.4666666666667) translate(19.475308641975317 17.955555555555552)"/><use xlink:href="#l" transform="matrix(1,0,0,1,1429.8401960784313,1067.4666666666667) translate(32.848456790123464 44.888888888888886)"/><path d="M1242.88 967.73l-.05-46.23" stroke="#000" stroke-width="2" fill="none"/><path d="M1243.88 968.73h-2v-1.02h2z" stroke="#000" stroke-width=".05"/><path d="M1242.82 906.24l4.65 14.26h-9.27z" stroke="#000" stroke-width="2"/><path d="M1216.7 904v46.23" stroke="#000" stroke-width="2" fill="none"/><path d="M1217.7 904.03h-2V903h2z" stroke="#000" stroke-width=".05"/><path d="M1216.7 965.5l-4.63-14.27h9.27z" stroke="#000" stroke-width="2"/><path d="M1007.07 900.27h200.58v63.86h-200.58z" stroke="#000" stroke-opacity="0" stroke-width="2" fill="#fff" fill-opacity="0"/><use xlink:href="#m" transform="matrix(1,0,0,1,1012.0666666666671,905.26666666669) translate(6.394444444444531 17.95555555555555)"/><use xlink:href="#n" transform="matrix(1,0,0,1,1012.0666666666671,905.26666666669) translate(81.08456790123462 17.95555555555555)"/><use xlink:href="#o" transform="matrix(1,0,0,1,1012.0666666666671,905.26666666669) translate(77.7802469135803 44.88888888888887)"/><path d="M1416.3 1168.22h141v80h-141z" stroke="#000" stroke-opacity="0" stroke-width="2" fill="#fff" fill-opacity="0"/><use xlink:href="#p" transform="matrix(1,0,0,1,1421.3108289357929,1173.2190853122497) translate(16.246913580246925 26.705555555555552)"/><use xlink:href="#l" transform="matrix(1,0,0,1,1421.3108289357929,1173.2190853122497) translate(38.348456790123464 53.638888888888886)"/><path d="M659.34 1062.47h180v103.4h-180z" stroke="#000" stroke-opacity="0" stroke-width="2" fill="#fff" fill-opacity="0"/><use xlink:href="#q" transform="matrix(1,0,0,1,664.3401960784317,1067.466666666667) translate(14.70648148148149 17.955555555555552)"/><use xlink:href="#r" transform="matrix(1,0,0,1,664.3401960784317,1067.466666666667) translate(101.99043209876542 17.955555555555552)"/><use xlink:href="#s" transform="matrix(1,0,0,1,664.3401960784317,1067.466666666667) translate(66.7962962962963 44.888888888888886)"/><use xlink:href="#t" transform="matrix(1,0,0,1,664.3401960784317,1067.466666666667) translate(9.687654320987662 71.82222222222221)"/><use xlink:href="#u" transform="matrix(1,0,0,1,664.3401960784317,1067.466666666667) translate(93.04382716049382 71.82222222222221)"/><use xlink:href="#v" transform="matrix(1,0,0,1,664.3401960784317,1067.466666666667) translate(38.740740740740755 98.75555555555553)"/><path d="M1447.35 1022.47h84v35.47h-84z" stroke="#000" stroke-opacity="0" stroke-width="2" fill="#fff" fill-opacity="0"/><use xlink:href="#w" transform="matrix(1,0,0,1,1452.35,1027.4666666666667) translate(7.811111111111114 19.73333333333333)"/><path d="M982 904.15v46.08M982 904.18v-1.03" stroke="#000" stroke-width="2" fill="none"/><path d="M982 965.5l-4.64-14.27h9.28z" stroke="#000" stroke-width="2"/><path d="M806.65 887.28h170.5v90.8h-170.5z" stroke="#000" stroke-opacity="0" stroke-width="2" fill="#fff" fill-opacity="0"/><use xlink:href="#y" transform="matrix(1,0,0,1,811.6500000000001,892.2828081206318) translate(20.28580246913583 30.611805555555552)"/><use xlink:href="#z" transform="matrix(1,0,0,1,811.6500000000001,892.2828081206318) translate(73.84074074074076 30.611805555555552)"/><use xlink:href="#i" transform="matrix(1,0,0,1,811.6500000000001,892.2828081206318) translate(75.08765432098767 57.545138888888886)"/><path d="M1250.65 898.93h195.28v63.87h-195.28z" stroke="#000" stroke-opacity="0" stroke-width="2" fill="#fff" fill-opacity="0"/><g><use xlink:href="#m" transform="matrix(1,0,0,1,1255.65,903.9333333333565) translate(0 17.95555555555555)"/><use xlink:href="#A" transform="matrix(1,0,0,1,1255.65,903.9333333333565) translate(74.69012345679009 17.95555555555555)"/><use xlink:href="#B" transform="matrix(1,0,0,1,1255.65,903.9333333333565) translate(0 44.88888888888887)"/></g><path d="M1560 954.87h20v218h-20z" stroke="#000" stroke-width="2" fill="#fff"/><path d="M1660 860h160v153.87h-160z" stroke="#000" stroke-width="2" fill-opacity="0"/><g><use xlink:href="#a" transform="matrix(1,0,0,1,1672,872) translate(9.06851851851853 54.011111111111106)"/><use xlink:href="#I" transform="matrix(1,0,0,1,1672,872) translate(44.92037037037037 54.011111111111106)"/><use xlink:href="#J" transform="matrix(1,0,0,1,1672,872) translate(59.03703703703704 86.27777777777776)"/></g><path d="M1660 1080.24h160v153.87h-160z" stroke="#000" stroke-width="2" fill-opacity="0"/><g><use xlink:href="#a" transform="matrix(1,0,0,1,1672,1092.2444444444445) translate(9.06851851851853 54.011111111111106)"/><use xlink:href="#I" transform="matrix(1,0,0,1,1672,1092.2444444444445) translate(44.92037037037037 54.011111111111106)"/><use xlink:href="#K" transform="matrix(1,0,0,1,1672,1092.2444444444445) translate(59.03703703703704 86.27777777777776)"/></g><path d="M1658 977.27h-38v47.66h-20.5" stroke="#282c33" stroke-width="2" fill="none"/><path d="M1659 978.27h-1.03v-2h1.03z" stroke="#282c33" stroke-width=".05" fill="#282c33"/><path d="M1584.24 1024.93l14.26-4.63v9.27z" stroke="#282c33" stroke-width="2" fill="#282c33"/><path d="M1658 1135.6h-38v-39.17h-20.5" stroke="#282c33" stroke-width="2" fill="none"/><path d="M1659 1136.6h-1.03v-2h1.03z" stroke="#282c33" stroke-width=".05" fill="#282c33"/><path d="M1584.24 1096.43l14.26-4.64v9.27z" stroke="#282c33" stroke-width="2" fill="#282c33"/><path d="M634.35 669.27H1610V898.1h30.5M634.38 669.27h-1.03" stroke="#282c33" stroke-width="2" fill="none"/><path d="M1655.76 898.1l-14.26 4.65v-9.27z" stroke="#282c33" stroke-width="2" fill="#282c33"/><path d="M1456.58 629.27h141v80h-141z" stroke="#000" stroke-opacity="0" stroke-width="2" fill="#fff" fill-opacity="0"/><g><use xlink:href="#p" transform="matrix(1,0,0,1,1461.5771437994722,634.2656662269129) translate(16.246913580246925 26.705555555555552)"/><use xlink:href="#l" transform="matrix(1,0,0,1,1461.5771437994722,634.2656662269129) translate(38.348456790123464 53.638888888888886)"/></g><path d="M469 20h160v1214.1H469z" stroke="#000" stroke-width="2" fill-opacity="0"/><g><use xlink:href="#L" transform="matrix(1,0,0,1,474,25) translate(30.222530864197537 595.7689236111111)"/><use xlink:href="#M" transform="matrix(1,0,0,1,474,25) translate(1.8771604938271764 628.0355902777777)"/></g><path d="M30 640h182.3v400H30z" stroke="#000" stroke-width="2" fill-opacity="0"/><g><use xlink:href="#N" transform="matrix(1,0,0,1,42,652) translate(39.62993827160494 17.955555555555552)"/><use xlink:href="#O" transform="matrix(1,0,0,1,42,652) translate(36.543827160493834 44.888888888888886)"/></g><path d="M230 759.47h130v100H230z" stroke="#000" stroke-width="2" fill-opacity="0"/><g><use xlink:href="#P" transform="matrix(1,0,0,1,242,771.4666666666669) translate(8.56574074074075 28.133333333333333)"/><use xlink:href="#Q" transform="matrix(1,0,0,1,242,771.4666666666669) translate(-0.27314814814813104 57.733333333333334)"/></g><path d="M468 814.56h-88.5M467.97 814.56H469" stroke="#000" stroke-width="2" fill="none"/><path d="M364.24 814.56l14.26-4.63v9.27z" stroke="#000" stroke-width="2"/><path d="M1.15 746.07h240V977h-240z" stroke="#000" stroke-opacity="0" stroke-width="2" fill="#fff" fill-opacity="0"/><g><use xlink:href="#R" transform="matrix(1,0,0,1,6.150000000000091,751.0666666666671) translate(89.75030864197532 43.80277777777778)"/><use xlink:href="#S" transform="matrix(1,0,0,1,6.150000000000091,751.0666666666671) translate(115 68.06944444444443)"/><use xlink:href="#T" transform="matrix(1,0,0,1,6.150000000000091,751.0666666666671) translate(36.470370370370404 92.3361111111111)"/><use xlink:href="#U" transform="matrix(1,0,0,1,6.150000000000091,751.0666666666671) translate(107.19197530864197 92.3361111111111)"/><use xlink:href="#S" transform="matrix(1,0,0,1,6.150000000000091,751.0666666666671) translate(115 116.60277777777776)"/><use xlink:href="#V" transform="matrix(1,0,0,1,6.150000000000091,751.0666666666671) translate(29.72962962962967 140.8694444444444)"/><use xlink:href="#U" transform="matrix(1,0,0,1,6.150000000000091,751.0666666666671) translate(113.9327160493827 140.8694444444444)"/><use xlink:href="#S" transform="matrix(1,0,0,1,6.150000000000091,751.0666666666671) translate(115 165.13611111111106)"/><use xlink:href="#W" transform="matrix(1,0,0,1,6.150000000000091,751.0666666666671) translate(77.98209876543211 189.40277777777771)"/></g><path d="M60 220h240v180H60z" stroke="#000" stroke-width="2" fill="#fff"/><g><use xlink:href="#X" transform="matrix(1,0,0,1,65,224.9999999999999) translate(37.02592592592595 89.20208333333333)"/><use xlink:href="#Y" transform="matrix(1,0,0,1,65,224.9999999999999) translate(127.26481481481481 89.20208333333333)"/></g><path d="M302 310h147.5" stroke="#000" stroke-width="2" fill="none"/><path d="M302.03 311H301v-2h1.03z" stroke="#000" stroke-width=".05"/><path d="M464.76 310l-14.26 4.64v-9.28z" stroke="#000" stroke-width="2"/><defs><path d="M33 0v-248h34V0H33" id="Z"/><path d="M140-251c81 0 123 46 123 126C263-46 219 4 140 4 59 4 17-45 17-125s42-126 123-126zm0 227c63 0 89-41 89-101s-29-99-89-99c-61 0-89 39-89 99S79-25 140-24" id="aa"/><g id="a"><use transform="matrix(0.07469135802469135,0,0,0.07469135802469135,0,0)" xlink:href="#Z"/><use transform="matrix(0.07469135802469135,0,0,0.07469135802469135,7.469135802469134,0)" xlink:href="#aa"/></g><path d="M160-131c35 5 61 23 61 61C221 17 115-2 30 0v-248c76 3 177-17 177 60 0 33-19 50-47 57zm-97-11c50-1 110 9 110-42 0-47-63-36-110-37v79zm0 115c55-2 124 14 124-45 0-56-70-42-124-44v89" id="ab"/><path d="M114-163C36-179 61-72 57 0H25l-1-190h30c1 12-1 29 2 39 6-27 23-49 58-41v29" id="ac"/><path d="M24-231v-30h32v30H24zM24 0v-190h32V0H24" id="ad"/><path d="M85-194c31 0 48 13 60 33l-1-100h32l1 261h-30c-2-10 0-23-3-31C134-8 116 4 85 4 32 4 16-35 15-94c0-66 23-100 70-100zm9 24c-40 0-46 34-46 75 0 40 6 74 45 74 42 0 51-32 51-76 0-42-9-74-50-73" id="ae"/><path d="M177-190C167-65 218 103 67 71c-23-6-38-20-44-43l32-5c15 47 100 32 89-28v-30C133-14 115 1 83 1 29 1 15-40 15-95c0-56 16-97 71-98 29-1 48 16 59 35 1-10 0-23 2-32h30zM94-22c36 0 50-32 50-73 0-42-14-75-50-75-39 0-46 34-46 75s6 73 46 73" id="af"/><path d="M100-194c63 0 86 42 84 106H49c0 40 14 67 53 68 26 1 43-12 49-29l28 8c-11 28-37 45-77 45C44 4 14-33 15-96c1-61 26-98 85-98zm52 81c6-60-76-77-97-28-3 7-6 17-6 28h103" id="ag"/><g id="b"><use transform="matrix(0.07469135802469135,0,0,0.07469135802469135,0,0)" xlink:href="#ab"/><use transform="matrix(0.07469135802469135,0,0,0.07469135802469135,17.925925925925924,0)" xlink:href="#ac"/><use transform="matrix(0.07469135802469135,0,0,0.07469135802469135,26.81419753086419,0)" xlink:href="#ad"/><use transform="matrix(0.07469135802469135,0,0,0.07469135802469135,32.71481481481481,0)" xlink:href="#ae"/><use transform="matrix(0.07469135802469135,0,0,0.07469135802469135,47.65308641975308,0)" xlink:href="#af"/><use transform="matrix(0.07469135802469135,0,0,0.07469135802469135,62.591358024691345,0)" xlink:href="#ag"/></g><path d="M101-251c68 0 85 55 85 127S166 4 100 4C33 4 14-52 14-124c0-73 17-127 87-127zm-1 229c47 0 54-49 54-102s-4-102-53-102c-51 0-55 48-55 102 0 53 5 102 54 102" id="ah"/><use transform="matrix(0.07469135802469135,0,0,0.07469135802469135,0,0)" xlink:href="#ah" id="c"/><path d="M233-177c-1 41-23 64-60 70L243 0h-38l-65-103H63V0H30v-248c88 3 205-21 203 71zM63-129c60-2 137 13 137-47 0-61-80-42-137-45v92" id="ai"/><path d="M100-194c62-1 85 37 85 99 1 63-27 99-86 99S16-35 15-95c0-66 28-99 85-99zM99-20c44 1 53-31 53-75 0-43-8-75-51-75s-53 32-53 75 10 74 51 75" id="aj"/><path d="M59-47c-2 24 18 29 38 22v24C64 9 27 4 27-40v-127H5v-23h24l9-43h21v43h35v23H59v120" id="ak"/><g id="d"><use transform="matrix(0.07469135802469135,0,0,0.07469135802469135,0,0)" xlink:href="#ai"/><use transform="matrix(0.07469135802469135,0,0,0.07469135802469135,19.34506172839506,0)" xlink:href="#aj"/><use transform="matrix(0.07469135802469135,0,0,0.07469135802469135,34.28333333333333,0)" xlink:href="#aj"/><use transform="matrix(0.07469135802469135,0,0,0.07469135802469135,49.2216049382716,0)" xlink:href="#ak"/></g><path d="M30-248c87 1 191-15 191 75 0 78-77 80-158 76V0H30v-248zm33 125c57 0 124 11 124-50 0-59-68-47-124-48v98" id="al"/><g id="e"><use transform="matrix(0.07469135802469135,0,0,0.07469135802469135,0,0)" xlink:href="#al"/><use transform="matrix(0.07469135802469135,0,0,0.07469135802469135,17.925925925925924,0)" xlink:href="#aj"/><use transform="matrix(0.07469135802469135,0,0,0.07469135802469135,32.86419753086419,0)" xlink:href="#ac"/><use transform="matrix(0.07469135802469135,0,0,0.07469135802469135,41.75246913580246,0)" xlink:href="#ak"/></g><path d="M24 0v-248h52V0H24" id="am"/><path d="M140-251c80 0 125 45 125 126S219 4 139 4C58 4 15-44 15-125s44-126 125-126zm-1 214c52 0 73-35 73-88 0-50-21-86-72-86-52 0-73 35-73 86s22 88 72 88" id="an"/><path d="M230 0l2-204L168 0h-37L68-204 70 0H24v-248h70l56 185 57-185h69V0h-46" id="ao"/><path d="M238-95c0 69-44 99-111 99C63 4 22-25 22-93v-155h51v151c-1 38 19 59 55 60 90 1 49-130 58-211h52v153" id="ap"/><g id="f"><use transform="matrix(0.11172839506172831,0,0,0.11172839506172831,0,0)" xlink:href="#am"/><use transform="matrix(0.11172839506172831,0,0,0.11172839506172831,11.172839506172831,0)" xlink:href="#an"/><use transform="matrix(0.11172839506172831,0,0,0.11172839506172831,42.456790123456756,0)" xlink:href="#ao"/><use transform="matrix(0.11172839506172831,0,0,0.11172839506172831,75.86358024691353,0)" xlink:href="#ao"/><use transform="matrix(0.11172839506172831,0,0,0.11172839506172831,109.2703703703703,0)" xlink:href="#ap"/></g><path d="M101-251c68 0 84 54 84 127C185-50 166 4 99 4S15-52 14-124c-1-75 17-127 87-127zm-1 216c37-5 36-46 36-89s4-89-36-89c-39 0-36 45-36 89 0 43-3 85 36 89" id="aq"/><use transform="matrix(0.11172839506172831,0,0,0.11172839506172831,0,0)" xlink:href="#aq" id="g"/><path d="M197 0v-115H63V0H30v-248h33v105h134v-105h34V0h-34" id="ar"/><path d="M135-143c-3-34-86-38-87 0 15 53 115 12 119 90S17 21 10-45l28-5c4 36 97 45 98 0-10-56-113-15-118-90-4-57 82-63 122-42 12 7 21 19 24 35" id="as"/><g id="h"><use transform="matrix(0.06234567901234567,0,0,0.06234567901234567,0,0)" xlink:href="#ar"/><use transform="matrix(0.06234567901234567,0,0,0.06234567901234567,16.147530864197527,0)" xlink:href="#aj"/><use transform="matrix(0.06234567901234567,0,0,0.06234567901234567,28.61666666666666,0)" xlink:href="#as"/><use transform="matrix(0.06234567901234567,0,0,0.06234567901234567,39.83888888888888,0)" xlink:href="#ak"/></g><path d="M117-194c89-4 53 116 60 194h-32v-121c0-31-8-49-39-48C34-167 62-67 57 0H25l-1-190h30c1 10-1 24 2 32 11-22 29-35 61-36" id="at"/><path d="M101-234c-31-9-42 10-38 44h38v23H63V0H32v-167H5v-23h27c-7-52 17-82 69-68v24" id="au"/><path d="M141-36C126-15 110 5 73 4 37 3 15-17 15-53c-1-64 63-63 125-63 3-35-9-54-41-54-24 1-41 7-42 31l-33-3c5-37 33-52 76-52 45 0 72 20 72 64v82c-1 20 7 32 28 27v20c-31 9-61-2-59-35zM48-53c0 20 12 33 32 33 41-3 63-29 60-74-43 2-92-5-92 41" id="av"/><path d="M96-169c-40 0-48 33-48 73s9 75 48 75c24 0 41-14 43-38l32 2c-6 37-31 61-74 61-59 0-76-41-82-99-10-93 101-131 147-64 4 7 5 14 7 22l-32 3c-4-21-16-35-41-35" id="aw"/><g id="i"><use transform="matrix(0.06234567901234567,0,0,0.06234567901234567,0,0)" xlink:href="#ad"/><use transform="matrix(0.06234567901234567,0,0,0.06234567901234567,4.925308641975308,0)" xlink:href="#at"/><use transform="matrix(0.06234567901234567,0,0,0.06234567901234567,17.39444444444444,0)" xlink:href="#ak"/><use transform="matrix(0.06234567901234567,0,0,0.06234567901234567,23.629012345679005,0)" xlink:href="#ag"/><use transform="matrix(0.06234567901234567,0,0,0.06234567901234567,36.09814814814814,0)" xlink:href="#ac"/><use transform="matrix(0.06234567901234567,0,0,0.06234567901234567,43.517283950617276,0)" xlink:href="#au"/><use transform="matrix(0.06234567901234567,0,0,0.06234567901234567,49.75185185185184,0)" xlink:href="#av"/><use transform="matrix(0.06234567901234567,0,0,0.06234567901234567,62.22098765432097,0)" xlink:href="#aw"/><use transform="matrix(0.06234567901234567,0,0,0.06234567901234567,73.4432098765432,0)" xlink:href="#ag"/></g><path d="M24-248c93 1 206-16 204 79-1 75-69 88-152 82V0H24v-248zm52 121c47 0 100 7 100-41 0-47-54-39-100-39v80" id="ax"/><path d="M199 0l-22-63H83L61 0H9l90-248h61L250 0h-51zm-33-102l-36-108c-10 38-24 72-36 108h72" id="ay"/><g id="j"><use transform="matrix(0.0685185185185185,0,0,0.0685185185185185,0,0)" xlink:href="#ax"/><use transform="matrix(0.0685185185185185,0,0,0.0685185185185185,14.594444444444443,0)" xlink:href="#ay"/></g><path d="M115-194c53 0 69 39 70 98 0 66-23 100-70 100C84 3 66-7 56-30L54 0H23l1-261h32v101c10-23 28-34 59-34zm-8 174c40 0 45-34 45-75 0-40-5-75-45-74-42 0-51 32-51 76 0 43 10 73 51 73" id="az"/><path d="M84 4C-5 8 30-112 23-190h32v120c0 31 7 50 39 49 72-2 45-101 50-169h31l1 190h-30c-1-10 1-25-2-33-11 22-28 36-60 37" id="aA"/><g id="k"><use transform="matrix(0.06234567901234567,0,0,0.06234567901234567,0,0)" xlink:href="#Z"/><use transform="matrix(0.06234567901234567,0,0,0.06234567901234567,6.234567901234566,0)" xlink:href="#at"/><use transform="matrix(0.06234567901234567,0,0,0.06234567901234567,18.7037037037037,0)" xlink:href="#az"/><use transform="matrix(0.06234567901234567,0,0,0.06234567901234567,31.17283950617283,0)" xlink:href="#aj"/><use transform="matrix(0.06234567901234567,0,0,0.06234567901234567,43.64197530864196,0)" xlink:href="#aA"/><use transform="matrix(0.06234567901234567,0,0,0.06234567901234567,56.11111111111109,0)" xlink:href="#at"/><use transform="matrix(0.06234567901234567,0,0,0.06234567901234567,68.58024691358023,0)" xlink:href="#ae"/></g><g id="l"><use transform="matrix(0.06234567901234567,0,0,0.06234567901234567,0,0)" xlink:href="#ak"/><use transform="matrix(0.06234567901234567,0,0,0.06234567901234567,6.234567901234566,0)" xlink:href="#ac"/><use transform="matrix(0.06234567901234567,0,0,0.06234567901234567,13.653703703703702,0)" xlink:href="#av"/><use transform="matrix(0.06234567901234567,0,0,0.06234567901234567,26.122839506172834,0)" xlink:href="#au"/><use transform="matrix(0.06234567901234567,0,0,0.06234567901234567,31.92098765432098,0)" xlink:href="#au"/><use transform="matrix(0.06234567901234567,0,0,0.06234567901234567,38.15555555555555,0)" xlink:href="#ad"/><use transform="matrix(0.06234567901234567,0,0,0.06234567901234567,43.08086419753086,0)" xlink:href="#aw"/></g><path d="M30-248c118-7 216 8 213 122C240-48 200 0 122 0H30v-248zM63-27c89 8 146-16 146-99s-60-101-146-95v194" id="aB"/><path d="M108 0H70L1-190h34L89-25l56-165h34" id="aC"/><g id="m"><use transform="matrix(0.06234567901234565,0,0,0.06234567901234565,0,0)" xlink:href="#aB"/><use transform="matrix(0.06234567901234565,0,0,0.06234567901234565,16.147530864197524,0)" xlink:href="#ag"/><use transform="matrix(0.06234567901234565,0,0,0.06234567901234565,28.616666666666653,0)" xlink:href="#aC"/><use transform="matrix(0.06234567901234565,0,0,0.06234567901234565,39.838888888888874,0)" xlink:href="#ad"/><use transform="matrix(0.06234567901234565,0,0,0.06234567901234565,44.76419753086418,0)" xlink:href="#aw"/><use transform="matrix(0.06234567901234565,0,0,0.06234567901234565,55.986419753086395,0)" xlink:href="#ag"/></g><path d="M127-220V0H93v-220H8v-28h204v28h-85" id="aD"/><path d="M24 0v-261h32V0H24" id="aE"/><g id="n"><use transform="matrix(0.06234567901234565,0,0,0.06234567901234565,0,0)" xlink:href="#aD"/><use transform="matrix(0.06234567901234565,0,0,0.06234567901234565,12.843209876543204,0)" xlink:href="#ac"/><use transform="matrix(0.06234567901234565,0,0,0.06234567901234565,20.262345679012338,0)" xlink:href="#av"/><use transform="matrix(0.06234567901234565,0,0,0.06234567901234565,32.73148148148147,0)" xlink:href="#at"/><use transform="matrix(0.06234567901234565,0,0,0.06234567901234565,45.2006172839506,0)" xlink:href="#as"/><use transform="matrix(0.06234567901234565,0,0,0.06234567901234565,56.42283950617282,0)" xlink:href="#aE"/><use transform="matrix(0.06234567901234565,0,0,0.06234567901234565,61.34814814814813,0)" xlink:href="#av"/><use transform="matrix(0.06234567901234565,0,0,0.06234567901234565,73.81728395061725,0)" xlink:href="#ak"/><use transform="matrix(0.06234567901234565,0,0,0.06234567901234565,80.05185185185182,0)" xlink:href="#ad"/><use transform="matrix(0.06234567901234565,0,0,0.06234567901234565,84.97716049382713,0)" xlink:href="#aj"/><use transform="matrix(0.06234567901234565,0,0,0.06234567901234565,97.44629629629625,0)" xlink:href="#at"/></g><path d="M212-179c-10-28-35-45-73-45-59 0-87 40-87 99 0 60 29 101 89 101 43 0 62-24 78-52l27 14C228-24 195 4 139 4 59 4 22-46 18-125c-6-104 99-153 187-111 19 9 31 26 39 46" id="aF"/><path d="M210-169c-67 3-38 105-44 169h-31v-121c0-29-5-50-35-48C34-165 62-65 56 0H25l-1-190h30c1 10-1 24 2 32 10-44 99-50 107 0 11-21 27-35 58-36 85-2 47 119 55 194h-31v-121c0-29-5-49-35-48" id="aG"/><path d="M115-194c55 1 70 41 70 98S169 2 115 4C84 4 66-9 55-30l1 105H24l-1-265h31l2 30c10-21 28-34 59-34zm-8 174c40 0 45-34 45-75s-6-73-45-74c-42 0-51 32-51 76 0 43 10 73 51 73" id="aH"/><g id="o"><use transform="matrix(0.06234567901234565,0,0,0.06234567901234565,0,0)" xlink:href="#aF"/><use transform="matrix(0.06234567901234565,0,0,0.06234567901234565,16.147530864197524,0)" xlink:href="#aj"/><use transform="matrix(0.06234567901234565,0,0,0.06234567901234565,28.616666666666653,0)" xlink:href="#aG"/><use transform="matrix(0.06234567901234565,0,0,0.06234567901234565,47.258024691358,0)" xlink:href="#aH"/><use transform="matrix(0.06234567901234565,0,0,0.06234567901234565,59.727160493827135,0)" xlink:href="#aE"/><use transform="matrix(0.06234567901234565,0,0,0.06234567901234565,64.65246913580245,0)" xlink:href="#ag"/><use transform="matrix(0.06234567901234565,0,0,0.06234567901234565,77.12160493827157,0)" xlink:href="#ak"/><use transform="matrix(0.06234567901234565,0,0,0.06234567901234565,83.35617283950614,0)" xlink:href="#ad"/><use transform="matrix(0.06234567901234565,0,0,0.06234567901234565,88.28148148148145,0)" xlink:href="#aj"/><use transform="matrix(0.06234567901234565,0,0,0.06234567901234565,100.75061728395058,0)" xlink:href="#at"/></g><g id="p"><use transform="matrix(0.06234567901234567,0,0,0.06234567901234567,0,0)" xlink:href="#aa"/><use transform="matrix(0.06234567901234567,0,0,0.06234567901234567,17.456790123456788,0)" xlink:href="#aA"/><use transform="matrix(0.06234567901234567,0,0,0.06234567901234567,29.92592592592592,0)" xlink:href="#ak"/><use transform="matrix(0.06234567901234567,0,0,0.06234567901234567,36.16049382716049,0)" xlink:href="#az"/><use transform="matrix(0.06234567901234567,0,0,0.06234567901234567,48.62962962962962,0)" xlink:href="#aj"/><use transform="matrix(0.06234567901234567,0,0,0.06234567901234567,61.09876543209875,0)" xlink:href="#aA"/><use transform="matrix(0.06234567901234567,0,0,0.06234567901234567,73.56790123456788,0)" xlink:href="#at"/><use transform="matrix(0.06234567901234567,0,0,0.06234567901234567,86.03703703703701,0)" xlink:href="#ae"/></g><g id="q"><use transform="matrix(0.06234567901234567,0,0,0.06234567901234567,0,0)" xlink:href="#Z"/><use transform="matrix(0.06234567901234567,0,0,0.06234567901234567,6.234567901234566,0)" xlink:href="#at"/><use transform="matrix(0.06234567901234567,0,0,0.06234567901234567,18.7037037037037,0)" xlink:href="#az"/><use transform="matrix(0.06234567901234567,0,0,0.06234567901234567,31.17283950617283,0)" xlink:href="#aj"/><use transform="matrix(0.06234567901234567,0,0,0.06234567901234567,43.64197530864196,0)" xlink:href="#aA"/><use transform="matrix(0.06234567901234567,0,0,0.06234567901234567,56.11111111111109,0)" xlink:href="#at"/><use transform="matrix(0.06234567901234567,0,0,0.06234567901234567,68.58024691358023,0)" xlink:href="#ae"/></g><g id="r"><use transform="matrix(0.06234567901234567,0,0,0.06234567901234567,0,0)" xlink:href="#ak"/><use transform="matrix(0.06234567901234567,0,0,0.06234567901234567,6.234567901234566,0)" xlink:href="#ac"/><use transform="matrix(0.06234567901234567,0,0,0.06234567901234567,13.653703703703702,0)" xlink:href="#av"/><use transform="matrix(0.06234567901234567,0,0,0.06234567901234567,26.122839506172834,0)" xlink:href="#au"/><use transform="matrix(0.06234567901234567,0,0,0.06234567901234567,31.92098765432098,0)" xlink:href="#au"/><use transform="matrix(0.06234567901234567,0,0,0.06234567901234567,38.15555555555555,0)" xlink:href="#ad"/><use transform="matrix(0.06234567901234567,0,0,0.06234567901234567,43.08086419753086,0)" xlink:href="#aw"/></g><g id="s"><use transform="matrix(0.06234567901234567,0,0,0.06234567901234567,0,0)" xlink:href="#av"/><use transform="matrix(0.06234567901234567,0,0,0.06234567901234567,12.469135802469133,0)" xlink:href="#at"/><use transform="matrix(0.06234567901234567,0,0,0.06234567901234567,24.938271604938265,0)" xlink:href="#ae"/></g><path d="M240 0l2-218c-23 76-54 145-80 218h-23L58-218 59 0H30v-248h44l77 211c21-75 51-140 76-211h43V0h-30" id="aI"/><path d="M232-93c-1 65-40 97-104 97C67 4 28-28 28-90v-158h33c8 89-33 224 67 224 102 0 64-133 71-224h33v155" id="aJ"/><g id="t"><use transform="matrix(0.06234567901234567,0,0,0.06234567901234567,0,0)" xlink:href="#Z"/><use transform="matrix(0.06234567901234567,0,0,0.06234567901234567,6.234567901234566,0)" xlink:href="#aa"/><use transform="matrix(0.06234567901234567,0,0,0.06234567901234567,23.691358024691354,0)" xlink:href="#aI"/><use transform="matrix(0.06234567901234567,0,0,0.06234567901234567,42.33271604938271,0)" xlink:href="#aI"/><use transform="matrix(0.06234567901234567,0,0,0.06234567901234567,60.97407407407407,0)" xlink:href="#aJ"/></g><g id="u"><use transform="matrix(0.06234567901234567,0,0,0.06234567901234567,0,0)" xlink:href="#ad"/><use transform="matrix(0.06234567901234567,0,0,0.06234567901234567,4.925308641975308,0)" xlink:href="#aG"/><use transform="matrix(0.06234567901234567,0,0,0.06234567901234567,23.566666666666663,0)" xlink:href="#aH"/><use transform="matrix(0.06234567901234567,0,0,0.06234567901234567,36.035802469135795,0)" xlink:href="#aE"/><use transform="matrix(0.06234567901234567,0,0,0.06234567901234567,40.9611111111111,0)" xlink:href="#ad"/><use transform="matrix(0.06234567901234567,0,0,0.06234567901234567,45.88641975308641,0)" xlink:href="#aw"/><use transform="matrix(0.06234567901234567,0,0,0.06234567901234567,57.10864197530863,0)" xlink:href="#ad"/><use transform="matrix(0.06234567901234567,0,0,0.06234567901234567,62.033950617283935,0)" xlink:href="#ak"/></g><g id="v"><use transform="matrix(0.06234567901234567,0,0,0.06234567901234567,0,0)" xlink:href="#av"/><use transform="matrix(0.06234567901234567,0,0,0.06234567901234567,12.469135802469133,0)" xlink:href="#aw"/><use transform="matrix(0.06234567901234567,0,0,0.06234567901234567,23.691358024691354,0)" xlink:href="#aw"/><use transform="matrix(0.06234567901234567,0,0,0.06234567901234567,34.913580246913575,0)" xlink:href="#ag"/><use transform="matrix(0.06234567901234567,0,0,0.06234567901234567,47.38271604938271,0)" xlink:href="#as"/><use transform="matrix(0.06234567901234567,0,0,0.06234567901234567,58.60493827160493,0)" xlink:href="#as"/><use transform="matrix(0.06234567901234567,0,0,0.06234567901234567,69.82716049382715,0)" xlink:href="#ag"/><use transform="matrix(0.06234567901234567,0,0,0.06234567901234567,82.29629629629628,0)" xlink:href="#as"/></g><path d="M147 0H94L2-248h55l64 206c17-72 42-137 63-206h54" id="aK"/><g id="w"><use transform="matrix(0.0685185185185185,0,0,0.0685185185185185,0,0)" xlink:href="#am"/><use transform="matrix(0.0685185185185185,0,0,0.0685185185185185,6.85185185185185,0)" xlink:href="#an"/><use transform="matrix(0.0685185185185185,0,0,0.0685185185185185,26.037037037037038,0)" xlink:href="#aK"/><use transform="matrix(0.0685185185185185,0,0,0.0685185185185185,40.63148148148148,0)" xlink:href="#ay"/></g><path d="M205 0l-28-72H64L36 0H1l101-248h38L239 0h-34zm-38-99l-47-123c-12 45-31 82-46 123h93" id="aL"/><path d="M185-189c-5-48-123-54-124 2 14 75 158 14 163 119 3 78-121 87-175 55-17-10-28-26-33-46l33-7c5 56 141 63 141-1 0-78-155-14-162-118-5-82 145-84 179-34 5 7 8 16 11 25" id="aM"/><g id="x"><use transform="matrix(0.06234567901234567,0,0,0.06234567901234567,0,0)" xlink:href="#aL"/><use transform="matrix(0.06234567901234567,0,0,0.06234567901234567,13.279629629629627,0)" xlink:href="#aD"/><use transform="matrix(0.06234567901234567,0,0,0.06234567901234567,26.93333333333333,0)" xlink:href="#aM"/></g><g id="y"><use transform="matrix(0.06234567901234567,0,0,0.06234567901234567,0,0)" xlink:href="#aB"/><use transform="matrix(0.06234567901234567,0,0,0.06234567901234567,16.147530864197527,0)" xlink:href="#av"/><use transform="matrix(0.06234567901234567,0,0,0.06234567901234567,28.61666666666666,0)" xlink:href="#ak"/><use transform="matrix(0.06234567901234567,0,0,0.06234567901234567,34.85123456790123,0)" xlink:href="#av"/></g><g id="z"><use transform="matrix(0.06234567901234567,0,0,0.06234567901234567,0,0)" xlink:href="#as"/><use transform="matrix(0.06234567901234567,0,0,0.06234567901234567,11.22222222222222,0)" xlink:href="#ak"/><use transform="matrix(0.06234567901234567,0,0,0.06234567901234567,17.456790123456784,0)" xlink:href="#ac"/><use transform="matrix(0.06234567901234567,0,0,0.06234567901234567,24.87592592592592,0)" xlink:href="#aA"/><use transform="matrix(0.06234567901234567,0,0,0.06234567901234567,37.34506172839505,0)" xlink:href="#aw"/><use transform="matrix(0.06234567901234567,0,0,0.06234567901234567,48.56728395061727,0)" xlink:href="#ak"/><use transform="matrix(0.06234567901234567,0,0,0.06234567901234567,54.801851851851836,0)" xlink:href="#aA"/><use transform="matrix(0.06234567901234567,0,0,0.06234567901234567,67.27098765432098,0)" xlink:href="#ac"/><use transform="matrix(0.06234567901234567,0,0,0.06234567901234567,74.6901234567901,0)" xlink:href="#ag"/></g><g id="A"><use transform="matrix(0.06234567901234565,0,0,0.06234567901234565,0,0)" xlink:href="#ak"/><use transform="matrix(0.06234567901234565,0,0,0.06234567901234565,6.234567901234565,0)" xlink:href="#ac"/><use transform="matrix(0.06234567901234565,0,0,0.06234567901234565,13.653703703703698,0)" xlink:href="#av"/><use transform="matrix(0.06234567901234565,0,0,0.06234567901234565,26.12283950617283,0)" xlink:href="#at"/><use transform="matrix(0.06234567901234565,0,0,0.06234567901234565,38.59197530864196,0)" xlink:href="#as"/><use transform="matrix(0.06234567901234565,0,0,0.06234567901234565,49.81419753086418,0)" xlink:href="#aE"/><use transform="matrix(0.06234567901234565,0,0,0.06234567901234565,54.739506172839484,0)" xlink:href="#av"/><use transform="matrix(0.06234567901234565,0,0,0.06234567901234565,67.20864197530861,0)" xlink:href="#ak"/><use transform="matrix(0.06234567901234565,0,0,0.06234567901234565,73.44320987654318,0)" xlink:href="#ad"/><use transform="matrix(0.06234567901234565,0,0,0.06234567901234565,78.36851851851848,0)" xlink:href="#aj"/><use transform="matrix(0.06234567901234565,0,0,0.06234567901234565,90.83765432098761,0)" xlink:href="#at"/></g><path d="M145-31C134-9 116 4 85 4 32 4 16-35 15-94c0-59 17-99 70-100 32-1 48 14 60 33 0-11-1-24 2-32h30l-1 268h-32zM93-21c41 0 51-33 51-76s-8-73-50-73c-40 0-46 35-46 75s5 74 45 74" id="aN"/><g id="B"><use transform="matrix(0.06234567901234565,0,0,0.06234567901234565,0,0)" xlink:href="#ai"/><use transform="matrix(0.06234567901234565,0,0,0.06234567901234565,16.147530864197524,0)" xlink:href="#ag"/><use transform="matrix(0.06234567901234565,0,0,0.06234567901234565,28.616666666666653,0)" xlink:href="#aN"/><use transform="matrix(0.06234567901234565,0,0,0.06234567901234565,41.085802469135785,0)" xlink:href="#aA"/><use transform="matrix(0.06234567901234565,0,0,0.06234567901234565,53.55493827160492,0)" xlink:href="#ag"/><use transform="matrix(0.06234567901234565,0,0,0.06234567901234565,66.02407407407405,0)" xlink:href="#as"/><use transform="matrix(0.06234567901234565,0,0,0.06234567901234565,77.24629629629626,0)" xlink:href="#ak"/></g><path d="M206 0h-36l-40-164L89 0H53L-1-190h32L70-26l43-164h34l41 164 42-164h31" id="aO"/><path d="M106-169C34-169 62-67 57 0H25v-261h32l-1 103c12-21 28-36 61-36 89 0 53 116 60 194h-32v-121c2-32-8-49-39-48" id="aP"/><g id="C"><use transform="matrix(0.07469135802469135,0,0,0.07469135802469135,0,0)" xlink:href="#aM"/><use transform="matrix(0.07469135802469135,0,0,0.07469135802469135,17.925925925925924,0)" xlink:href="#aO"/><use transform="matrix(0.07469135802469135,0,0,0.07469135802469135,37.27098765432098,0)" xlink:href="#ad"/><use transform="matrix(0.07469135802469135,0,0,0.07469135802469135,43.1716049382716,0)" xlink:href="#ak"/><use transform="matrix(0.07469135802469135,0,0,0.07469135802469135,50.64074074074073,0)" xlink:href="#aw"/><use transform="matrix(0.07469135802469135,0,0,0.07469135802469135,64.08518518518517,0)" xlink:href="#aP"/></g><path d="M30 0v-248h187v28H63v79h144v27H63v87h162V0H30" id="aQ"/><g id="D"><use transform="matrix(0.07469135802469135,0,0,0.07469135802469135,0,0)" xlink:href="#aQ"/><use transform="matrix(0.07469135802469135,0,0,0.07469135802469135,17.925925925925924,0)" xlink:href="#at"/><use transform="matrix(0.07469135802469135,0,0,0.07469135802469135,32.86419753086419,0)" xlink:href="#ae"/><use transform="matrix(0.07469135802469135,0,0,0.07469135802469135,47.802469135802454,0)" xlink:href="#al"/><use transform="matrix(0.07469135802469135,0,0,0.07469135802469135,65.72839506172838,0)" xlink:href="#aj"/><use transform="matrix(0.07469135802469135,0,0,0.07469135802469135,80.66666666666664,0)" xlink:href="#ad"/><use transform="matrix(0.07469135802469135,0,0,0.07469135802469135,86.56728395061725,0)" xlink:href="#at"/><use transform="matrix(0.07469135802469135,0,0,0.07469135802469135,101.50555555555552,0)" xlink:href="#ak"/></g><g id="E"><use transform="matrix(0.07469135802469135,0,0,0.07469135802469135,0,0)" xlink:href="#aB"/><use transform="matrix(0.07469135802469135,0,0,0.07469135802469135,19.34506172839506,0)" xlink:href="#ag"/><use transform="matrix(0.07469135802469135,0,0,0.07469135802469135,34.28333333333333,0)" xlink:href="#aC"/><use transform="matrix(0.07469135802469135,0,0,0.07469135802469135,47.72777777777778,0)" xlink:href="#ad"/><use transform="matrix(0.07469135802469135,0,0,0.07469135802469135,53.6283950617284,0)" xlink:href="#aw"/><use transform="matrix(0.07469135802469135,0,0,0.07469135802469135,67.07283950617284,0)" xlink:href="#ag"/></g><g id="F"><use transform="matrix(0.07469135802469135,0,0,0.07469135802469135,0,0)" xlink:href="#aB"/><use transform="matrix(0.07469135802469135,0,0,0.07469135802469135,19.34506172839506,0)" xlink:href="#ag"/><use transform="matrix(0.07469135802469135,0,0,0.07469135802469135,34.28333333333333,0)" xlink:href="#aC"/><use transform="matrix(0.07469135802469135,0,0,0.07469135802469135,47.72777777777778,0)" xlink:href="#aL"/><use transform="matrix(0.07469135802469135,0,0,0.07469135802469135,63.63703703703703,0)" xlink:href="#aD"/><use transform="matrix(0.07469135802469135,0,0,0.07469135802469135,79.99444444444445,0)" xlink:href="#aF"/></g><path d="M27 0v-27h64v-190l-56 39v-29l58-41h29v221h61V0H27" id="aR"/><use transform="matrix(0.07469135802469135,0,0,0.07469135802469135,0,0)" xlink:href="#aR" id="G"/><path d="M23 0v-37h61v-169l-59 37v-38l62-41h46v211h57V0H23" id="aS"/><use transform="matrix(0.11172839506172831,0,0,0.11172839506172831,0,0)" xlink:href="#aS" id="H"/><g id="I"><use transform="matrix(0.07469135802469135,0,0,0.07469135802469135,0,0)" xlink:href="#aB"/><use transform="matrix(0.07469135802469135,0,0,0.07469135802469135,19.34506172839506,0)" xlink:href="#ag"/><use transform="matrix(0.07469135802469135,0,0,0.07469135802469135,34.28333333333333,0)" xlink:href="#aC"/><use transform="matrix(0.07469135802469135,0,0,0.07469135802469135,47.72777777777778,0)" xlink:href="#ad"/><use transform="matrix(0.07469135802469135,0,0,0.07469135802469135,53.6283950617284,0)" xlink:href="#aw"/><use transform="matrix(0.07469135802469135,0,0,0.07469135802469135,67.07283950617284,0)" xlink:href="#ag"/></g><use transform="matrix(0.07469135802469135,0,0,0.07469135802469135,0,0)" xlink:href="#aL" id="J"/><use transform="matrix(0.07469135802469135,0,0,0.07469135802469135,0,0)" xlink:href="#ab" id="K"/><path d="M179-190L93 31C79 59 56 82 12 73V49c39 6 53-20 64-50L1-190h34L92-34l54-156h33" id="aT"/><g id="L"><use transform="matrix(0.07469135802469135,0,0,0.07469135802469135,0,0)" xlink:href="#aM"/><use transform="matrix(0.07469135802469135,0,0,0.07469135802469135,17.925925925925924,0)" xlink:href="#aT"/><use transform="matrix(0.07469135802469135,0,0,0.07469135802469135,31.370370370370367,0)" xlink:href="#as"/><use transform="matrix(0.07469135802469135,0,0,0.07469135802469135,44.81481481481481,0)" xlink:href="#ak"/><use transform="matrix(0.07469135802469135,0,0,0.07469135802469135,52.28395061728394,0)" xlink:href="#ag"/><use transform="matrix(0.07469135802469135,0,0,0.07469135802469135,67.22222222222221,0)" xlink:href="#aG"/></g><g id="M"><use transform="matrix(0.07469135802469135,0,0,0.07469135802469135,0,0)" xlink:href="#ad"/><use transform="matrix(0.07469135802469135,0,0,0.07469135802469135,5.900617283950616,0)" xlink:href="#at"/><use transform="matrix(0.07469135802469135,0,0,0.07469135802469135,20.838888888888885,0)" xlink:href="#ak"/><use transform="matrix(0.07469135802469135,0,0,0.07469135802469135,28.30802469135802,0)" xlink:href="#ag"/><use transform="matrix(0.07469135802469135,0,0,0.07469135802469135,43.2462962962963,0)" xlink:href="#ac"/><use transform="matrix(0.07469135802469135,0,0,0.07469135802469135,52.13456790123456,0)" xlink:href="#aw"/><use transform="matrix(0.07469135802469135,0,0,0.07469135802469135,65.579012345679,0)" xlink:href="#aj"/><use transform="matrix(0.07469135802469135,0,0,0.07469135802469135,80.51728395061727,0)" xlink:href="#at"/><use transform="matrix(0.07469135802469135,0,0,0.07469135802469135,95.45555555555553,0)" xlink:href="#at"/><use transform="matrix(0.07469135802469135,0,0,0.07469135802469135,110.39382716049379,0)" xlink:href="#ag"/><use transform="matrix(0.07469135802469135,0,0,0.07469135802469135,125.33209876543206,0)" xlink:href="#aw"/><use transform="matrix(0.07469135802469135,0,0,0.07469135802469135,138.7765432098765,0)" xlink:href="#ak"/></g><path fill="#282c33" d="M169-182c-1-43-94-46-97-3 18 66 151 10 154 114 3 95-165 93-204 36-6-8-10-19-12-30l50-8c3 46 112 56 116 5-17-69-150-10-154-114-4-87 153-88 188-35 5 8 8 18 10 28" id="aU"/><path fill="#282c33" d="M123 10C108 53 80 86 19 72V37c35 8 53-11 59-39L3-190h52l48 148c12-52 28-100 44-148h51" id="aV"/><path fill="#282c33" d="M137-138c1-29-70-34-71-4 15 46 118 7 119 86 1 83-164 76-172 9l43-7c4 19 20 25 44 25 33 8 57-30 24-41C81-84 22-81 20-136c-2-80 154-74 161-7" id="aW"/><path fill="#282c33" d="M115-3C79 11 28 4 28-45v-112H4v-33h27l15-45h31v45h36v33H77v99c-1 23 16 31 38 25v30" id="aX"/><path fill="#282c33" d="M185-48c-13 30-37 53-82 52C43 2 14-33 14-96s30-98 90-98c62 0 83 45 84 108H66c0 31 8 55 39 56 18 0 30-7 34-22zm-45-69c5-46-57-63-70-21-2 6-4 13-4 21h74" id="aY"/><path fill="#282c33" d="M220-157c-53 9-28 100-34 157h-49v-107c1-27-5-49-29-50C55-147 81-57 75 0H25l-1-190h47c2 12-1 28 3 38 10-53 101-56 108 0 13-22 24-43 59-42 82 1 51 116 57 194h-49v-107c-1-25-5-48-29-50" id="aZ"/><g id="N"><use transform="matrix(0.06234567901234567,0,0,0.06234567901234567,0,0)" xlink:href="#aU"/><use transform="matrix(0.06234567901234567,0,0,0.06234567901234567,14.96296296296296,0)" xlink:href="#aV"/><use transform="matrix(0.06234567901234567,0,0,0.06234567901234567,27.432098765432094,0)" xlink:href="#aW"/><use transform="matrix(0.06234567901234567,0,0,0.06234567901234567,39.90123456790123,0)" xlink:href="#aX"/><use transform="matrix(0.06234567901234567,0,0,0.06234567901234567,47.32037037037036,0)" xlink:href="#aY"/><use transform="matrix(0.06234567901234567,0,0,0.06234567901234567,59.789506172839495,0)" xlink:href="#aZ"/></g><path fill="#282c33" d="M230 0l2-204L168 0h-37L68-204 70 0H24v-248h70l56 185 57-185h69V0h-46" id="ba"/><path fill="#282c33" d="M110-194c64 0 96 36 96 99 0 64-35 99-97 99-61 0-95-36-95-99 0-62 34-99 96-99zm-1 164c35 0 45-28 45-65 0-40-10-65-43-65-34 0-45 26-45 65 0 36 10 65 43 65" id="bb"/><path fill="#282c33" d="M135-150c-39-12-60 13-60 57V0H25l-1-190h47c2 13-1 29 3 40 6-28 27-53 61-41v41" id="bc"/><g id="O"><use transform="matrix(0.06234567901234567,0,0,0.06234567901234567,0,0)" xlink:href="#ba"/><use transform="matrix(0.06234567901234567,0,0,0.06234567901234567,18.641358024691353,0)" xlink:href="#aY"/><use transform="matrix(0.06234567901234567,0,0,0.06234567901234567,31.110493827160486,0)" xlink:href="#aZ"/><use transform="matrix(0.06234567901234567,0,0,0.06234567901234567,51.0611111111111,0)" xlink:href="#bb"/><use transform="matrix(0.06234567901234567,0,0,0.06234567901234567,64.7148148148148,0)" xlink:href="#bc"/><use transform="matrix(0.06234567901234567,0,0,0.06234567901234567,73.4432098765432,0)" xlink:href="#aV"/></g><path fill="#282c33" d="M240 0l2-218c-23 76-54 145-80 218h-23L58-218 59 0H30v-248h44l77 211c21-75 51-140 76-211h43V0h-30" id="bd"/><path fill="#282c33" d="M100-194c63 0 86 42 84 106H49c0 40 14 67 53 68 26 1 43-12 49-29l28 8c-11 28-37 45-77 45C44 4 14-33 15-96c1-61 26-98 85-98zm52 81c6-60-76-77-97-28-3 7-6 17-6 28h103" id="be"/><path fill="#282c33" d="M210-169c-67 3-38 105-44 169h-31v-121c0-29-5-50-35-48C34-165 62-65 56 0H25l-1-190h30c1 10-1 24 2 32 10-44 99-50 107 0 11-21 27-35 58-36 85-2 47 119 55 194h-31v-121c0-29-5-49-35-48" id="bf"/><path fill="#282c33" d="M100-194c62-1 85 37 85 99 1 63-27 99-86 99S16-35 15-95c0-66 28-99 85-99zM99-20c44 1 53-31 53-75 0-43-8-75-51-75s-53 32-53 75 10 74 51 75" id="bg"/><path fill="#282c33" d="M114-163C36-179 61-72 57 0H25l-1-190h30c1 12-1 29 2 39 6-27 23-49 58-41v29" id="bh"/><path fill="#282c33" d="M179-190L93 31C79 59 56 82 12 73V49c39 6 53-20 64-50L1-190h34L92-34l54-156h33" id="bi"/><g id="P"><use transform="matrix(0.0685185185185185,0,0,0.0685185185185185,0,0)" xlink:href="#bd"/><use transform="matrix(0.0685185185185185,0,0,0.0685185185185185,20.487037037037034,0)" xlink:href="#be"/><use transform="matrix(0.0685185185185185,0,0,0.0685185185185185,34.190740740740736,0)" xlink:href="#bf"/><use transform="matrix(0.0685185185185185,0,0,0.0685185185185185,54.67777777777777,0)" xlink:href="#bg"/><use transform="matrix(0.0685185185185185,0,0,0.0685185185185185,68.38148148148147,0)" xlink:href="#bh"/><use transform="matrix(0.0685185185185185,0,0,0.0685185185185185,76.53518518518517,0)" xlink:href="#bi"/></g><path fill="#282c33" d="M212-179c-10-28-35-45-73-45-59 0-87 40-87 99 0 60 29 101 89 101 43 0 62-24 78-52l27 14C228-24 195 4 139 4 59 4 22-46 18-125c-6-104 99-153 187-111 19 9 31 26 39 46" id="bj"/><path fill="#282c33" d="M117-194c89-4 53 116 60 194h-32v-121c0-31-8-49-39-48C34-167 62-67 57 0H25l-1-190h30c1 10-1 24 2 32 11-22 29-35 61-36" id="bk"/><path fill="#282c33" d="M59-47c-2 24 18 29 38 22v24C64 9 27 4 27-40v-127H5v-23h24l9-43h21v43h35v23H59v120" id="bl"/><path fill="#282c33" d="M24 0v-261h32V0H24" id="bm"/><g id="Q"><use transform="matrix(0.0685185185185185,0,0,0.0685185185185185,0,0)" xlink:href="#bj"/><use transform="matrix(0.0685185185185185,0,0,0.0685185185185185,17.746296296296293,0)" xlink:href="#bg"/><use transform="matrix(0.0685185185185185,0,0,0.0685185185185185,31.449999999999996,0)" xlink:href="#bk"/><use transform="matrix(0.0685185185185185,0,0,0.0685185185185185,45.1537037037037,0)" xlink:href="#bl"/><use transform="matrix(0.0685185185185185,0,0,0.0685185185185185,52.005555555555546,0)" xlink:href="#bh"/><use transform="matrix(0.0685185185185185,0,0,0.0685185185185185,60.159259259259244,0)" xlink:href="#bg"/><use transform="matrix(0.0685185185185185,0,0,0.0685185185185185,73.86296296296294,0)" xlink:href="#bm"/><use transform="matrix(0.0685185185185185,0,0,0.0685185185185185,79.27592592592589,0)" xlink:href="#bm"/><use transform="matrix(0.0685185185185185,0,0,0.0685185185185185,84.68888888888887,0)" xlink:href="#be"/><use transform="matrix(0.0685185185185185,0,0,0.0685185185185185,98.39259259259256,0)" xlink:href="#bh"/></g><path fill="#282c33" d="M24-248c93 1 206-16 204 79-1 75-69 88-152 82V0H24v-248zm52 121c47 0 100 7 100-41 0-47-54-39-100-39v80" id="bn"/><path fill="#282c33" d="M136-208V0H84v-208H4v-40h212v40h-80" id="bo"/><path fill="#282c33" d="M24 0v-248h195v40H76v63h132v40H76v65h150V0H24" id="bp"/><g id="R"><use transform="matrix(0.056172839506172814,0,0,0.056172839506172814,0,0)" xlink:href="#bn"/><use transform="matrix(0.056172839506172814,0,0,0.056172839506172814,13.481481481481476,0)" xlink:href="#bo"/><use transform="matrix(0.056172839506172814,0,0,0.056172839506172814,25.783333333333324,0)" xlink:href="#bp"/><use transform="matrix(0.056172839506172814,0,0,0.056172839506172814,39.2648148148148,0)" xlink:href="#aW"/></g><path fill="#282c33" d="M24-248c120-7 223 5 221 122C244-46 201 0 124 0H24v-248zM76-40c74 7 117-18 117-86 0-67-45-88-117-82v168" id="bq"/><path fill="#282c33" d="M128 0H69L1-190h53L99-40l48-150h52" id="br"/><path fill="#282c33" d="M25-224v-37h50v37H25zM25 0v-190h50V0H25" id="bs"/><path fill="#282c33" d="M190-63c-7 42-38 67-86 67-59 0-84-38-90-98-12-110 154-137 174-36l-49 2c-2-19-15-32-35-32-30 0-35 28-38 64-6 74 65 87 74 30" id="bt"/><g id="T"><use transform="matrix(0.056172839506172814,0,0,0.056172839506172814,0,0)" xlink:href="#bq"/><use transform="matrix(0.056172839506172814,0,0,0.056172839506172814,14.548765432098758,0)" xlink:href="#aY"/><use transform="matrix(0.056172839506172814,0,0,0.056172839506172814,25.78333333333332,0)" xlink:href="#br"/><use transform="matrix(0.056172839506172814,0,0,0.056172839506172814,37.01790123456789,0)" xlink:href="#bs"/><use transform="matrix(0.056172839506172814,0,0,0.056172839506172814,42.635185185185165,0)" xlink:href="#bt"/><use transform="matrix(0.056172839506172814,0,0,0.056172839506172814,53.86975308641973,0)" xlink:href="#aY"/></g><path fill="#282c33" d="M88-194c31-1 46 15 58 34l-1-101h50l1 261h-48c-2-10 0-23-3-31C134-8 116 4 84 4 32 4 16-41 15-95c0-56 19-97 73-99zm17 164c33 0 40-30 41-66 1-37-9-64-41-64s-38 30-39 65c0 43 13 65 39 65" id="bu"/><g id="U"><use transform="matrix(0.056172839506172814,0,0,0.056172839506172814,0,0)" xlink:href="#bu"/><use transform="matrix(0.056172839506172814,0,0,0.056172839506172814,12.301851851851847,0)" xlink:href="#bs"/><use transform="matrix(0.056172839506172814,0,0,0.056172839506172814,17.91913580246913,0)" xlink:href="#bc"/><use transform="matrix(0.056172839506172814,0,0,0.056172839506172814,25.783333333333324,0)" xlink:href="#aY"/><use transform="matrix(0.056172839506172814,0,0,0.056172839506172814,37.01790123456789,0)" xlink:href="#bt"/><use transform="matrix(0.056172839506172814,0,0,0.056172839506172814,48.25246913580245,0)" xlink:href="#aX"/><use transform="matrix(0.056172839506172814,0,0,0.056172839506172814,54.937037037037015,0)" xlink:href="#bb"/><use transform="matrix(0.056172839506172814,0,0,0.056172839506172814,67.23888888888887,0)" xlink:href="#bc"/><use transform="matrix(0.056172839506172814,0,0,0.056172839506172814,75.10308641975305,0)" xlink:href="#aV"/></g><g id="V"><use transform="matrix(0.056172839506172814,0,0,0.056172839506172814,0,0)" xlink:href="#bn"/><use transform="matrix(0.056172839506172814,0,0,0.056172839506172814,13.481481481481476,0)" xlink:href="#bc"/><use transform="matrix(0.056172839506172814,0,0,0.056172839506172814,21.34567901234567,0)" xlink:href="#bb"/><use transform="matrix(0.056172839506172814,0,0,0.056172839506172814,33.64753086419752,0)" xlink:href="#bt"/><use transform="matrix(0.056172839506172814,0,0,0.056172839506172814,44.88209876543208,0)" xlink:href="#aY"/><use transform="matrix(0.056172839506172814,0,0,0.056172839506172814,56.116666666666646,0)" xlink:href="#aW"/><use transform="matrix(0.056172839506172814,0,0,0.056172839506172814,67.3512345679012,0)" xlink:href="#aW"/></g><path fill="#282c33" d="M140-251c80 0 125 45 125 126 0 70-33 111-92 124 6 28 34 38 68 31l-1 36C177 83 129 55 120 2 51-6 15-50 15-125c0-81 44-126 125-126zm-1 214c52 0 73-35 73-88 0-50-21-86-72-86-52 0-73 35-73 86s22 88 72 88" id="bv"/><path fill="#282c33" d="M85 4C-2 5 27-109 22-190h50c7 57-23 150 33 157 60-5 35-97 40-157h50l1 190h-47c-2-12 1-28-3-38-12 25-28 42-61 42" id="bw"/><g id="W"><use transform="matrix(0.056172839506172814,0,0,0.056172839506172814,0,0)" xlink:href="#bv"/><use transform="matrix(0.056172839506172814,0,0,0.056172839506172814,15.728395061728389,0)" xlink:href="#bw"/><use transform="matrix(0.056172839506172814,0,0,0.056172839506172814,28.030246913580235,0)" xlink:href="#aY"/><use transform="matrix(0.056172839506172814,0,0,0.056172839506172814,39.2648148148148,0)" xlink:href="#bw"/><use transform="matrix(0.056172839506172814,0,0,0.056172839506172814,51.56666666666665,0)" xlink:href="#aY"/><use transform="matrix(0.056172839506172814,0,0,0.056172839506172814,62.801234567901204,0)" xlink:href="#aW"/></g><path fill="#282c33" d="M240-174c0 40-23 61-54 70L253 0h-59l-57-94H76V0H24v-248c93 4 217-23 216 74zM76-134c48-2 112 12 112-38 0-48-66-32-112-35v73" id="bx"/><path fill="#282c33" d="M24 0v-248h52V0H24" id="by"/><path fill="#282c33" d="M67-125c0 53 21 87 73 88 37 1 54-22 65-47l45 17C233-25 199 4 140 4 58 4 20-42 15-125 8-235 124-281 211-232c18 10 29 29 36 50l-46 12c-8-25-30-41-62-41-52 0-71 34-72 86" id="bz"/><path fill="#282c33" d="M14-72v-43h91v43H14" id="bA"/><path fill="#282c33" d="M147 0H94L2-248h55l64 206c17-72 42-137 63-206h54" id="bB"/><g id="X"><use transform="matrix(0.0685185185185185,0,0,0.0685185185185185,0,0)" xlink:href="#bx"/><use transform="matrix(0.0685185185185185,0,0,0.0685185185185185,17.746296296296293,0)" xlink:href="#by"/><use transform="matrix(0.0685185185185185,0,0,0.0685185185185185,24.598148148148145,0)" xlink:href="#aU"/><use transform="matrix(0.0685185185185185,0,0,0.0685185185185185,41.042592592592584,0)" xlink:href="#bz"/><use transform="matrix(0.0685185185185185,0,0,0.0685185185185185,58.78888888888888,0)" xlink:href="#bA"/><use transform="matrix(0.0685185185185185,0,0,0.0685185185185185,66.94259259259258,0)" xlink:href="#bB"/></g><g id="Y"><use transform="matrix(0.0685185185185185,0,0,0.0685185185185185,0,0)" xlink:href="#bt"/><use transform="matrix(0.0685185185185185,0,0,0.0685185185185185,13.7037037037037,0)" xlink:href="#bb"/><use transform="matrix(0.0685185185185185,0,0,0.0685185185185185,28.709259259259255,0)" xlink:href="#bc"/><use transform="matrix(0.0685185185185185,0,0,0.0685185185185185,38.30185185185185,0)" xlink:href="#aY"/><use transform="matrix(0.0685185185185185,0,0,0.0685185185185185,52.00555555555555,0)" xlink:href="#aW"/></g></defs></g></svg>